<?xml version="1.0" encoding="UTF-8" standalone="no"?>
<!-- Created with Inkscape (http://www.inkscape.org/) -->

<svg
   version="1.1"
   id="svg1"
   width="150"
   height="150"
   viewBox="0 0 150 150"
   sodipodi:docname="bq.svg"
   inkscape:version="1.4 (86a8ad7, 2024-10-11)"
   xml:space="preserve"
   xmlns:inkscape="http://www.inkscape.org/namespaces/inkscape"
   xmlns:sodipodi="http://sodipodi.sourceforge.net/DTD/sodipodi-0.dtd"
   xmlns="http://www.w3.org/2000/svg"
   xmlns:svg="http://www.w3.org/2000/svg"><defs
     id="defs1"><inkscape:path-effect
       effect="powerstroke"
       message=""
       id="path-effect18"
       is_visible="true"
       lpeversion="1.3"
       scale_width="1"
       interpolator_type="CentripetalCatmullRom"
       interpolator_beta="0.2"
       start_linecap_type="zerowidth"
       end_linecap_type="zerowidth"
       offset_points="0.81686126,1.4911442 | 3.038785,1.7779197 | 5.3518005,1.4907452"
       linejoin_type="round"
       miter_limit="4"
       not_jump="false"
       sort_points="true" /><inkscape:path-effect
       effect="powerstroke"
       message=""
       id="path-effect16"
       is_visible="true"
       lpeversion="1.3"
       scale_width="1"
       interpolator_type="CentripetalCatmullRom"
       interpolator_beta="0.2"
       start_linecap_type="zerowidth"
       end_linecap_type="zerowidth"
       offset_points="0.14381321,0.59001441 | 0.53216529,-2.7438412 | 0.91299828,0.77244544"
       linejoin_type="round"
       miter_limit="4"
       not_jump="false"
       sort_points="true" /><inkscape:path-effect
       effect="powerstroke"
       message=""
       id="path-effect14"
       is_visible="true"
       lpeversion="1.3"
       scale_width="1"
       interpolator_type="CentripetalCatmullRom"
       interpolator_beta="0.2"
       start_linecap_type="butt"
       end_linecap_type="zerowidth"
       offset_points="1.1169304,4.8960628 | 1.7197421,4.7997435 | 3.4875492,1.3054201"
       linejoin_type="round"
       miter_limit="4"
       not_jump="false"
       sort_points="true" /><inkscape:path-effect
       effect="powerstroke"
       message=""
       id="path-effect12"
       is_visible="true"
       lpeversion="1.3"
       scale_width="1"
       interpolator_type="CentripetalCatmullRom"
       interpolator_beta="0.2"
       start_linecap_type="zerowidth"
       end_linecap_type="zerowidth"
       offset_points="0.2,1.5 | 1.5,1.5 | 2.8,1.5"
       linejoin_type="round"
       miter_limit="4"
       not_jump="false"
       sort_points="true" /><inkscape:path-effect
       effect="powerstroke"
       message=""
       id="path-effect10"
       is_visible="true"
       lpeversion="1.3"
       scale_width="1"
       interpolator_type="CentripetalCatmullRom"
       interpolator_beta="0.2"
       start_linecap_type="zerowidth"
       end_linecap_type="zerowidth"
       offset_points="0.77014948,2.8907917 | 2.5202858,1.9328482 | 6.1571903,1.3131923"
       linejoin_type="round"
       miter_limit="4"
       not_jump="false"
       sort_points="true" /><inkscape:path-effect
       effect="powerstroke"
       message=""
       id="path-effect8"
       is_visible="true"
       lpeversion="1.3"
       scale_width="1"
       interpolator_type="CentripetalCatmullRom"
       interpolator_beta="0.2"
       start_linecap_type="zerowidth"
       end_linecap_type="zerowidth"
       offset_points="0.31382038,2.5784688 | 3,2 | 5.8,2"
       linejoin_type="round"
       miter_limit="4"
       not_jump="false"
       sort_points="true" /><inkscape:path-effect
       effect="powerstroke"
       message=""
       id="path-effect7"
       is_visible="true"
       lpeversion="1.3"
       scale_width="1"
       interpolator_type="CentripetalCatmullRom"
       interpolator_beta="0.2"
       start_linecap_type="zerowidth"
       end_linecap_type="zerowidth"
       offset_points="0.79153388,1.9795945 | 3.2126261,2.1287118 | 4.4606079,1.6434232"
       linejoin_type="round"
       miter_limit="4"
       not_jump="false"
       sort_points="true" /><inkscape:path-effect
       effect="powerstroke"
       message=""
       id="path-effect6"
       is_visible="true"
       lpeversion="1.3"
       scale_width="1"
       interpolator_type="CentripetalCatmullRom"
       interpolator_beta="0.2"
       start_linecap_type="zerowidth"
       end_linecap_type="zerowidth"
       offset_points="0.76537321,0.89958984 | 1.2423103,1.0339335 | 1.8294931,1.0287326"
       linejoin_type="round"
       miter_limit="4"
       not_jump="false"
       sort_points="true" /><inkscape:path-effect
       effect="powerstroke"
       message=""
       id="path-effect5"
       is_visible="true"
       lpeversion="1.3"
       scale_width="1"
       interpolator_type="CentripetalCatmullRom"
       interpolator_beta="0.2"
       start_linecap_type="zerowidth"
       end_linecap_type="zerowidth"
       offset_points="1.2046765,2.104122 | 3.4255256,2.5944904 | 5.1369172,2.4600166"
       linejoin_type="round"
       miter_limit="4"
       not_jump="false"
       sort_points="true" /><inkscape:path-effect
       effect="powerstroke"
       message=""
       id="path-effect4"
       is_visible="true"
       lpeversion="1.3"
       scale_width="1"
       interpolator_type="CentripetalCatmullRom"
       interpolator_beta="0.2"
       start_linecap_type="zerowidth"
       end_linecap_type="zerowidth"
       offset_points="0.40832093,1.1328605 | 3,2 | 5.6342541,1.0182061"
       linejoin_type="round"
       miter_limit="4"
       not_jump="false"
       sort_points="true" /><inkscape:path-effect
       effect="fill_between_many"
       method="bsplinespiro"
       autoreverse="false"
       close="false"
       join="false"
       linkedpaths="#path7,0,1"
       id="path-effect9" /><inkscape:path-effect
       effect="fill_between_many"
       method="bsplinespiro"
       autoreverse="false"
       close="false"
       join="false"
       linkedpaths="#path9,0,1"
       id="path-effect11" /><inkscape:path-effect
       effect="fill_between_many"
       method="bsplinespiro"
       autoreverse="false"
       close="false"
       join="false"
       linkedpaths="#path11,0,1"
       id="path-effect13" /><inkscape:path-effect
       effect="fill_between_many"
       method="bsplinespiro"
       autoreverse="false"
       close="false"
       join="false"
       linkedpaths="#path13,0,1"
       id="path-effect15" /><inkscape:path-effect
       effect="fill_between_many"
       method="bsplinespiro"
       autoreverse="false"
       close="false"
       join="false"
       linkedpaths="#path15,0,1"
       id="path-effect17" /><inkscape:path-effect
       effect="fill_between_many"
       method="bsplinespiro"
       autoreverse="false"
       close="false"
       join="false"
       linkedpaths="#path17,0,1"
       id="path-effect19" /></defs><sodipodi:namedview
     id="namedview1"
     pagecolor="#ffffff"
     bordercolor="#482680"
     borderopacity="0.25"
     inkscape:showpageshadow="2"
     inkscape:pageopacity="0.0"
     inkscape:pagecheckerboard="0"
     inkscape:deskcolor="#d1d1d1"
     inkscape:zoom="2.8284271"
     inkscape:cx="95.81297"
     inkscape:cy="120.38493"
     inkscape:window-width="1920"
     inkscape:window-height="1009"
     inkscape:window-x="1679"
     inkscape:window-y="1072"
     inkscape:window-maximized="1"
     inkscape:current-layer="layer1" /><g
     inkscape:groupmode="layer"
     id="layer1"
     inkscape:label="Queen Image"
     style="display:inline"><path
       style="display:inline;font-variation-settings:normal;opacity:1;vector-effect:none;fill:#8166f0;fill-opacity:1;stroke:none;stroke-width:1.488;stroke-linecap:butt;stroke-linejoin:miter;stroke-miterlimit:4;stroke-dasharray:none;stroke-dashoffset:0;stroke-opacity:1;-inkscape-stroke:none;stop-color:#482680;stop-opacity:1"
       d="m 75.913086,111.56983 c -10.642065,0.19607 -21.467566,-0.0309 -31.862099,2.58968 -2.821218,0.71963 -5.816329,2.08267 -6.947471,4.98209 -2.296744,4.15907 -1.982906,9.01539 -2.167969,13.59229 0.871309,1.13041 2.914447,0.22599 4.249512,0.51611 25.709962,0 51.419922,0 77.129881,0 1.10144,-0.90754 0.13058,-2.9203 0.37698,-4.26411 -0.11463,-4.5181 -0.72802,-9.713 -4.38137,-12.83306 -4.22455,-2.72275 -9.44236,-3.09745 -14.300374,-3.7579 -7.335548,-0.79404 -14.727173,-0.8202 -22.09709,-0.8251 z"
       id="path5"
       inkscape:label="FillBottom" /><path
       style="display:inline;font-variation-settings:normal;opacity:1;vector-effect:none;fill:#8166f0;fill-opacity:1;stroke:none;stroke-width:1.488;stroke-linecap:butt;stroke-linejoin:miter;stroke-miterlimit:4;stroke-dasharray:none;stroke-dashoffset:0;stroke-opacity:1;-inkscape-stroke:none;stop-color:#482680;stop-opacity:1"
       d="m 91.977541,19.394531 c -1.43722,0.0067 -2.663293,0.816301 -3.992678,1.218262 -3.441127,1.857798 -6.252497,5.320881 -6.254392,9.370118 -0.06609,1.713807 -0.05818,3.601278 1.03906,4.995605 0.791707,1.905683 2.858385,3.099252 3.686525,4.891113 -1.271515,3.335509 -2.210368,6.791206 -3.513185,10.111816 -0.347125,1.583648 -1.190218,2.997528 -1.458008,4.597658 -0.583375,0.992518 -0.69093,2.106103 -1.259765,3.078613 -0.535922,1.907967 -1.181845,3.784977 -1.904297,5.624512 -0.98779,2.34133 -1.487378,4.849013 -2.56201,7.159178 -2.257418,-5.114343 -3.678423,-10.56182 -5.601058,-15.808191 -1.77745,-4.994802 -3.24867,-10.08719 -5.13869,-15.041906 4.074285,-3.162374 5.947325,-9.388401 3.095215,-13.936035 -0.64022,-1.151738 -1.285615,-2.286995 -2.444005,-3.021448 -1.341797,-0.810109 -2.155705,-2.340462 -3.806972,-2.580115 -3.080615,-1.135541 -6.728481,-0.749509 -9.371581,1.210938 -1.747325,0.966923 -2.83309,2.733295 -3.956055,4.293457 -1.461727,2.405036 -0.771935,5.367551 -0.848145,8.030762 0.148328,1.590985 1.57181,2.644903 2.370458,3.942087 0.739612,0.987569 1.705355,1.752113 2.773097,2.280569 0.95438,0.610438 2.28134,1.225027 2.007813,2.605469 0.202962,11.176165 -0.925935,22.378453 -1.208008,33.544923 -0.03907,0.973007 -1.150162,-0.914693 -1.557332,-1.056998 -4.71249,-4.856082 -9.317855,-9.837695 -13.725871,-14.963022 -0.125196,-0.454055 0.775323,-0.712753 0.665039,-1.27832 1.682742,-1.011793 0.92738,-3.256726 1.084961,-4.860841 0.209401,-2.85858 -1.295958,-5.553445 -3.312989,-7.46289 -2.18854,-1.864964 -5.054236,-3.008078 -7.947754,-3.007813 -1.403805,0.274688 -2.717314,0.874796 -4.037597,1.386231 -2.060194,1.087542 -3.692463,2.859352 -4.594239,4.998535 -1.058316,2.137147 -1.515832,4.68807 -0.63916,6.979003 0.268026,1.342462 1.276731,2.31344 1.810059,3.535645 1.653176,2.09081 4.073574,3.420407 6.431152,4.500977 1.763559,2.187455 2.91453,4.83466 3.955078,7.410645 0.692657,1.952665 1.802724,3.738 2.44336,5.708983 0.575302,1.236927 0.98064,2.542002 1.547851,3.783205 0.853646,2.28171 1.860345,4.514972 2.856446,6.75244 0.326504,1.33491 1.204459,2.41299 1.494629,3.750487 0.642562,1.292983 1.029923,2.683235 1.655761,3.9834 0.710652,1.924598 1.718738,3.741918 2.363769,5.684087 0.741367,1.17587 0.977027,2.55111 1.626955,3.79296 0.444772,1.36803 1.068545,2.70012 1.615722,4.03174 1.025615,1.53024 3.150533,0.55503 4.639823,0.58254 8.805848,-1.15888 17.73232,-0.8351 26.581858,-1.51027 0.786955,0.11875 1.64223,0.36304 2.42334,-0.12207 0.855442,0.6709 1.749702,-0.34462 2.634765,0.17969 5.86664,0.53832 11.767552,0.32745 17.605954,1.16796 1.61992,0.38577 3.19659,-0.77278 3.39698,-2.4038 0.53708,-1.79878 1.87244,-3.31457 2.39404,-5.15528 1.19834,-2.532197 2.26072,-5.151344 3.28711,-7.751952 0.6766,-1.026245 0.6375,-2.276522 1.41504,-3.250487 2.24315,-5.784253 4.66142,-11.486968 7.0791,-17.17041 0.40518,-0.970235 1.14849,-1.789263 1.22851,-2.910645 0.43915,-0.952388 0.75024,-1.996655 1.16358,-2.921388 1.03148,-1.05689 0.79653,-3.06907 2.11621,-3.841307 2.51916,0.187602 4.0422,-2.273195 5.7876,-3.66748 2.01665,-1.969583 3.09055,-4.782105 2.73095,-7.596681 -0.002,-2.692312 -1.50128,-5.264445 -3.42041,-7.071777 -1.18366,-1.067305 -2.57483,-1.877498 -4.12255,-2.224122 -2.02038,-0.949964 -4.42839,-0.628857 -6.38575,0.288574 -2.12512,0.75247 -3.8381,2.527658 -5.14209,4.325195 -0.98085,1.890778 -1.90819,4.024073 -1.63982,6.207328 0.24354,1.592083 0.69143,3.167765 1.69012,4.43525 -0.0102,1.902638 -1.82813,3.246435 -2.86768,4.65332 -3.89179,4.145795 -7.76105,8.441135 -11.864259,12.313478 -1.129788,-10.132163 -0.828965,-20.345758 -1.61328,-30.499023 -0.341583,-1.619494 -0.150048,-3.268262 -0.124023,-4.899903 3.647552,-0.783699 6.294042,-4.01088 7.382812,-7.432129 0.92355,-4.24667 -0.70981,-8.984325 -4.315919,-11.500977 -2.10993,-1.596545 -4.80571,-2.486309 -7.45117,-2.459473 z"
       id="path4"
       inkscape:label="FillTop" /><path
       style="display:inline;fill:#5c43bd;fill-opacity:1"
       d="m 32.521753,128.51014 c 0.403729,-9.649 2.055927,-12.86654 8.16715,-15.90494 2.027006,-1.0078 3.685466,-2.27531 3.685466,-2.8167 0,-0.54139 -3.882023,-10.332703 -8.626717,-21.75848 C 28.076878,69.557899 26.767058,67.065303 23.927431,65.536063 19.607717,63.209743 17.374369,59.08499 17.374369,53.433262 c 0,-3.985019 0.502649,-5.198357 3.321131,-8.016839 8.992686,-8.992687 22.002814,-2.76308 21.526373,10.307418 -0.182587,5.00905 0.03925,5.523133 4.229901,9.802387 l 4.422595,4.516099 0.651103,-5.302387 c 0.358107,-2.916312 0.695607,-9.02123 0.75,-13.566483 0.09611,-8.031492 0.01169,-8.342015 -2.999418,-11.03244 -5.621227,-5.022565 -5.040081,-15.83254 1.085656,-20.194449 11.751421,-8.36775 26.700445,4.38469 20.064418,17.116187 l -2.19574,4.212618 3.680776,10.331091 c 2.024427,5.682099 3.795478,10.33109 3.935669,10.33109 0.140191,0 1.909596,-4.69238 3.932009,-10.42751 l 3.677116,-10.427511 -2.040794,-3.80768 c -3.436891,-6.412494 -2.131808,-12.760748 3.540673,-17.222722 8.508684,-6.692932 21.425253,-0.357657 21.414793,10.503457 -0.004,4.092542 -2.98003,10.054773 -5.50198,11.022536 -1.190248,0.456739 -1.4792,2.535421 -1.420158,10.216419 0.04077,5.303656 0.378268,11.657894 0.749998,14.120529 l 0.67588,4.477518 4.4358,-5.151342 c 4.1924,-4.868687 4.42202,-5.448838 4.18465,-10.57313 -0.21346,-4.608186 0.14487,-5.89243 2.3879,-8.558114 3.44302,-4.091806 9.00129,-5.819417 13.71637,-4.263299 5.46833,1.804709 8.04012,5.239386 8.55288,11.422502 0.40508,4.884841 0.16922,5.659321 -2.72868,8.959849 -1.74465,1.987049 -3.97853,3.86877 -4.96418,4.181601 -1.21437,0.385428 -4.57935,7.266445 -10.43841,21.345416 -4.75548,11.427148 -8.64633,21.280667 -8.64633,21.896697 0,0.61604 1.65846,1.94463 3.68546,2.95243 6.11123,3.0384 7.76343,6.25594 8.16715,15.90494 l 0.35262,8.42741 H 75.874369 32.169136 Z m 83.847037,0.67741 c -0.009,-6.00204 -1.8592,-11.11529 -4.69439,-12.97298 -4.34227,-2.84516 -15.758322,-4.19838 -35.300031,-4.18434 -19.695393,0.0142 -32.130545,1.45239 -36.326113,4.20143 -2.808099,1.83994 -4.65942,6.97788 -4.66831,12.95589 l -0.0056,3.75 h 40.5 40.500004 z M 65.507488,108.37992 c 16.227474,-0.80207 19.635677,-1.9434 28.103028,-9.411003 5.920632,-5.221582 15.325784,-17.781036 21.840664,-29.165587 3.45923,-6.044903 6.04192,-9.328292 8.45962,-10.754768 6.5238,-3.849136 7.10259,-11.079565 1.11658,-13.948587 -5.78865,-2.774423 -12.65301,1.886879 -12.65301,8.592124 0,2.115 0.51308,4.358532 1.14017,4.985625 0.85356,0.853561 -0.9689,3.450125 -7.25,10.329464 l -8.390171,9.189293 -0.712033,-3.879463 c -1.18988,-6.482976 -3.787967,-29.8465 -3.787967,-34.063617 0,-2.843527 0.837736,-5.066751 2.97218,-7.887708 3.128353,-4.134544 3.880701,-8.475419 1.772225,-10.225301 -4.233024,-3.513097 -11.45183,-1.603084 -14.227478,3.764429 -2.142473,4.143084 -1.892787,6.851174 0.978797,10.616014 l 2.495724,3.272062 -5.104378,14.822329 c -6.130573,17.802243 -6.485456,18.552497 -7.484223,15.822328 -0.402408,-1.1 -3.411824,-8.075 -6.68759,-15.5 C 59.962434,36.516093 60.038183,36.86771 62.997699,31.301626 66.009866,25.636518 65.763768,22.881254 62.088758,21.125287 52.815424,16.694369 43.891336,29.648838 51.06146,37.132835 c 1.4779,1.542595 3.301375,2.804719 4.052166,2.804719 1.086956,0 1.254564,1.680847 0.82266,8.25 -0.298329,4.5375 -0.815116,13.087623 -1.148416,19.000274 L 54.181871,77.938102 44.164906,68.694972 34.147942,59.451841 34.78504,53.2334 c 0.601569,-5.871657 0.496754,-6.310397 -1.879502,-7.86738 -5.156987,-3.378988 -12.548565,1.51138 -12.508933,8.276079 0.02492,4.253953 2.095894,7.36911 6.321993,9.509544 2.422396,1.226894 4.136821,4.543631 11.559579,22.363228 4.793442,11.507475 9.029832,21.756869 9.4142,22.776439 0.388791,1.03129 1.308761,1.61971 2.073541,1.32623 0.756079,-0.29013 7.839786,-0.84706 15.74157,-1.23762 z"
       id="path1"
       inkscape:label="Dark Gray Shadows"
       sodipodi:nodetypes="ssssssssscssssscssscsscssscssssssssssscccscscssccccsssssssscsssssscssssssssscccssssssss" /><path
       style="fill:#aa95ff;fill-opacity:1;stroke-width:7.559"
       d="m 37.506282,119.60225 c 0,0 7.974599,-1.61243 11.743718,-2.10225 7.732106,-1.00483 15.578478,-0.77817 23.375001,-0.875 6.625013,-0.0823 13.255107,-0.0231 19.875,0.25 4.173312,0.17217 8.390199,0.12956 12.499999,0.875 3.16507,0.57408 9.80243,2.81629 9.80243,2.81629 0,0 -1.09275,-2.65402 -2.27145,-3.67612 -1.36565,-1.18421 -4.05694,-2.09698 -5.78098,-2.64017 -4.06387,-1.2804 -8.378688,-1.64878 -12.624999,-2 -5.232298,-0.43277 -10.500207,-0.0625 -15.75,-0.125 -5.250289,-0.0625 -10.501985,-0.4167 -15.75,-0.25 -3.676395,0.11678 -7.360477,0.34266 -11.000001,0.875 -2.951475,0.4317 -5.993415,0.73535 -8.75,1.875 -1.42054,0.58729 -2.948857,1.27317 -3.875,2.5 -0.60355,0.7995 -1.493718,2.47725 -1.493718,2.47725 z"
       id="path6"
       inkscape:label="HighlightBottom"
       sodipodi:nodetypes="csssscssssssssc" /><path
       style="display:inline;fill:#aa95ff;fill-opacity:1;stroke-width:7.559"
       d="m 83.665618,34.319164 c 0,0 -0.571826,-1.601263 -0.6875,-2.4375 -0.131313,-0.949294 -0.132075,-1.925811 0,-2.875 0.110429,-0.793625 0.345171,-1.574079 0.65625,-2.3125 0.284411,-0.675119 0.660283,-1.315673 1.09375,-1.90625 0.327132,-0.445701 0.722045,-0.840212 1.125,-1.218751 0.57745,-0.542461 1.172951,-1.078406 1.84375,-1.5 0.808796,-0.508324 1.683133,-0.930097 2.59375,-1.21875 0.514241,-0.163008 1.055137,-0.251062 1.59375,-0.28125 0.477876,-0.02678 0.986392,-0.08201 1.433058,0.08996 0.163659,0.06301 0.411612,0.327665 0.411612,0.327665 0,0 -1.522326,0.779647 -2.21967,1.269876 -0.985312,0.692669 -1.91883,1.472094 -2.75,2.343751 -0.681547,0.714746 -1.238502,1.540074 -1.8125,2.34375 -0.572591,0.801707 -1.186413,1.586573 -1.625,2.46875 -0.388677,0.781787 -0.595895,1.641489 -0.875,2.46875 -0.272756,0.808441 -0.78125,2.437499 -0.78125,2.437499 z"
       id="path13"
       sodipodi:nodetypes="cssssssssscsssssc"
       inkscape:label="HighlightTop04"
       transform="translate(29.25,23.6875)" /><path
       style="display:inline;fill:#aa95ff;fill-opacity:1;stroke-width:7.559"
       d="m 83.223676,34.319164 c 0,0 -0.571826,-1.601263 -0.6875,-2.4375 -0.131313,-0.949294 -0.132075,-1.925811 0,-2.875 0.110429,-0.793625 0.345171,-1.574079 0.65625,-2.3125 0.284411,-0.675119 0.660283,-1.315673 1.09375,-1.90625 0.327132,-0.445701 0.722045,-0.840212 1.125,-1.218751 0.57745,-0.542461 1.172951,-1.078406 1.84375,-1.5 0.808796,-0.508324 1.683133,-0.930097 2.59375,-1.21875 0.514241,-0.163008 1.055137,-0.251062 1.59375,-0.28125 0.477876,-0.02678 0.986392,-0.08201 1.433058,0.08996 0.163659,0.06301 0.411612,0.327665 0.411612,0.327665 0,0 -1.522326,0.779647 -2.21967,1.269876 -0.985312,0.692669 -1.91883,1.472094 -2.75,2.343751 -0.681547,0.714746 -1.238502,1.540074 -1.8125,2.34375 -0.572591,0.801707 -1.186413,1.586573 -1.625,2.46875 -0.388677,0.781787 -0.595895,1.641489 -0.875,2.46875 -0.272756,0.808441 -0.78125,2.437499 -0.78125,2.437499 z"
       id="path12"
       sodipodi:nodetypes="cssssssssscsssssc"
       inkscape:label="HighlightTop03" /><path
       style="display:inline;fill:#aa95ff;fill-opacity:1;stroke-width:7.559"
       d="m 20.78125,57.656251 c 0,0 -0.571826,-1.601263 -0.6875,-2.4375 -0.131313,-0.949294 -0.132075,-1.925811 0,-2.875 0.110429,-0.793625 0.345171,-1.574079 0.65625,-2.3125 0.284411,-0.675119 0.660283,-1.315673 1.09375,-1.90625 0.327132,-0.445701 0.722045,-0.840212 1.125,-1.218751 0.57745,-0.542461 1.172951,-1.078406 1.84375,-1.5 0.808796,-0.508324 1.683133,-0.930097 2.59375,-1.21875 0.514241,-0.163008 1.055137,-0.251062 1.59375,-0.28125 0.477876,-0.02678 0.986392,-0.08201 1.433058,0.08996 0.163659,0.06301 0.411612,0.327665 0.411612,0.327665 0,0 -1.522326,0.779647 -2.21967,1.269876 -0.985312,0.692669 -1.91883,1.472094 -2.75,2.343751 -0.681547,0.714746 -1.238502,1.540074 -1.8125,2.34375 -0.572591,0.801707 -1.186413,1.586573 -1.625,2.46875 -0.388677,0.781787 -0.595895,1.641489 -0.875,2.46875 -0.272756,0.808441 -0.78125,2.437499 -0.78125,2.437499 z"
       id="path11"
       sodipodi:nodetypes="cssssssssscsssssc"
       inkscape:label="HighlightTop02"
       transform="translate(28.168274,-24.372779)" /><path
       style="display:inline;fill:#aa95ff;fill-opacity:1;stroke-width:7.559"
       d="m 20.78125,57.656251 c 0,0 -0.571826,-1.601263 -0.6875,-2.4375 -0.131313,-0.949294 -0.132075,-1.925811 0,-2.875 0.110429,-0.793625 0.345171,-1.574079 0.65625,-2.3125 0.284411,-0.675119 0.660283,-1.315673 1.09375,-1.90625 0.327132,-0.445701 0.722045,-0.840212 1.125,-1.218751 0.57745,-0.542461 1.172951,-1.078406 1.84375,-1.5 0.808796,-0.508324 1.683133,-0.930097 2.59375,-1.21875 0.514241,-0.163008 1.055137,-0.251062 1.59375,-0.28125 0.477876,-0.02678 0.986392,-0.08201 1.433058,0.08996 0.163659,0.06301 0.411612,0.327665 0.411612,0.327665 0,0 -1.522326,0.779647 -2.21967,1.269876 -0.985312,0.692669 -1.91883,1.472094 -2.75,2.343751 -0.681547,0.714746 -1.238502,1.540074 -1.8125,2.34375 -0.572591,0.801707 -1.186413,1.586573 -1.625,2.46875 -0.388677,0.781787 -0.595895,1.641489 -0.875,2.46875 -0.272756,0.808441 -0.78125,2.437499 -0.78125,2.437499 z"
       id="path10"
       sodipodi:nodetypes="cssssssssscsssssc"
       inkscape:label="HighlightTop01" /><path
       style="fill:#482680;fill-opacity:1"
       d="m 31.991423,129.21725 c -0.0012,-9.65745 1.702374,-13.9272 7.813597,-16.9656 2.027006,-1.0078 4.569349,-1.92176 4.569349,-2.46315 0,-0.54139 -3.882023,-10.332703 -8.626717,-21.75848 -7.670774,-18.472121 -8.980594,-20.964717 -11.820221,-22.493957 -4.319714,-2.32632 -7.414453,-7.115951 -7.395892,-11.749248 0.01551,-3.872617 0.524096,-5.55191 3.280078,-8.370392 8.891303,-9.09294 23.593804,-3.29341 23.117363,9.777088 -0.182587,5.00905 -0.667857,6.053463 3.522794,10.332717 l 4.422595,4.516099 0.651103,-5.302387 c 0.358107,-2.916312 0.695607,-9.02123 0.75,-13.566483 0.09611,-8.031492 0.01169,-8.342015 -2.999418,-11.03244 -5.621227,-5.022565 -5.040081,-15.83254 1.085656,-20.194449 11.751421,-8.36775 26.700445,4.38469 20.064418,17.116187 l -2.19574,4.212618 3.680776,10.331091 c 2.024427,5.682099 3.795478,10.33109 3.935669,10.33109 0.140191,0 1.909596,-4.69238 3.932009,-10.42751 l 3.677116,-10.427511 -2.040794,-3.80768 c -3.436891,-6.412494 -2.131808,-12.760748 3.540673,-17.222722 8.508684,-6.692932 21.425253,-0.357657 21.414793,10.503457 0.17278,6.037086 -3.51036,10.054773 -6.03231,11.022536 -1.190248,0.456739 -0.94887,2.535421 -0.889828,10.216419 0.04077,5.303656 0.378268,11.657894 0.749998,14.120529 l 0.67588,4.477518 4.4358,-5.151342 c 4.1924,-4.868687 3.89169,-4.564955 3.65432,-9.689247 -0.21346,-4.608186 0.6752,-6.776313 2.91823,-9.441997 3.44302,-4.091806 9.13387,-5.377475 13.84895,-3.821357 5.46833,1.804709 8.31272,5.069857 8.90643,11.245725 0.31666,3.29385 -0.9817,6.211205 -2.24254,7.545635 -1.90506,2.016259 -4.9508,5.017819 -5.93645,5.33065 -1.21437,0.385428 -4.57935,7.266445 -10.43841,21.345416 -4.75548,11.427148 -8.64633,21.280667 -8.64633,21.896697 0,0.61604 2.54234,1.59108 4.56934,2.59888 6.11123,3.0384 6.8709,6.78663 7.28327,16.43527 l 0.35262,8.25063 H 75.874369 l -43.88201,-0.17678 z m 84.377367,-0.0297 c -0.009,-6.00204 -1.8592,-11.11529 -4.69439,-12.97298 -4.34227,-2.84516 -15.758322,-4.55193 -35.300031,-4.53789 -19.695393,0.0142 -32.130545,1.80594 -36.326113,4.55498 -2.808099,1.83994 -4.65942,6.97788 -4.66831,12.95589 l -0.0056,3.75 h 40.5 40.500004 z M 65.507488,108.37992 c 16.227474,-0.80207 22.892733,-0.55912 35.881202,0.48849 4.26097,0.34368 11.05675,-21.906184 16.62575,-33.850167 4.34798,-9.325217 10.11421,-12.797378 10.9345,-13.848361 5.29207,-6.780404 1.53412,-14.968652 -3.92156,-16.069907 -6.29227,-1.270125 -12.65301,1.886879 -12.65301,8.592124 0,2.115 0.51308,4.358532 1.14017,4.985625 0.85356,0.853561 -0.9689,3.450125 -7.25,10.329464 l -8.390171,9.189293 -0.712033,-3.879463 c -1.18988,-6.482976 -0.07742,-27.099353 0.10112,-31.942297 0.139915,-3.79533 3.938074,-3.009242 5.498834,-6.619941 3.53587,-8.179973 -1.82793,-12.041283 -3.936409,-13.791165 -4.233024,-3.513097 -12.158937,-1.426307 -14.934585,3.941206 -2.142473,4.143084 -1.892787,6.851174 0.978797,10.616014 l 2.495724,3.272062 -5.104378,14.822329 c -6.130573,17.802243 -6.485456,18.552497 -7.484223,15.822328 -0.402408,-1.1 -4.418569,-14.183897 -7.041144,-21.863961 C 63.497968,36.16254 66.048591,42.171011 68.654553,33.24617 70.4529,27.087229 65.586991,22.527701 61.911981,20.771734 52.638647,16.340816 44.047586,29.836338 51.21771,37.320335 c 1.4779,1.542595 2.802074,2.499561 3.270916,3.085969 0.899456,1.125 1.702787,2.979864 1.44766,7.78125 C 55.695,52.728445 55.12117,61.275177 54.78787,67.187828 L 54.181871,77.938102 43.966683,67.062928 40.242297,62.553554 39.911565,55.177944 c -0.357399,-7.970306 -4.276218,-9.315601 -6.475697,-10.342254 -5.586752,-2.607733 -13.255672,2.218487 -13.21604,8.983186 0.02492,4.253953 2.272671,7.192333 6.49877,9.332767 2.422396,1.226894 4.136821,4.543631 11.559579,22.363228 4.793442,11.507475 9.029832,21.756869 9.4142,22.776439 0.388791,1.03129 1.308761,1.61971 2.073541,1.32623 0.756079,-0.29013 7.839786,-0.84706 15.74157,-1.23762 z"
       id="path2"
       inkscape:label="Black Outline"
       sodipodi:nodetypes="ssssssssscssssscssscsscssscssssssssssscccscscssccccsssssssscsssssscssssssssscccssssssss" /></g></svg>
