<?xml version="1.0" encoding="UTF-8" standalone="no"?>
<!-- Created with Inkscape (http://www.inkscape.org/) -->

<svg
   version="1.1"
   id="svg1"
   width="150"
   height="150"
   viewBox="0 0 150 150"
   sodipodi:docname="br.svg"
   inkscape:version="1.4 (86a8ad7, 2024-10-11)"
   xml:space="preserve"
   xmlns:inkscape="http://www.inkscape.org/namespaces/inkscape"
   xmlns:sodipodi="http://sodipodi.sourceforge.net/DTD/sodipodi-0.dtd"
   xmlns="http://www.w3.org/2000/svg"
   xmlns:svg="http://www.w3.org/2000/svg"><defs
     id="defs1"><inkscape:path-effect
       effect="powerstroke"
       message=""
       id="path-effect18"
       is_visible="true"
       lpeversion="1.3"
       scale_width="1"
       interpolator_type="CentripetalCatmullRom"
       interpolator_beta="0.2"
       start_linecap_type="zerowidth"
       end_linecap_type="zerowidth"
       offset_points="0.81686126,1.4911442 | 3.038785,1.7779197 | 5.3518005,1.4907452"
       linejoin_type="round"
       miter_limit="4"
       not_jump="false"
       sort_points="true" /><inkscape:path-effect
       effect="powerstroke"
       message=""
       id="path-effect16"
       is_visible="true"
       lpeversion="1.3"
       scale_width="1"
       interpolator_type="CentripetalCatmullRom"
       interpolator_beta="0.2"
       start_linecap_type="zerowidth"
       end_linecap_type="zerowidth"
       offset_points="0.14381321,0.59001441 | 0.53216529,-2.7438412 | 0.91299828,0.77244544"
       linejoin_type="round"
       miter_limit="4"
       not_jump="false"
       sort_points="true" /><inkscape:path-effect
       effect="powerstroke"
       message=""
       id="path-effect14"
       is_visible="true"
       lpeversion="1.3"
       scale_width="1"
       interpolator_type="CentripetalCatmullRom"
       interpolator_beta="0.2"
       start_linecap_type="butt"
       end_linecap_type="zerowidth"
       offset_points="1.1169304,4.8960628 | 1.7197421,4.7997435 | 3.4875492,1.3054201"
       linejoin_type="round"
       miter_limit="4"
       not_jump="false"
       sort_points="true" /><inkscape:path-effect
       effect="powerstroke"
       message=""
       id="path-effect12"
       is_visible="true"
       lpeversion="1.3"
       scale_width="1"
       interpolator_type="CentripetalCatmullRom"
       interpolator_beta="0.2"
       start_linecap_type="zerowidth"
       end_linecap_type="zerowidth"
       offset_points="0.2,1.5 | 1.5,1.5 | 2.8,1.5"
       linejoin_type="round"
       miter_limit="4"
       not_jump="false"
       sort_points="true" /><inkscape:path-effect
       effect="powerstroke"
       message=""
       id="path-effect10"
       is_visible="true"
       lpeversion="1.3"
       scale_width="1"
       interpolator_type="CentripetalCatmullRom"
       interpolator_beta="0.2"
       start_linecap_type="zerowidth"
       end_linecap_type="zerowidth"
       offset_points="0.77014948,2.8907917 | 2.5202858,1.9328482 | 6.1571903,1.3131923"
       linejoin_type="round"
       miter_limit="4"
       not_jump="false"
       sort_points="true" /><inkscape:path-effect
       effect="powerstroke"
       message=""
       id="path-effect8"
       is_visible="true"
       lpeversion="1.3"
       scale_width="1"
       interpolator_type="CentripetalCatmullRom"
       interpolator_beta="0.2"
       start_linecap_type="zerowidth"
       end_linecap_type="zerowidth"
       offset_points="0.31382038,2.5784688 | 3,2 | 5.8,2"
       linejoin_type="round"
       miter_limit="4"
       not_jump="false"
       sort_points="true" /><inkscape:path-effect
       effect="powerstroke"
       message=""
       id="path-effect7"
       is_visible="true"
       lpeversion="1.3"
       scale_width="1"
       interpolator_type="CentripetalCatmullRom"
       interpolator_beta="0.2"
       start_linecap_type="zerowidth"
       end_linecap_type="zerowidth"
       offset_points="0.79153388,1.9795945 | 3.2126261,2.1287118 | 4.4606079,1.6434232"
       linejoin_type="round"
       miter_limit="4"
       not_jump="false"
       sort_points="true" /><inkscape:path-effect
       effect="powerstroke"
       message=""
       id="path-effect6"
       is_visible="true"
       lpeversion="1.3"
       scale_width="1"
       interpolator_type="CentripetalCatmullRom"
       interpolator_beta="0.2"
       start_linecap_type="zerowidth"
       end_linecap_type="zerowidth"
       offset_points="0.76537321,0.89958984 | 1.2423103,1.0339335 | 1.8294931,1.0287326"
       linejoin_type="round"
       miter_limit="4"
       not_jump="false"
       sort_points="true" /><inkscape:path-effect
       effect="powerstroke"
       message=""
       id="path-effect5"
       is_visible="true"
       lpeversion="1.3"
       scale_width="1"
       interpolator_type="CentripetalCatmullRom"
       interpolator_beta="0.2"
       start_linecap_type="zerowidth"
       end_linecap_type="zerowidth"
       offset_points="1.2046765,2.104122 | 3.4255256,2.5944904 | 5.1369172,2.4600166"
       linejoin_type="round"
       miter_limit="4"
       not_jump="false"
       sort_points="true" /><inkscape:path-effect
       effect="powerstroke"
       message=""
       id="path-effect4"
       is_visible="true"
       lpeversion="1.3"
       scale_width="1"
       interpolator_type="CentripetalCatmullRom"
       interpolator_beta="0.2"
       start_linecap_type="zerowidth"
       end_linecap_type="zerowidth"
       offset_points="0.40832093,1.1328605 | 3,2 | 5.6342541,1.0182061"
       linejoin_type="round"
       miter_limit="4"
       not_jump="false"
       sort_points="true" /><inkscape:path-effect
       effect="fill_between_many"
       method="bsplinespiro"
       autoreverse="false"
       close="false"
       join="false"
       linkedpaths="#path7,0,1"
       id="path-effect9" /><inkscape:path-effect
       effect="fill_between_many"
       method="bsplinespiro"
       autoreverse="false"
       close="false"
       join="false"
       linkedpaths="#path9,0,1"
       id="path-effect11" /><inkscape:path-effect
       effect="fill_between_many"
       method="bsplinespiro"
       autoreverse="false"
       close="false"
       join="false"
       linkedpaths="#path11,0,1"
       id="path-effect13" /><inkscape:path-effect
       effect="fill_between_many"
       method="bsplinespiro"
       autoreverse="false"
       close="false"
       join="false"
       linkedpaths="#path13,0,1"
       id="path-effect15" /><inkscape:path-effect
       effect="fill_between_many"
       method="bsplinespiro"
       autoreverse="false"
       close="false"
       join="false"
       linkedpaths="#path15,0,1"
       id="path-effect17" /><inkscape:path-effect
       effect="fill_between_many"
       method="bsplinespiro"
       autoreverse="false"
       close="false"
       join="false"
       linkedpaths="#path17,0,1"
       id="path-effect19" /></defs><sodipodi:namedview
     id="namedview1"
     pagecolor="#ffffff"
     bordercolor="#482680"
     borderopacity="0.25"
     inkscape:showpageshadow="2"
     inkscape:pageopacity="0.0"
     inkscape:pagecheckerboard="0"
     inkscape:deskcolor="#d1d1d1"
     inkscape:zoom="5.6568542"
     inkscape:cx="71.064232"
     inkscape:cy="91.481941"
     inkscape:window-width="1920"
     inkscape:window-height="1009"
     inkscape:window-x="1679"
     inkscape:window-y="1072"
     inkscape:window-maximized="1"
     inkscape:current-layer="svg1" /><g
     id="g12"
     transform="translate(0,0.1875)"
     inkscape:label="Rook"><path
       style="fill:#b7a4ff;fill-opacity:1"
       d="M 44.023791,53.652468 C 42.244945,50.214412 42.754089,40.947963 42.528836,39.16124 c -0.305733,-2.425107 -1.36408,-5.595839 0.135784,-6.106155 3.448418,-1.173295 7.833795,-3.112043 6.48682,-0.607568 -0.665561,1.2375 -2.688677,8.855649 -2.891343,13.813262 l -0.443796,10.856155 z m 52.42655,-13.269152 c 0.395608,-3.402782 1.94365,-10.406757 2.629549,-10.272707 3.85028,0.752487 6.33983,0.889929 5.44267,1.772707 -1.7201,1.69253 -8.246894,10.002448 -8.072219,8.5 z M 67.197592,35.09489 c 0.224369,-1.703992 0.749939,-6.440416 2.739865,-6.62914 11.440924,-1.085054 7.979362,-1.389421 2.189514,4.136124 -3.094905,2.953625 -5.459709,6.520665 -4.929379,2.493016 z"
       id="path19"
       sodipodi:nodetypes="ssssscsssssssss"
       inkscape:label="HIghlights" /><path
       style="fill:#a38cff;fill-opacity:1"
       d="m 43.127712,114.22044 c 9.751859,-4.97503 59.487448,-5.45048 68.559178,0.26516 8.67006,5.46257 3.65112,4.92196 0.91235,4.06823 -9.72674,-3.03202 -59.793596,-3.43243 -70.137066,-0.54122 -6.179116,1.72719 -6.335107,3.47179 -5.150305,0.96871 1.323117,-2.79529 3.129588,-3.69837 5.815843,-4.76088 z"
       id="path18"
       inkscape:label="HighlightLower"
       sodipodi:nodetypes="ssssss" /><path
       style="fill:#775bdc;fill-opacity:1"
       d="m 35.200341,127.209 c 0.0084,-2.8875 1.330757,-6.61631 1.734835,-7.25068 3.802352,-5.4277 69.088184,-5.28913 78.596414,-0.74884 2.35159,1.12291 3.68239,5.29729 2.07834,10.13328 l 0.42491,5.11624 -41.549908,-0.625 -41.299903,0.375 z m 13.08773,-22.19966 c 0.374572,-3.73885 1.507052,-12.782873 2.678186,-22.129843 l 1.731335,-13.818019 c 0,0 -0.129534,-5.311501 2.17424,-5.475165 9.226899,-0.655494 13.42864,-1.260564 26.539412,5.918642 6.901426,3.779088 11.49287,17.532747 13.42573,33.579045 l 0.867441,5.97227 -14.752111,0.21611 c -8.114631,0.11888 -18.834071,-0.28275 -23.607074,0.18791 l -9.473681,-0.29337 z M 47.560337,59.800219 c -2.493458,-2.493458 -2.385579,-4.737588 -1.82289,-12.710966 0.700304,-9.923389 1.657603,-16.40748 6.294591,-16.482884 3.262644,-0.05306 2.322108,1.144696 4.664591,10.785691 0.706301,2.906934 -0.04024,2.619396 5.117287,2.84375 4.084968,0.177697 4.519573,0.46214 5.102669,-4.831536 -0.0017,-1.187941 0.864707,-3.367369 1.225626,-3.760207 0.237765,-0.258792 1.623739,-1.800652 3.912488,-3.522557 6.863347,-5.163532 5.291604,-4.416879 9.903619,-4.020667 2.857189,0.245458 2.5674,3.4278 3.018046,6.106155 0.448042,3.347909 0.666222,5.944777 1.33795,7.422499 l 1.238555,2.424175 4.29906,-0.265165 c 4.876738,-0.300796 3.464771,0.388064 4.538242,-2.691296 1.164543,-3.34061 7.509129,-10.015811 9.156279,-10.015811 1.2986,0 -0.7399,10.089145 -3.18406,18.002358 -1.57841,5.110308 -3.197419,6.738874 -5.5164,9.219516 -2.711926,2.90098 -3.878993,2.998464 -11.588239,2.301627 -4.577497,-0.413759 -12.735222,-0.508415 -18.510222,0.01882 -14.963755,1.366133 -16.254264,2.109426 -19.187192,-0.823502 z"
       id="path15"
       sodipodi:nodetypes="ccssccccsscssscsccsssssscssscscssssssss"
       inkscape:label="DarkGrayrFill" /><path
       style="fill:#694fcc;fill-opacity:1"
       d="m 97.911895,109.65419 c -3.595193,-0.13313 -2.921421,-1.33618 -3.508917,-5.87739 -2.138664,-16.531409 -6.299519,-27.069219 -12.09185,-32.505962 -1.66812,-1.565716 -6.019321,-4.590643 -8.901771,-5.605733 l -10.897672,-2.375949 6.155241,-0.304737 c 3.578018,-0.177142 30.880366,0.366335 31.333324,0.925232 0.0901,0.111143 1.22723,10.431458 2.41897,20.881458 1.19174,10.45 2.42156,19.048281 2.73293,21.542891 0.22473,1.80045 -0.88212,3.17436 -1.35583,3.0819 -1.3909,-0.64605 -4.369911,0.29437 -5.884425,0.23829 z M 96.930423,57.18822 c 3.127637,-2.765869 3.405877,-2.655176 5.471087,-9.181681 1.29053,-4.078358 1.76614,-6.995012 2.12916,-9.698902 l 0.6544,-6.81389 2.91635,0.77862 c 2.67111,0.713145 2.93365,2.76069 2.52259,6.576377 -0.25094,2.329392 -0.48337,7.274319 -0.82206,10.530394 -0.84172,8.091961 -5.21938,12.680793 -12.084593,11.948582 L 92.62858,60.992473 Z"
       id="path14"
       sodipodi:nodetypes="sssscsssscsssccsssscs"
       inkscape:label="Shadows" /><path
       style="fill:#5c369d;fill-opacity:1"
       d="m 32.435029,132.22049 c 0,-10.6047 3.26832,-17.51578 9.550652,-20.19549 l 3.050652,-1.30125 2.271408,-19.319876 c 1.249274,-10.62593 2.50565,-21.119872 2.791946,-23.319872 0.478715,-3.678616 0.263223,-4.150368 -2.682036,-5.871501 -4.585883,-2.67987 -6.661732,-8.29696 -7.483895,-20.250855 L 39.237562,31.83929 44.014434,30.211646 c 2.62728,-0.895205 6.447926,-1.627644 8.490325,-1.627644 3.223449,0 3.801046,0.362873 4.377266,2.75 2.366919,9.805525 2.585079,10.25 5.030996,10.25 2.242669,0 2.446862,-0.466402 3.098229,-7.076752 0.812951,-8.250174 1.674639,-8.923248 11.423779,-8.923248 9.749139,0 10.610827,0.673074 11.423778,8.923248 0.651367,6.61035 0.85556,7.076752 3.098229,7.076752 2.445917,0 2.664078,-0.444475 5.030996,-10.25 0.57622,-2.387127 1.153817,-2.75 4.377268,-2.75 2.0424,0 5.86304,0.732439 8.49032,1.627644 l 4.77688,1.627644 -0.6962,10.122356 c -0.82216,11.953895 -2.89801,17.570985 -7.48389,20.250855 -2.94526,1.721133 -3.16075,2.192885 -2.68204,5.871501 0.2863,2.2 1.54267,12.693942 2.79195,23.319872 l 2.2714,19.319876 3.05066,1.30125 c 6.28233,2.67971 9.55065,9.59079 9.55065,20.19549 v 3.36351 h -44.000001 -44 z M 117.42945,129.334 c -0.0201,-15.2984 -6.0264,-17.9238 -40.994421,-17.91889 -34.987157,0.005 -40.974351,2.62195 -40.994424,17.91889 l -0.0056,4.25 h 41 41.000005 z m -13.03281,-22.75 C 104.33304,102.37606 99.722333,65.537973 99.192948,65.008588 96.593099,62.408738 54.66101,62.348187 53.364252,64.942408 53.325322,65.020288 52.085852,74.984 50.609869,87.084 l -2.683606,22 H 76.180328 104.43439 Z M 70.231625,59.946143 c 4.786872,-0.335189 13.529025,-0.0861 19.427006,0.553542 9.400151,1.019449 11.106829,0.964805 13.828779,-0.44277 4.10411,-2.12232 5.6153,-6.09739 6.46707,-17.011176 0.70146,-8.987979 0.69135,-9.044659 -1.81796,-10.187977 -1.38784,-0.632342 -4.06789,-1.439473 -5.95568,-1.793623 l -3.432331,-0.64391 -1.452009,6.831886 -1.452009,6.831887 -4.614055,0.301088 c -5.163144,0.336918 -4.954038,0.682632 -6.322933,-10.453725 -0.631259,-5.135476 -0.646422,-5.153881 -4.552921,-5.526426 -2.155755,-0.205584 -5.698771,-0.204113 -7.873371,0.0033 -3.882653,0.370271 -3.96444,0.460741 -4.543987,5.026426 -1.535536,12.096999 -1.078285,11.289657 -6.202773,10.951907 l -4.590238,-0.302538 -1.604592,-6.5 -1.604592,-6.5 -3.409246,0.335296 c -1.875085,0.184412 -4.529516,0.761221 -5.898734,1.281797 -2.476029,0.941385 -2.48612,0.997794 -1.866372,10.43258 0.67932,10.341688 1.501914,12.765723 5.518554,16.262178 2.295806,1.998482 3.373747,2.233766 7.952394,1.735788 2.913128,-0.316835 9.213128,-0.850309 14,-1.185498 z"
       id="path12"
       inkscape:label="BlackOutline" /></g></svg>
