<?xml version="1.0" encoding="UTF-8" standalone="no"?>
<!-- Created with Inkscape (http://www.inkscape.org/) -->

<svg
   version="1.1"
   id="svg1"
   width="150"
   height="150"
   viewBox="0 0 150 150"
   sodipodi:docname="bp.svg"
   inkscape:version="1.4 (86a8ad7, 2024-10-11)"
   xml:space="preserve"
   xmlns:inkscape="http://www.inkscape.org/namespaces/inkscape"
   xmlns:sodipodi="http://sodipodi.sourceforge.net/DTD/sodipodi-0.dtd"
   xmlns="http://www.w3.org/2000/svg"
   xmlns:svg="http://www.w3.org/2000/svg"><defs
     id="defs1"><inkscape:path-effect
       effect="powerstroke"
       message=""
       id="path-effect18"
       is_visible="true"
       lpeversion="1.3"
       scale_width="1"
       interpolator_type="CentripetalCatmullRom"
       interpolator_beta="0.2"
       start_linecap_type="zerowidth"
       end_linecap_type="zerowidth"
       offset_points="0.81686126,1.4911442 | 3.038785,1.7779197 | 5.3518005,1.4907452"
       linejoin_type="round"
       miter_limit="4"
       not_jump="false"
       sort_points="true" /><inkscape:path-effect
       effect="powerstroke"
       message=""
       id="path-effect16"
       is_visible="true"
       lpeversion="1.3"
       scale_width="1"
       interpolator_type="CentripetalCatmullRom"
       interpolator_beta="0.2"
       start_linecap_type="zerowidth"
       end_linecap_type="zerowidth"
       offset_points="0.14381321,0.59001441 | 0.53216529,-2.7438412 | 0.91299828,0.77244544"
       linejoin_type="round"
       miter_limit="4"
       not_jump="false"
       sort_points="true" /><inkscape:path-effect
       effect="powerstroke"
       message=""
       id="path-effect14"
       is_visible="true"
       lpeversion="1.3"
       scale_width="1"
       interpolator_type="CentripetalCatmullRom"
       interpolator_beta="0.2"
       start_linecap_type="butt"
       end_linecap_type="zerowidth"
       offset_points="1.1169304,4.8960628 | 1.7197421,4.7997435 | 3.4875492,1.3054201"
       linejoin_type="round"
       miter_limit="4"
       not_jump="false"
       sort_points="true" /><inkscape:path-effect
       effect="powerstroke"
       message=""
       id="path-effect12"
       is_visible="true"
       lpeversion="1.3"
       scale_width="1"
       interpolator_type="CentripetalCatmullRom"
       interpolator_beta="0.2"
       start_linecap_type="zerowidth"
       end_linecap_type="zerowidth"
       offset_points="0.2,1.5 | 1.5,1.5 | 2.8,1.5"
       linejoin_type="round"
       miter_limit="4"
       not_jump="false"
       sort_points="true" /><inkscape:path-effect
       effect="powerstroke"
       message=""
       id="path-effect10"
       is_visible="true"
       lpeversion="1.3"
       scale_width="1"
       interpolator_type="CentripetalCatmullRom"
       interpolator_beta="0.2"
       start_linecap_type="zerowidth"
       end_linecap_type="zerowidth"
       offset_points="0.77014948,2.8907917 | 2.5202858,1.9328482 | 6.1571903,1.3131923"
       linejoin_type="round"
       miter_limit="4"
       not_jump="false"
       sort_points="true" /><inkscape:path-effect
       effect="powerstroke"
       message=""
       id="path-effect8"
       is_visible="true"
       lpeversion="1.3"
       scale_width="1"
       interpolator_type="CentripetalCatmullRom"
       interpolator_beta="0.2"
       start_linecap_type="zerowidth"
       end_linecap_type="zerowidth"
       offset_points="0.31382038,2.5784688 | 3,2 | 5.8,2"
       linejoin_type="round"
       miter_limit="4"
       not_jump="false"
       sort_points="true" /><inkscape:path-effect
       effect="powerstroke"
       message=""
       id="path-effect7"
       is_visible="true"
       lpeversion="1.3"
       scale_width="1"
       interpolator_type="CentripetalCatmullRom"
       interpolator_beta="0.2"
       start_linecap_type="zerowidth"
       end_linecap_type="zerowidth"
       offset_points="0.79153388,1.9795945 | 3.2126261,2.1287118 | 4.4606079,1.6434232"
       linejoin_type="round"
       miter_limit="4"
       not_jump="false"
       sort_points="true" /><inkscape:path-effect
       effect="powerstroke"
       message=""
       id="path-effect6"
       is_visible="true"
       lpeversion="1.3"
       scale_width="1"
       interpolator_type="CentripetalCatmullRom"
       interpolator_beta="0.2"
       start_linecap_type="zerowidth"
       end_linecap_type="zerowidth"
       offset_points="0.76537321,0.89958984 | 1.2423103,1.0339335 | 1.8294931,1.0287326"
       linejoin_type="round"
       miter_limit="4"
       not_jump="false"
       sort_points="true" /><inkscape:path-effect
       effect="powerstroke"
       message=""
       id="path-effect5"
       is_visible="true"
       lpeversion="1.3"
       scale_width="1"
       interpolator_type="CentripetalCatmullRom"
       interpolator_beta="0.2"
       start_linecap_type="zerowidth"
       end_linecap_type="zerowidth"
       offset_points="1.2046765,2.104122 | 3.4255256,2.5944904 | 5.1369172,2.4600166"
       linejoin_type="round"
       miter_limit="4"
       not_jump="false"
       sort_points="true" /><inkscape:path-effect
       effect="powerstroke"
       message=""
       id="path-effect4"
       is_visible="true"
       lpeversion="1.3"
       scale_width="1"
       interpolator_type="CentripetalCatmullRom"
       interpolator_beta="0.2"
       start_linecap_type="zerowidth"
       end_linecap_type="zerowidth"
       offset_points="0.40832093,1.1328605 | 3,2 | 5.6342541,1.0182061"
       linejoin_type="round"
       miter_limit="4"
       not_jump="false"
       sort_points="true" /><inkscape:path-effect
       effect="fill_between_many"
       method="bsplinespiro"
       autoreverse="false"
       close="false"
       join="false"
       linkedpaths="#path7,0,1"
       id="path-effect9" /><inkscape:path-effect
       effect="fill_between_many"
       method="bsplinespiro"
       autoreverse="false"
       close="false"
       join="false"
       linkedpaths="#path9,0,1"
       id="path-effect11" /><inkscape:path-effect
       effect="fill_between_many"
       method="bsplinespiro"
       autoreverse="false"
       close="false"
       join="false"
       linkedpaths="#path11,0,1"
       id="path-effect13" /><inkscape:path-effect
       effect="fill_between_many"
       method="bsplinespiro"
       autoreverse="false"
       close="false"
       join="false"
       linkedpaths="#path13,0,1"
       id="path-effect15" /><inkscape:path-effect
       effect="fill_between_many"
       method="bsplinespiro"
       autoreverse="false"
       close="false"
       join="false"
       linkedpaths="#path15,0,1"
       id="path-effect17" /><inkscape:path-effect
       effect="fill_between_many"
       method="bsplinespiro"
       autoreverse="false"
       close="false"
       join="false"
       linkedpaths="#path17,0,1"
       id="path-effect19" /><filter
       style="color-interpolation-filters:sRGB;"
       inkscape:label="Invert"
       id="filter4"
       x="0"
       y="0"
       width="1"
       height="1"><feColorMatrix
         values="1 0 0 0 0 0 1 0 0 0 0 0 1 0 0 -0.21 -0.72 -0.07 2 0 "
         result="fbSourceGraphic"
         id="feColorMatrix4" /><feColorMatrix
         result="fbSourceGraphicAlpha"
         in="fbSourceGraphic"
         values="0 0 0 -1 0 0 0 0 -1 0 0 0 0 -1 0 0 0 0 1 0"
         id="feColorMatrix5" /><feColorMatrix
         id="feColorMatrix6"
         values="1 0 0 0 0 0 1 0 0 0 0 0 1 0 0 -0.21 -0.72 -0.07 2 0 "
         result="color2"
         in="fbSourceGraphic" /></filter><filter
       style="color-interpolation-filters:sRGB;"
       inkscape:label="Invert"
       id="filter19"
       x="0"
       y="0"
       width="1"
       height="1"><feColorMatrix
         type="hueRotate"
         values="180"
         result="color1"
         id="feColorMatrix18" /><feColorMatrix
         values="-1 0 0 0 1 0 0 -1 0 1 0 -1 0 0 1 -0.21 -0.72 -0.07 2 0 "
         result="fbSourceGraphic"
         id="feColorMatrix19" /><feColorMatrix
         result="fbSourceGraphicAlpha"
         in="fbSourceGraphic"
         values="0 0 0 -1 0 0 0 0 -1 0 0 0 0 -1 0 0 0 0 1 0"
         id="feColorMatrix20" /><feColorMatrix
         id="feColorMatrix21"
         type="hueRotate"
         values="180"
         result="color1"
         in="fbSourceGraphic" /><feColorMatrix
         id="feColorMatrix22"
         values="-1 0 0 0 1 0 0 -1 0 1 0 -1 0 0 1 -0.21 -0.72 -0.07 2 0 "
         result="color2" /></filter></defs><sodipodi:namedview
     id="namedview1"
     pagecolor="#ffffff"
     bordercolor="#000000"
     borderopacity="0.25"
     inkscape:showpageshadow="2"
     inkscape:pageopacity="0.0"
     inkscape:pagecheckerboard="0"
     inkscape:deskcolor="#d1d1d1"
     inkscape:zoom="2.7633334"
     inkscape:cx="45.235223"
     inkscape:cy="89.927623"
     inkscape:window-width="1920"
     inkscape:window-height="1057"
     inkscape:window-x="-8"
     inkscape:window-y="-8"
     inkscape:window-maximized="1"
     inkscape:current-layer="layer1" /><g
     inkscape:groupmode="layer"
     id="layer1"
     inkscape:label="Pawn"><path
       style="display:inline;fill:#565352;fill-opacity:1"
       d="m 36.918434,130.80049 c 0.528952,-10.97536 2.704358,-15.18573 15.58405,-25.67753 4.75073,-3.86995 9.779099,-12.333886 9.779099,-16.46054 0,-2.050968 -0.412025,-2.815434 -4.275513,-2.815434 -3.679741,0 -3.108531,-0.387235 -4.09261,-2.227192 -2.645272,-4.94593 -2.473064,-6.512222 2.381689,-9.579298 2.474017,-1.563003 3.986434,-4.029075 3.986434,-4.229147 0,-0.200072 -0.01605,-1.761027 -1.362563,-3.745228 -10.998328,-16.206941 5.627945,-37.178512 23.873271,-29.568618 11.73905,4.89621 15.699063,18.673993 8.782874,28.865566 -1.309611,1.92982 -2.345301,4.349987 -2.345301,4.550059 0,0.200072 2.470388,2.116559 4.986201,3.679562 4.35148,2.703452 4.486651,2.450576 4.025924,6.055293 -0.662035,5.179752 -1.634599,5.687225 -6.210795,5.687225 -3.381262,0 -5.284945,0.742654 -5.284945,2.751462 0,1.26701 1.726501,5.444551 3.132975,8.266975 2.439824,4.896085 5.296151,7.619045 14.845366,15.306115 5.17402,4.16505 9.06859,11.11551 8.7665,18.699 l -0.18087,4.54042 -38.28106,-0.25019 -38.281062,-0.31416 z"
       id="path2"
       inkscape:label="Fill"
       sodipodi:nodetypes="sssssssssssssssssscccs" /><path
       style="display:inline;fill:#777474;fill-opacity:1"
       d="m 39.34497,130.29027 c -0.03486,-0.86268 0.612183,-3.84339 1.437878,-6.62381 1.499645,-5.04985 4.602099,-8.55739 13.69985,-15.48863 1.935408,-1.47452 4.931915,-4.81417 6.658904,-7.42145 3.633429,-5.485475 4.040013,-3.878191 1.044345,4.12845 -1.83169,4.89563 -3.017558,6.28288 -9.415367,11.01429 -7.232399,5.34861 -10.581878,9.01789 -12.419052,13.6048 -0.565359,1.41155 -0.968563,1.72654 -1.006558,0.78635 z M 55.886829,77.188576 c 0.227774,-0.368604 2.670012,-2.058243 5.427194,-3.754754 l 5.013059,-3.084566 -2.013611,3.947003 c -1.795534,3.519537 -2.383308,3.926183 -5.427195,3.754755 -1.877471,-0.105738 -3.227222,-0.493835 -2.999447,-0.862438 z m 2.473702,-22.129472 c -0.127546,-7.754198 4.638421,-14.249787 12.238054,-16.679379 4.675877,-1.494871 5.90917,-0.771498 1.674901,0.982393 -4.383075,1.815529 -9.593998,8.34611 -11.874739,14.881998 l -1.959269,5.614648 z"
       id="path22"
       inkscape:label="Highlights"
       sodipodi:nodetypes="sssssssssscssssssscs" /><path
       style="display:inline;fill:#454242;fill-opacity:1"
       d="m 37.520936,126.15426 c 0.217904,-5.29756 4.016944,-10.12438 8.056871,-13.86123 10.296325,-9.52388 18.073831,-17.84679 18.101397,-24.196044 0.0085,-1.957549 -1.914196,-2.505889 -5.371941,-2.505889 -3.389631,0 -3.559049,0.07773 -4.860277,-2.438562 -2.587654,-5.003972 -2.24793,-6.267767 2.188595,-8.761234 5.221397,-2.934589 5.626389,-4.520775 3.226484,-7.891132 -5.80484,-8.152145 -4.70059,-21.10976 3.742031,-26.988547 10.412844,-7.250698 23.002561,-4.762632 29.698857,5.644623 3.530958,5.487747 3.273567,14.097317 -0.07718,19.958635 -1.368375,2.39364 -2.943758,4.557501 -2.943758,4.749938 0,0.192437 2.83265,2.174935 5.30765,3.87778 4.898294,3.370115 4.74248,4.868197 2.261533,9.665826 -1.346078,2.603028 -1.511815,2.226576 -5.47623,2.226576 -4.386886,0 -5.021365,0.698464 -4.41046,3.383294 1.354306,5.951958 5.360334,12.324846 10.662777,16.883476 13.415004,11.53319 14.663944,14.59251 14.663944,22.74008 v 5.9075 l -37.144014,-0.10976 -37.982867,0.38384 z m 73.191574,2.4545 c -0.83906,-4.76954 -3.68623,-11.41448 -5.51841,-12.87928 -0.77688,-0.6211 -3.91623,-1.84681 -6.976317,-2.7238 -6.831456,-1.95782 -11.934859,-5.58249 -22.9362,-16.290311 -7.963085,-7.750629 -8.554798,-8.133728 -9.367517,-6.064912 -3.719672,9.468603 -8.264138,15.522333 -15.279497,20.354003 -6.37613,4.39141 -10.068544,9.99993 -10.984871,16.68527 l -0.639963,4.66903 H 75.190972 111.37221 Z M 85.452843,81.703777 c 2.238782,-2.026071 2.361445,-6.139458 0.272036,-9.122507 -1.292176,-1.84484 -2.524154,-2.228711 -7.25,-2.259025 l -5.693296,-0.03652 5.261709,-2.545553 C 87.629425,63.102512 91.289052,54.903767 87.823501,45.82935 86.69089,42.863652 85.108318,40.803404 83.207977,39.8207 71.35253,33.69001 58.341642,41.559008 58.298034,54.886257 c -0.01673,5.114061 1.100691,7.590072 5.668356,12.560047 l 2.378085,2.587541 -5.531446,3.672674 c -5.400658,3.585835 -6.164806,4.83816 -4.924457,8.070457 0.920666,2.399218 26.903366,2.334886 29.564271,-0.0732 z"
       id="path3"
       inkscape:label="Shadows"
       sodipodi:nodetypes="ssssssssssssssssscccsssssssscccsssscssssscsss" /><path
       style="display:inline;fill:#000000"
       d="m 36.281583,131.0369 c 1.117194,-9.6397 3.05048,-14.56755 16.25534,-25.91562 5.228621,-4.49341 8.643891,-9.886108 10.106102,-15.95751 0.629117,-2.612222 0.503,-2.704363 -4.106195,-3 -4.638864,-0.297541 -4.791959,-0.412318 -6.255247,-4.689628 l -1.5,-4.384623 2.888792,-2.115377 c 7.412612,-5.42804 7.061447,-4.621893 4.196676,-9.634041 -4.949945,-8.660329 -2.825488,-20.645533 4.67341,-26.365222 10.434637,-7.958885 25.157783,-4.649755 30.754917,6.912382 2.982499,6.161021 2.48279,14.611621 -1.192433,20.165258 l -2.564101,3.874618 4.871369,3.223499 c 5.274096,3.489993 5.621187,4.477812 3.422397,9.740247 -1.352471,3.236919 -1.752073,3.467881 -6,3.467881 -2.503065,0 -4.551027,0.433119 -4.551027,0.962488 0,0.529368 0.922917,3.429204 2.050927,6.44408 1.578504,4.218931 3.44762,6.703788 8.114392,10.787508 11.647888,10.19265 13.696678,12.60212 15.296538,17.98943 0.84598,2.84873 1.53814,6.89782 1.53814,8.998 l 0.064,4.39424 -39.127939,-0.25589 -39.478851,0.042 z m 74.990227,-1.42814 c -0.0175,-6.72517 -4.03689,-13.45353 -10.92192,-18.2831 -9.244076,-6.48435 -16.068307,-17.315018 -16.068307,-25.501843 0,-2.289068 0.354449,-2.465053 4.964817,-2.465053 3.885112,0 5.189938,-0.420645 6,-1.934258 1.610746,-3.009708 1.401872,-3.318199 -5.070306,-7.488467 -5.889274,-3.794681 -6.022612,-3.97421 -4.084902,-5.5 6.432891,-5.065381 8.08564,-15.167563 3.704526,-22.643369 -5.055011,-8.625723 -17.136204,-11.010494 -25.080824,-4.950837 -4.052358,3.090884 -7.389387,9.420896 -7.389387,14.016931 0,4.0636 3.150022,10.720797 6.212772,13.129957 l 2.507957,1.972759 -5.882327,3.808728 c -3.235279,2.0948 -5.882326,4.397385 -5.882326,5.116854 0,3.659105 1.216595,4.471702 6.694887,4.471702 h 5.480909 l -0.687354,4.25 c -1.517846,9.385039 -6.470676,16.718816 -16.090231,23.825196 -6.559006,4.84542 -9.389402,9.43933 -10.108501,16.40673 l -0.569515,5.51807 h 36.139902 36.1399 z"
       id="path1"
       inkscape:label="BlackOutline"
       sodipodi:nodetypes="ssssscssssscsssssssscccsssssssssssscssscssscccs" /></g></svg>
