<?xml version="1.0" encoding="UTF-8" standalone="no"?>
<!-- Created with Inkscape (http://www.inkscape.org/) -->

<svg
   version="1.1"
   id="svg1"
   width="150"
   height="150"
   viewBox="0 0 150 150"
   sodipodi:docname="wn.svg"
   inkscape:version="1.4 (86a8ad7, 2024-10-11)"
   xml:space="preserve"
   xmlns:inkscape="http://www.inkscape.org/namespaces/inkscape"
   xmlns:sodipodi="http://sodipodi.sourceforge.net/DTD/sodipodi-0.dtd"
   xmlns="http://www.w3.org/2000/svg"
   xmlns:svg="http://www.w3.org/2000/svg"><defs
     id="defs1"><inkscape:path-effect
       effect="powerstroke"
       message=""
       id="path-effect18"
       is_visible="true"
       lpeversion="1.3"
       scale_width="1"
       interpolator_type="CentripetalCatmullRom"
       interpolator_beta="0.2"
       start_linecap_type="zerowidth"
       end_linecap_type="zerowidth"
       offset_points="0.81686126,1.4911442 | 3.038785,1.7779197 | 5.3518005,1.4907452"
       linejoin_type="round"
       miter_limit="4"
       not_jump="false"
       sort_points="true" /><inkscape:path-effect
       effect="powerstroke"
       message=""
       id="path-effect16"
       is_visible="true"
       lpeversion="1.3"
       scale_width="1"
       interpolator_type="CentripetalCatmullRom"
       interpolator_beta="0.2"
       start_linecap_type="zerowidth"
       end_linecap_type="zerowidth"
       offset_points="0.14381321,0.59001441 | 0.53216529,-2.7438412 | 0.91299828,0.77244544"
       linejoin_type="round"
       miter_limit="4"
       not_jump="false"
       sort_points="true" /><inkscape:path-effect
       effect="powerstroke"
       message=""
       id="path-effect14"
       is_visible="true"
       lpeversion="1.3"
       scale_width="1"
       interpolator_type="CentripetalCatmullRom"
       interpolator_beta="0.2"
       start_linecap_type="butt"
       end_linecap_type="zerowidth"
       offset_points="1.1169304,4.8960628 | 1.7197421,4.7997435 | 3.4875492,1.3054201"
       linejoin_type="round"
       miter_limit="4"
       not_jump="false"
       sort_points="true" /><inkscape:path-effect
       effect="powerstroke"
       message=""
       id="path-effect12"
       is_visible="true"
       lpeversion="1.3"
       scale_width="1"
       interpolator_type="CentripetalCatmullRom"
       interpolator_beta="0.2"
       start_linecap_type="zerowidth"
       end_linecap_type="zerowidth"
       offset_points="0.2,1.5 | 1.5,1.5 | 2.8,1.5"
       linejoin_type="round"
       miter_limit="4"
       not_jump="false"
       sort_points="true" /><inkscape:path-effect
       effect="powerstroke"
       message=""
       id="path-effect10"
       is_visible="true"
       lpeversion="1.3"
       scale_width="1"
       interpolator_type="CentripetalCatmullRom"
       interpolator_beta="0.2"
       start_linecap_type="zerowidth"
       end_linecap_type="zerowidth"
       offset_points="0.77014948,2.8907917 | 2.5202858,1.9328482 | 6.1571903,1.3131923"
       linejoin_type="round"
       miter_limit="4"
       not_jump="false"
       sort_points="true" /><inkscape:path-effect
       effect="powerstroke"
       message=""
       id="path-effect8"
       is_visible="true"
       lpeversion="1.3"
       scale_width="1"
       interpolator_type="CentripetalCatmullRom"
       interpolator_beta="0.2"
       start_linecap_type="zerowidth"
       end_linecap_type="zerowidth"
       offset_points="0.31382038,2.5784688 | 3,2 | 5.8,2"
       linejoin_type="round"
       miter_limit="4"
       not_jump="false"
       sort_points="true" /><inkscape:path-effect
       effect="powerstroke"
       message=""
       id="path-effect7"
       is_visible="true"
       lpeversion="1.3"
       scale_width="1"
       interpolator_type="CentripetalCatmullRom"
       interpolator_beta="0.2"
       start_linecap_type="zerowidth"
       end_linecap_type="zerowidth"
       offset_points="0.79153388,1.9795945 | 3.2126261,2.1287118 | 4.4606079,1.6434232"
       linejoin_type="round"
       miter_limit="4"
       not_jump="false"
       sort_points="true" /><inkscape:path-effect
       effect="powerstroke"
       message=""
       id="path-effect6"
       is_visible="true"
       lpeversion="1.3"
       scale_width="1"
       interpolator_type="CentripetalCatmullRom"
       interpolator_beta="0.2"
       start_linecap_type="zerowidth"
       end_linecap_type="zerowidth"
       offset_points="0.76537321,0.89958984 | 1.2423103,1.0339335 | 1.8294931,1.0287326"
       linejoin_type="round"
       miter_limit="4"
       not_jump="false"
       sort_points="true" /><inkscape:path-effect
       effect="powerstroke"
       message=""
       id="path-effect5"
       is_visible="true"
       lpeversion="1.3"
       scale_width="1"
       interpolator_type="CentripetalCatmullRom"
       interpolator_beta="0.2"
       start_linecap_type="zerowidth"
       end_linecap_type="zerowidth"
       offset_points="1.2046765,2.104122 | 3.4255256,2.5944904 | 5.1369172,2.4600166"
       linejoin_type="round"
       miter_limit="4"
       not_jump="false"
       sort_points="true" /><inkscape:path-effect
       effect="powerstroke"
       message=""
       id="path-effect4"
       is_visible="true"
       lpeversion="1.3"
       scale_width="1"
       interpolator_type="CentripetalCatmullRom"
       interpolator_beta="0.2"
       start_linecap_type="zerowidth"
       end_linecap_type="zerowidth"
       offset_points="0.40832093,1.1328605 | 3,2 | 5.6342541,1.0182061"
       linejoin_type="round"
       miter_limit="4"
       not_jump="false"
       sort_points="true" /><inkscape:path-effect
       effect="fill_between_many"
       method="bsplinespiro"
       autoreverse="false"
       close="false"
       join="false"
       linkedpaths="#path7,0,1"
       id="path-effect9" /><inkscape:path-effect
       effect="fill_between_many"
       method="bsplinespiro"
       autoreverse="false"
       close="false"
       join="false"
       linkedpaths="#path9,0,1"
       id="path-effect11" /><inkscape:path-effect
       effect="fill_between_many"
       method="bsplinespiro"
       autoreverse="false"
       close="false"
       join="false"
       linkedpaths="#path11,0,1"
       id="path-effect13" /><inkscape:path-effect
       effect="fill_between_many"
       method="bsplinespiro"
       autoreverse="false"
       close="false"
       join="false"
       linkedpaths="#path13,0,1"
       id="path-effect15" /><inkscape:path-effect
       effect="fill_between_many"
       method="bsplinespiro"
       autoreverse="false"
       close="false"
       join="false"
       linkedpaths="#path15,0,1"
       id="path-effect17" /><inkscape:path-effect
       effect="fill_between_many"
       method="bsplinespiro"
       autoreverse="false"
       close="false"
       join="false"
       linkedpaths="#path17,0,1"
       id="path-effect19" /></defs><sodipodi:namedview
     id="namedview1"
     pagecolor="#ffffff"
     bordercolor="#000000"
     borderopacity="0.25"
     inkscape:showpageshadow="2"
     inkscape:pageopacity="0.0"
     inkscape:pagecheckerboard="0"
     inkscape:deskcolor="#d1d1d1"
     inkscape:zoom="5.6568542"
     inkscape:cx="65.937708"
     inkscape:cy="89.183844"
     inkscape:window-width="1904"
     inkscape:window-height="1003"
     inkscape:window-x="1687"
     inkscape:window-y="1080"
     inkscape:window-maximized="0"
     inkscape:current-layer="svg1" /><g
     inkscape:groupmode="layer"
     id="layer1"
     inkscape:label="Knight"><path
       style="fill:#f8f8f8;fill-opacity:1"
       d="m 33.211162,127.15452 c 0.324186,-8.28843 0.561416,-9.15669 3.275566,-11.9885 1.609337,-1.6791 3.769039,-3.32046 4.799337,-3.64746 1.030298,-0.32701 2.948735,-3.02638 4.263194,-5.9986 3.2205,-7.282122 6.673868,-11.609232 14.462361,-18.121505 7.935763,-6.635411 11.04904,-10.78227 11.04904,-14.717229 v -2.965311 l -2.75,2.526207 c -5.154931,4.735427 -9.10956,6.88676 -14.736789,8.016869 -5.023928,1.008949 -5.949899,1.60546 -8.702408,5.606095 l -3.080261,4.477006 -5.252753,-0.542131 C 30.918731,89.219954 25.945255,87.122188 22.31066,83.79881 c -1.644733,-1.503901 -2.25,-3.17914 -2.25,-6.227485 0,-3.522206 0.987682,-5.553846 6.356744,-13.075686 7.246824,-10.152507 8.664034,-12.73988 11.162293,-20.378778 1.210943,-3.702687 3.387947,-7.162839 6.729697,-10.696247 3.443528,-3.641023 5.23159,-6.522091 5.903376,-9.51199 1.132092,-5.038575 3.344182,-7.818527 6.221432,-7.818527 1.145786,0 4.411076,2.318348 7.341775,5.212643 4.590804,4.533777 6.092595,5.377771 11.531446,6.480576 20.593676,4.175664 35.503747,19.93183 39.418927,41.655814 1.78215,9.888553 1.20372,17.544811 -2.3498,31.10223 -1.7434,6.65145 -2.24487,10.07241 -1.51228,10.31661 2.61952,0.87317 6.54623,4.82517 7.81757,7.86791 0.75835,1.81499 1.37882,6.46443 1.37882,10.3321 v 7.03212 H 76.461162 32.861664 Z"
       id="path5"
       inkscape:label="Fill" /><path
       style="display:inline;fill:#d3d3d3;fill-opacity:1"
       d="m 33.062214,128.8401 c 0.0019,-8.63714 1.916905,-13.16095 6.998446,-16.53201 1.996598,-1.32453 4.26013,-4.07906 5.269622,-6.41269 2.839746,-6.564601 8.22459,-13.164583 15.792275,-19.355943 7.428854,-6.077777 9.938103,-9.617695 9.938103,-14.020162 v -2.670122 l -4.25,3.472857 c -5.690783,4.650181 -10.002009,6.768067 -13.777263,6.768067 -3.04219,0 -5.514937,1.890475 -10.212949,7.808046 -1.090811,1.373973 -2.849389,2.191954 -4.712488,2.191954 -4.592243,0 -13.774985,-3.838348 -16.024537,-6.698191 -3.656759,-4.648815 -2.726753,-8.432273 4.686277,-19.064751 3.884744,-5.571872 8.127939,-13.225044 10.079596,-18.179903 2.385374,-6.05598 4.645323,-9.872462 7.731857,-13.057155 2.839994,-2.930311 4.992353,-6.414086 6.170405,-9.987322 1.423539,-4.317843 2.399269,-5.692443 4.57823,-6.449769 2.536354,-0.881543 3.250864,-0.494527 8.5,4.604038 5.022048,4.877992 6.472983,5.706979 11.730872,6.702392 9.209046,1.743438 18.146435,6.594468 25,13.569483 14.00265,14.250788 18.06433,33.627283 12.05451,57.506839 -1.95115,7.752772 -2.5215,11.565342 -1.76771,11.816602 2.63493,0.87832 6.55963,4.82262 7.83438,7.87352 0.75835,1.81499 1.37882,6.46443 1.37882,10.3321 v 7.03212 h -43.5 -43.5 z m 83.634556,-2.18903 c -0.35159,-2.99147 -1.05117,-6.52246 -1.55462,-7.84665 -2.09462,-5.50926 -12.47129,-7.5979 -38.107724,-7.67041 -17.291287,-0.0489 -30.816472,1.30627 -35.089255,3.51581 -3.71319,1.92016 -4.775778,4.1066 -5.537482,11.39418 l -0.631942,6.0461 H 76.555885 117.33602 Z M 67.894885,107.36231 c 16.006833,-0.57334 16.352231,-0.63243 17.232635,-2.94807 0.494126,-1.29965 3.091699,-5.616754 5.772385,-9.593569 C 97.719864,84.703215 99.731961,80.417431 101.03464,73.233598 102.89467,62.976126 100.26449,51.923075 94.116413,44.160491 90.153959,39.157485 81.378068,33.785804 73.56066,31.578412 68.783413,30.229467 66.422866,28.77341 61.977548,24.433598 c -6.253325,-6.104906 -6.878898,-5.993454 -8.90619,1.586732 -0.791761,2.960449 -2.748423,6.026995 -5.897786,9.243205 -2.989909,3.053373 -5.389667,6.734832 -6.563974,10.069767 -2.82212,8.014586 -5.27212,12.50579 -11.680714,21.412435 -3.227523,4.485602 -5.868224,9.048249 -5.868224,10.139216 0,3.295864 3.239364,6.253628 9.020815,8.236632 6.393075,2.192787 6.520243,2.11075 10.512241,-6.781488 2.53124,-5.638376 4.014438,-6.295282 8.466944,-3.75 1.375,0.786021 3.496036,1.445075 4.713414,1.464565 2.856109,0.04572 14.287815,-10.584576 17.767143,-16.5216 1.432063,-2.44363 3.034782,-4.442965 3.561597,-4.442965 2.590028,0 -0.210304,16.488954 -4.092798,24.099272 -1.043576,2.045577 -5.171598,6.440437 -9.173383,9.766357 -7.65197,6.35962 -11.388181,10.549999 -14.124489,15.841434 -2.089893,4.04141 -2.073704,4.67058 0.09852,3.82857 0.9625,-0.3731 9.100401,-0.94163 18.084225,-1.26342 z M 50.549386,48.991369 c 2.106202,-7.029034 7.409996,-9.979516 10.679992,-5.941241 1.007205,1.243845 1.831282,2.629542 1.831282,3.079325 0,1.897431 -3.38064,3.960644 -6.489641,3.960644 -1.840731,0 -4.110518,0.293073 -5.043971,0.651272 -1.407245,0.540011 -1.574265,0.241046 -0.977662,-1.75 z"
       id="path4"
       inkscape:label="Shadows" /><path
       style="display:inline;fill:#000000"
       d="m 33.209124,127.1576 c 0.402462,-8.86238 2.188347,-12.44215 7.516004,-15.06569 2.235803,-1.10099 3.507971,-2.82425 4.798529,-6.5 1.426368,-4.06256 3.988941,-7.205163 13.646571,-16.7354 10.708433,-10.567179 11.890432,-12.083145 11.890432,-15.25 0,-4.316933 -0.794982,-4.39095 -4.562909,-0.42483 -3.793597,3.993141 -9.512891,6.908417 -13.553183,6.908417 -2.555357,0 -4.116927,1.001969 -7.79251,5 -5.071101,5.515974 -6.12802,5.772229 -14.074418,3.412402 -6.872462,-2.040902 -11.01698,-6.064643 -11.01698,-10.695932 0,-3.453415 0.931849,-5.132193 9.602927,-17.300209 2.384441,-3.346057 5.776199,-9.85695 7.537241,-14.46865 2.457309,-6.43504 4.324848,-9.507864 8.030863,-13.21388 2.655933,-2.655933 4.828969,-5.721994 4.828969,-6.813468 0,-4.012572 2.796853,-8.831172 5.523005,-9.515393 2.271353,-0.570073 3.472466,0.125232 8.315898,4.813939 4.860316,4.705051 6.509818,5.65669 11.661097,6.72758 18.560189,3.858441 33.0841,17.959539 37.9553,36.850378 2.54612,9.874003 2.2104,21.028152 -1.0274,34.13454 -2.72616,11.035276 -2.74533,11.311316 -0.85817,12.357126 6.10556,3.38355 8.43027,8.44 8.43027,18.33657 v 5.375 H 76.454775 32.84889 Z m 83.684446,-1.01881 c -0.75744,-13.40484 -3.96829,-14.54883 -40.83291,-14.54834 -28.637776,3.8e-4 -32.840419,0.57198 -37.035193,5.03711 -1.950536,2.07625 -2.479147,3.87334 -2.797716,9.51123 l -0.392784,6.95131 h 40.725693 40.72569 z m -7.96931,-25.04869 c 4.13699,-15.204633 4.54908,-22.422993 1.96958,-34.500003 C 107.04798,48.584105 92.692194,34.536792 74.307423,30.789839 68.873481,29.682361 67.362638,28.832425 62.775977,24.30274 c -2.903014,-2.866954 -5.810724,-5.212643 -6.461578,-5.212643 -1.510057,0 -2.81777,2.541146 -3.630977,7.055708 -0.417854,2.319735 -2.056467,4.926752 -4.714047,7.5 -4.640834,4.493568 -5.963478,6.749217 -9.222893,15.728803 -1.278385,3.521911 -5.095094,10.241566 -8.481576,14.932566 -7.443293,10.310548 -8.450475,12.640892 -6.864043,15.881532 1.393465,2.846465 7.198292,5.895675 12.603981,6.62073 3.635757,0.487658 4.031804,0.274065 6.551338,-3.533208 2.738198,-4.137696 6.547445,-6.186131 11.503663,-6.186131 2.905461,0 8.703048,-3.82736 13.437906,-8.871227 1.6154,-1.720825 3.230669,-3.128773 3.589485,-3.128773 1.142546,0 2.973424,4.98553 2.973424,8.096713 0,4.739928 -2.201929,7.786741 -12.469556,17.254143 -5.94684,5.483363 -10.495371,10.619717 -11.955005,13.499997 l -2.356038,4.64915 H 77.08183 106.8836 Z M 51.064398,49.223853 c 0.0021,-0.348565 0.895442,-2.096256 1.985302,-3.883756 2.084538,-3.418891 5.53618,-4.32478 7.81096,-2.05 1.475125,1.475125 1.56539,4.456143 0.16121,5.323974 -1.417325,0.875955 -9.962128,1.399227 -9.957472,0.609782 z"
       id="path2"
       inkscape:label="BlackOutline" /><path
       style="display:inline;fill:#f8f8f8;fill-opacity:1"
       d="m 49.418523,116.92251 c 9.448251,-1.27154 56.200737,-0.5072 62.142137,1.01594 l 4,1.02543 -2.71486,-2.3587 c -4.48788,-3.89912 -12.17048,-4.94134 -36.28514,-4.92246 -24.493918,0.0192 -31.944618,1.06096 -36.285141,5.07345 -2.131508,1.97043 -2.29331,2.37265 -0.753011,1.8719 1.079017,-0.35078 5.532223,-1.11829 9.896015,-1.70556 z M 32.42525,67.147479 c 5.94668,-7.476433 9.320317,-12.734998 10.65045,-16.601094 2.606703,-7.576515 5.26501,-11.678714 9.750484,-15.046576 5.027005,-3.774466 5.20157,-4.116728 5.219163,-10.233036 0.01282,-4.457861 -0.258625,-5.270568 -1.669639,-4.998832 -1.073667,0.206769 -2.130004,2.069095 -2.911699,5.133336 -0.871644,3.41684 -2.654917,6.318922 -6.160534,10.025595 -3.334283,3.525513 -5.514613,6.991143 -6.725388,10.689989 -2.505526,7.654237 -4.456912,11.233995 -11.431023,20.969869 -5.184419,7.237461 -7.15439,11.003367 -5.755933,11.003367 0.181759,0 4.247112,-4.924178 9.034119,-10.942618 z"
       id="path3"
       inkscape:label="Highlights"
       sodipodi:nodetypes="sscssssssssssssssss" /></g></svg>
