<svg xmlns="http://www.w3.org/2000/svg" width="1200" height="320" viewBox="0 0 1200 320" role="img" aria-label="StackWorks mono logo">
  <defs>
    <filter id="softShadow" x="-25%" y="-25%" width="160%" height="180%">
      <feDropShadow dx="0" dy="8" stdDeviation="8" flood-color="#000000" flood-opacity="0.18"/>
    </filter>
    <g id="disc">
      <path d="M -78,0 L -78,44 A 78,22 0 0 0 78,44 L 78,0"
            fill="#E8D39B" stroke="#1A1C22" stroke-width="8" stroke-linejoin="round"/>
      <ellipse cx="0" cy="0" rx="78" ry="22" fill="#FFF7DA" stroke="#1A1C22" stroke-width="8"/>
      <path d="M -78,44 A 78,22 0 0 0 78,44" fill="none" stroke="#1A1C22" stroke-width="8" stroke-linecap="round"/>
    </g>
  </defs>
  <g transform="translate(36,40)" filter="url(#softShadow)">
    <g transform="translate(102,152)"><use href="#disc"/></g>
    <g transform="translate(86,88)"><use href="#disc"/></g>
    <g transform="translate(110,24)">
      <use href="#disc"/>
      <g transform="translate(0,-2) scale(0.88)">
        <path d="M -22 10 L -22 -3 L -12 2 L 0 -11 L 12 2 L 22 -3 L 22 10 Z" fill="#1A1C22"/>
        <circle cx="-22" cy="10" r="3" fill="#1A1C22"/>
        <circle cx="0" cy="-11" r="3" fill="#1A1C22"/>
        <circle cx="22" cy="10" r="3" fill="#1A1C22"/>
      </g>
    </g>
  </g>
  <g transform="translate(250,78)" filter="url(#softShadow)">
    <rect x="0" y="22" width="900" height="124" rx="34" fill="#F0E1B7" stroke="#1A1C22" stroke-width="6"/>
    <text x="34" y="114" font-family="Verdana, Trebuchet MS, Arial, sans-serif" font-weight="900" letter-spacing="1.0"
          fill="#1A1C22" font-size="96">StackWorks</text>
    <text x="678" y="116" font-family="Verdana, Trebuchet MS, Arial, sans-serif" font-weight="900" letter-spacing="0.2"
          font-size="38" fill="#1A1C22">.games</text>
  </g>
</svg>