<?xml version="1.0" encoding="UTF-8" standalone="no"?>
<!-- Created with Inkscape (http://www.inkscape.org/) -->

<svg
   width="27.728334mm"
   height="37.71806mm"
   viewBox="0 0 27.728335 37.71806"
   version="1.1"
   id="svg1"
   inkscape:version="1.4 (86a8ad7, 2024-10-11)"
   sodipodi:docname="B_SG_P.svg"
   xmlns:inkscape="http://www.inkscape.org/namespaces/inkscape"
   xmlns:sodipodi="http://sodipodi.sourceforge.net/DTD/sodipodi-0.dtd"
   xmlns="http://www.w3.org/2000/svg"
   xmlns:svg="http://www.w3.org/2000/svg">
  <sodipodi:namedview
     id="namedview1"
     pagecolor="#ffffff"
     bordercolor="#000000"
     borderopacity="0.25"
     inkscape:showpageshadow="2"
     inkscape:pageopacity="0.0"
     inkscape:pagecheckerboard="0"
     inkscape:deskcolor="#d1d1d1"
     inkscape:document-units="mm"
     inkscape:zoom="0.73851712"
     inkscape:cx="251.17901"
     inkscape:cy="370.33671"
     inkscape:window-width="1920"
     inkscape:window-height="1009"
     inkscape:window-x="307"
     inkscape:window-y="1072"
     inkscape:window-maximized="1"
     inkscape:current-layer="layer1" />
  <defs
     id="defs1" />
  <g
     inkscape:label="Layer 1"
     inkscape:groupmode="layer"
     id="layer1"
     transform="translate(-38.915721,-50.67096)">
    <path
       d="m 49.88711,51.38263 c -2.398889,1.234722 -3.210278,3.563056 -2.257778,6.279445 0.3175,0.846667 0.529167,1.5875 0.493889,1.622778 -0.07055,0.03528 -0.705555,0.388055 -1.411111,0.846667 -2.363611,1.411111 -3.421945,5.150555 -2.257778,7.902222 0.246945,0.635 0.987778,1.5875 1.622778,2.151945 0.917222,0.776111 1.058333,1.023056 0.670278,1.27 -1.763889,0.987778 -4.303889,3.245556 -5.221112,4.586111 -1.658055,2.469445 -2.2225,4.409723 -2.398889,8.537223 l -0.211666,3.81 h 13.864167 13.864168 l -0.211667,-3.81 c -0.141111,-2.575278 -0.423333,-4.409722 -0.9525,-5.785556 -0.881944,-2.363611 -3.280834,-5.185833 -5.503334,-6.491111 -0.846666,-0.493889 -1.552222,-0.987778 -1.552222,-1.093611 0,-0.105834 0.423333,-0.493889 0.917222,-0.917223 1.093611,-0.846666 2.2225,-3.175 2.257778,-4.621389 0,-1.869722 -0.811389,-3.739445 -2.116667,-4.938889 -0.740833,-0.635 -1.516944,-1.234722 -1.763889,-1.340556 -0.388055,-0.105833 -0.388055,-0.388055 -0.07056,-1.340555 0.246944,-0.635 0.423333,-1.834445 0.423333,-2.681112 0,-3.668889 -4.550833,-5.926667 -8.184445,-3.986389 z"
       id="path7"
       style="stroke-width:0.0352778" />
  </g>
</svg>
