<?xml version="1.0" encoding="UTF-8" standalone="no"?>
<!-- Created with Inkscape (http://www.inkscape.org/) -->

<svg
   width="41.592499mm"
   height="44.312267mm"
   viewBox="0 0 41.592499 44.312268"
   version="1.1"
   id="svg1"
   inkscape:version="1.4 (86a8ad7, 2024-10-11)"
   sodipodi:docname="B_SG_B.svg"
   xmlns:inkscape="http://www.inkscape.org/namespaces/inkscape"
   xmlns:sodipodi="http://sodipodi.sourceforge.net/DTD/sodipodi-0.dtd"
   xmlns="http://www.w3.org/2000/svg"
   xmlns:svg="http://www.w3.org/2000/svg">
  <sodipodi:namedview
     id="namedview1"
     pagecolor="#ffffff"
     bordercolor="#000000"
     borderopacity="0.25"
     inkscape:showpageshadow="2"
     inkscape:pageopacity="0.0"
     inkscape:pagecheckerboard="0"
     inkscape:deskcolor="#d1d1d1"
     inkscape:document-units="mm"
     inkscape:zoom="0.73851712"
     inkscape:cx="271.48998"
     inkscape:cy="387.93955"
     inkscape:window-width="1920"
     inkscape:window-height="1009"
     inkscape:window-x="307"
     inkscape:window-y="1072"
     inkscape:window-maximized="1"
     inkscape:current-layer="layer1" />
  <defs
     id="defs1" />
  <g
     inkscape:label="Layer 1"
     inkscape:groupmode="layer"
     id="layer1"
     transform="translate(-33.403726,-45.847728)">
    <path
       d="m 51.465946,46.518028 c -1.69333,1.05833 -2.11667,3.4925 -0.98778,5.64445 l 0.52917,1.02305 -1.62278,0.77611 c -0.88194,0.42334 -2.75166,1.905 -4.19805,3.31611 -2.18723,2.15195 -2.64584,2.78695 -3.175,4.55084 -0.88195,3.03389 -0.21167,5.67972 2.39888,9.34861 1.05834,1.48167 1.09362,1.55222 0.635,3.175 -1.09361,3.84528 -0.77611,4.83305 1.79917,5.22111 0.74084,0.14111 1.34056,0.35278 1.34056,0.45861 0,0.56445 -3.45723,1.09361 -6.91445,1.09361 -4.30389,0 -5.18583,0.3175 -6.77333,2.50472 l -1.09361,1.48167 1.37583,2.04611 c 0.77611,1.12889 1.76389,2.29306 2.15195,2.57528 0.67027,0.45861 0.84666,0.45861 1.5875,-0.0353 0.49388,-0.3175 2.89277,-0.81139 5.53861,-1.16416 5.67972,-0.77611 7.16139,-1.16417 8.85472,-2.29306 l 1.34056,-0.91722 1.12888,0.74083 c 2.01084,1.23472 4.1275,1.79917 9.13695,2.46945 3.35139,0.42333 5.08,0.81139 5.53861,1.23472 0.49389,0.45861 0.81139,0.49389 1.37583,0.21167 0.67028,-0.38806 3.56306,-4.26862 3.56306,-4.83306 0,-0.52917 -1.905,-2.71639 -2.96333,-3.35139 -0.88195,-0.52917 -1.76389,-0.67028 -4.69195,-0.67028 -3.56305,0 -7.16139,-0.56444 -7.16139,-1.12889 0,-0.14111 0.38806,-0.28222 0.88195,-0.28222 1.23472,0 2.89278,-0.91722 3.13972,-1.69333 0.10583,-0.3175 -0.10583,-1.69334 -0.49389,-3.03389 l -0.67028,-2.39889 1.37584,-2.01083 c 3.42194,-5.04473 3.21027,-9.06639 -0.74084,-13.05278 -1.48166,-1.48167 -4.40972,-3.56306 -5.67972,-4.02167 -0.52917,-0.17639 -0.49389,-0.3175 0.14111,-1.62278 0.91722,-1.83444 0.635,-3.63361 -0.77611,-5.04472 -0.84667,-0.84667 -1.27,-0.98778 -2.89278,-0.98778 -1.23472,0 -2.25778,0.24695 -2.99861,0.67028 z m 3.91583,2.36361 c 0.67028,0.635 0.70556,0.98778 0.21167,1.94028 -0.70555,1.30528 -2.82222,0.635 -2.82222,-0.91722 0,-1.48167 1.55222,-2.08139 2.61055,-1.02306 z m -0.0705,10.795 c -0.10583,1.30528 -0.10583,1.34056 1.12889,1.34056 1.19944,0 1.27,0.0705 1.27,1.19944 0,1.12889 -0.10584,1.23472 -1.12889,1.34056 -1.09361,0.10583 -1.16417,0.21166 -1.16417,1.44639 0,1.23472 -0.0705,1.30527 -1.12889,1.30527 -1.12889,0 -1.16416,-0.0706 -1.16416,-1.41111 0,-1.30527 -0.0706,-1.41111 -1.02306,-1.41111 -0.84667,0 -1.02305,-0.17639 -1.16417,-1.05833 -0.17638,-1.27 -0.10583,-1.41111 1.19945,-1.41111 0.91722,0 0.98778,-0.10584 0.98778,-1.44639 0,-1.37583 0.0353,-1.41111 1.16416,-1.30528 1.09361,0.10583 1.12889,0.17639 1.02306,1.41111 z m 5.11528,10.72445 c 0.10583,0.3175 0,0.70555 -0.28223,0.88194 -0.56444,0.38806 -11.78277,0.28222 -12.13555,-0.10583 -0.14111,-0.14111 -0.17639,-0.49389 -0.0706,-0.81139 0.35278,-0.81139 12.17084,-0.81139 12.48834,0.0353 z m -0.45861,3.52778 c 0.74083,0.28222 0.70555,1.05833 -0.0353,1.37583 -0.35278,0.14111 -2.64584,0.3175 -5.08,0.42333 -5.53861,0.24695 -8.39611,-0.49389 -6.38528,-1.62278 0.635,-0.38805 10.58333,-0.52916 11.50056,-0.17638 z"
       id="path1"
       style="stroke-width:0.0352778" />
  </g>
</svg>
