<?xml version="1.0" encoding="UTF-8" standalone="no"?>
<!-- Created with Inkscape (http://www.inkscape.org/) -->

<svg
   width="38.759777mm"
   height="42.192444mm"
   viewBox="0 0 38.759777 42.192444"
   version="1.1"
   id="svg1"
   inkscape:version="1.4 (86a8ad7, 2024-10-11)"
   sodipodi:docname="B_C_K.svg"
   xmlns:inkscape="http://www.inkscape.org/namespaces/inkscape"
   xmlns:sodipodi="http://sodipodi.sourceforge.net/DTD/sodipodi-0.dtd"
   xmlns="http://www.w3.org/2000/svg"
   xmlns:svg="http://www.w3.org/2000/svg">
  <sodipodi:namedview
     id="namedview1"
     pagecolor="#ffffff"
     bordercolor="#000000"
     borderopacity="0.25"
     inkscape:showpageshadow="2"
     inkscape:pageopacity="0.0"
     inkscape:pagecheckerboard="0"
     inkscape:deskcolor="#d1d1d1"
     inkscape:document-units="mm"
     inkscape:zoom="0.73851712"
     inkscape:cx="86.660145"
     inkscape:cy="218.68146"
     inkscape:window-width="1920"
     inkscape:window-height="1009"
     inkscape:window-x="307"
     inkscape:window-y="1072"
     inkscape:window-maximized="1"
     inkscape:current-layer="layer1" />
  <defs
     id="defs1" />
  <g
     inkscape:label="Layer 1"
     inkscape:groupmode="layer"
     id="layer1"
     transform="translate(-82.017197,-90.741965)">
    <path
       d="m 99.969127,91.899949 c -0.35278,1.12889 -0.52917,1.27 -1.62278,1.27 -1.12889,0 -1.19944,0.0706 -1.19944,1.19945 0,1.05833 0.17638,1.34056 1.41111,2.01083 0.77611,0.45861 1.41111,1.05834 1.41111,1.34056 0,0.28222 -0.74084,1.30528 -1.65806,2.2225 -1.48166,1.481671 -1.65805,1.869721 -1.79916,3.633611 -0.0706,1.05833 -0.21167,1.94028 -0.3175,1.94028 -0.0706,0 -0.59973,-0.3175 -1.12889,-0.74084 -2.29306,-1.69333 -6.45584,-1.94027 -9.2075,-0.49388 -1.41112,0.74083 -3.06917,2.78694 -3.4925,4.30388 -0.81139,2.89278 -0.3175,4.58612 2.68111,9.17223 2.2225,3.35139 2.82222,4.97416 3.13972,8.67833 0.35278,3.88056 1.09361,4.7625 4.86833,5.75028 4.33917,1.16417 14.463893,0.91722 18.238623,-0.38806 2.54,-0.91722 3.03388,-1.62277 3.31611,-4.72722 0.38805,-3.95111 1.19944,-6.20889 3.63361,-9.87778 2.32833,-3.4925 2.71639,-4.72722 2.46944,-7.47889 -0.52916,-5.32694 -6.6675,-8.04333 -11.92389,-5.32694 l -2.04611,1.05833 -0.24694,-1.94028 c -0.21167,-1.69333 -0.42334,-2.11666 -1.79917,-3.42194 -1.905,-1.834441 -1.97556,-2.716391 -0.3175,-3.739441 1.02306,-0.635 1.23472,-0.98778 1.23472,-1.97556 0,-1.12889 -0.0706,-1.19945 -1.19944,-1.19945 -1.02306,0 -1.19945,-0.14111 -1.48167,-1.16416 -0.28222,-0.91722 -0.52917,-1.16417 -1.44639,-1.23472 -0.98778,-0.10584 -1.12889,0.0353 -1.516943,1.12888 z m -6.87917,14.322781 c 3.45722,1.65806 5.89139,4.93889 6.35,8.46667 0.38806,2.82222 0.49389,3.10445 1.411113,3.31611 1.44639,0.35278 2.29306,-0.3175 2.29306,-1.86972 0,-5.04472 5.11528,-10.61861 9.70139,-10.61861 3.38666,0 5.46805,1.86972 5.46805,4.90361 0,2.57528 -2.8575,7.37306 -5.46805,9.17222 -1.02306,0.67028 -1.65806,0.81139 -3.73945,0.81139 -1.37583,-0.0353 -3.66889,-0.21167 -5.11528,-0.42333 -1.83444,-0.28222 -3.35138,-0.28222 -5.185833,-0.0353 -2.64583,0.38806 -4.86833,0.52917 -6.94972,0.42333 -1.02306,-0.0353 -1.5875,-0.42333 -3.35139,-2.25777 -3.66889,-3.84528 -4.93889,-7.76112 -3.38667,-10.33639 1.34056,-2.18723 5.11528,-2.92806 7.97278,-1.55223 z m 16.368893,19.89667 c 0.67028,0.21167 1.27,0.56445 1.34056,0.81139 0.3175,0.91722 -1.12889,1.09361 -5.29167,0.74083 -2.82222,-0.24694 -5.43278,-0.24694 -8.255003,0 -4.02167,0.35278 -5.3975,0.17639 -5.3975,-0.67027 0,-0.635 1.905,-1.09362 5.46805,-1.34056 4.233343,-0.3175 10.477503,-0.0706 12.135563,0.45861 z"
       id="path2-7"
       style="stroke-width:0.0352778" />
    <path
       d="m 88.433287,107.31634 c -1.41111,0.42334 -2.57527,1.86973 -2.57527,3.24556 0,1.62278 1.34055,4.09222 3.35138,6.10306 1.58751,1.5875 1.97556,1.79916 3.70417,2.01083 2.15195,0.24694 4.51556,-0.17639 5.00945,-0.88194 0.74083,-1.09362 -0.42334,-5.36223 -2.01084,-7.47889 -1.94027,-2.46945 -4.97416,-3.70417 -7.47889,-2.99862 z"
       id="path3"
       style="stroke-width:0.0352778" />
    <path
       d="m 111.36385,107.28107 c -3.21028,0.74083 -5.82083,3.98639 -6.49111,8.04333 -0.45861,2.8575 0.10583,3.31611 3.73944,3.31611 2.61056,0 2.71639,-0.0353 4.33917,-1.37583 2.18722,-1.83445 3.95111,-4.7625 3.95111,-6.56167 0,-1.02305 -0.24694,-1.62278 -1.02305,-2.39889 -0.56445,-0.56444 -1.34056,-1.02305 -1.72861,-1.02305 -0.38806,0 -0.91723,-0.0706 -1.19945,-0.14111 -0.24694,-0.0706 -0.98778,0 -1.5875,0.14111 z"
       id="path4"
       style="stroke-width:0.0352778" />
  </g>
</svg>
