<?xml version="1.0" encoding="UTF-8" standalone="no"?>
<!-- Created with Inkscape (http://www.inkscape.org/) -->

<svg
   width="44.388374mm"
   height="41.124172mm"
   viewBox="0 0 44.388374 41.124172"
   version="1.1"
   id="svg1"
   inkscape:version="1.4 (86a8ad7, 2024-10-11)"
   sodipodi:docname="B_SG_Q.svg"
   xmlns:inkscape="http://www.inkscape.org/namespaces/inkscape"
   xmlns:sodipodi="http://sodipodi.sourceforge.net/DTD/sodipodi-0.dtd"
   xmlns="http://www.w3.org/2000/svg"
   xmlns:svg="http://www.w3.org/2000/svg">
  <sodipodi:namedview
     id="namedview1"
     pagecolor="#ffffff"
     bordercolor="#000000"
     borderopacity="0.25"
     inkscape:showpageshadow="2"
     inkscape:pageopacity="0.0"
     inkscape:pagecheckerboard="0"
     inkscape:deskcolor="#d1d1d1"
     inkscape:document-units="mm"
     inkscape:zoom="0.73851712"
     inkscape:cx="279.61437"
     inkscape:cy="379.81516"
     inkscape:window-width="1920"
     inkscape:window-height="1009"
     inkscape:window-x="307"
     inkscape:window-y="1072"
     inkscape:window-maximized="1"
     inkscape:current-layer="layer1" />
  <defs
     id="defs1" />
  <g
     inkscape:label="Layer 1"
     inkscape:groupmode="layer"
     id="layer1"
     transform="translate(-31.220829,-47.889565)">
    <path
       d="m 51.2162,48.550124 c -1.234723,0.9525 -1.446389,2.398889 -0.705556,4.7625 0.811389,2.575278 0.776111,6.103056 -0.03528,10.301112 l -0.599722,3.175 -0.811389,-1.763889 c -1.693333,-3.739445 -2.575278,-6.985 -2.504722,-9.172223 0.03528,-1.164166 0.07055,-2.54 0.07055,-3.069167 0.07056,-2.293055 -2.54,-3.915833 -4.797778,-2.963333 -1.481667,0.599722 -2.010833,1.340556 -2.2225,2.963333 -0.141111,1.164167 -0.03528,1.552223 0.917222,2.610556 1.5875,1.799167 1.799167,2.716389 1.799167,7.267223 l -0.03528,4.1275 -1.375833,-1.516944 c -2.187223,-2.434167 -2.963334,-4.339167 -2.681111,-6.702779 0.176388,-1.658055 0.105833,-2.2225 -0.493889,-3.175 -1.199445,-1.940278 -3.069167,-2.328333 -4.93889,-1.058333 -2.187222,1.481667 -2.081389,4.409722 0.176389,6.103056 0.987778,0.776111 1.164167,1.164166 1.375834,2.998611 0.141111,1.128889 0.705555,3.845278 1.234722,5.961945 0.881945,3.421944 1.234722,4.162778 2.786945,6.103056 0.9525,1.234722 2.010833,2.751667 2.328333,3.386667 0.564445,1.093611 0.564445,1.234722 -0.3175,3.633611 -1.516944,4.233334 -1.234722,4.727222 3.175,5.856111 3.386667,0.846667 16.016112,0.846667 19.896668,0 4.162778,-0.917222 4.691945,-1.940277 2.998612,-5.961944 -0.529167,-1.27 -0.811389,-2.469445 -0.705556,-2.963334 0.105833,-0.423333 1.199444,-2.010833 2.363611,-3.527778 2.081389,-2.610556 2.187223,-2.8575 3.175,-6.914445 0.529167,-2.328333 1.093612,-5.044722 1.199445,-6.067778 0.211667,-1.516944 0.423333,-1.905 1.375833,-2.504722 2.434167,-1.5875 2.293056,-5.185834 -0.246944,-6.385278 -1.552222,-0.740834 -2.822223,-0.458612 -4.198056,0.9525 -1.023056,1.023055 -1.058333,1.128889 -0.811389,3.280833 0.211667,1.975556 0.105833,2.469445 -0.635,3.951111 -0.493889,0.952501 -1.446389,2.363612 -2.151945,3.139723 l -1.234722,1.411111 -0.105833,-2.116667 c -0.246945,-5.468056 0.211667,-7.690556 1.763889,-9.136945 2.645833,-2.363611 -0.246945,-6.985 -3.633612,-5.856111 -2.116666,0.705555 -2.469444,1.446389 -2.363611,4.974167 0.07056,2.716389 -0.03528,3.563056 -0.9525,6.314722 -0.599722,1.763889 -1.375833,3.774723 -1.728611,4.480278 l -0.670278,1.270001 -0.564444,-3.175001 c -0.740834,-3.986389 -0.776111,-8.008056 -0.07056,-9.983611 0.776111,-2.187223 0.670278,-3.633612 -0.352778,-4.727223 -1.023055,-1.128889 -3.386667,-1.27 -4.691944,-0.282222 z m 3.386666,1.552222 c 0.599723,0.599722 0.529167,1.869723 -0.105833,2.398889 -1.340556,1.093611 -3.386667,-0.9525 -2.293056,-2.293056 0.529167,-0.635 1.799167,-0.705555 2.398889,-0.105833 z m -10.089445,2.187223 c 0.811389,1.234722 0,2.398889 -1.516944,2.257777 -1.023056,-0.105833 -1.199445,-0.246944 -1.305278,-1.164166 -0.105833,-0.670278 0.07056,-1.164167 0.493889,-1.481667 0.670278,-0.493889 1.905,-0.282222 2.328333,0.388056 z m 20.178891,-0.388056 c 0.423333,0.3175 0.599722,0.811389 0.493888,1.481667 -0.07055,0.846666 -0.282222,1.093611 -1.093611,1.164166 -1.905,0.211667 -2.716389,-1.516944 -1.234722,-2.54 0.9525,-0.670278 1.058333,-0.670278 1.834445,-0.105833 z m -28.786669,4.198056 c 0.599722,0.599722 0.529167,1.869722 -0.105833,2.398889 -0.705556,0.599722 -2.187223,0.176389 -2.469445,-0.705556 -0.493889,-1.552222 1.446389,-2.822222 2.575278,-1.693333 z m 37.253336,0.141111 c 0.670278,0.635 0.705555,0.987778 0.211666,1.940278 -0.705555,1.305278 -2.822222,0.635 -2.822222,-0.917223 0,-1.481666 1.552222,-2.081389 2.610556,-1.023055 z m -9.842501,17.109723 c 0.987778,0.352778 1.446389,0.740834 1.516945,1.234722 l 0.105833,0.776112 -11.465279,-0.03528 c -10.936111,-0.03528 -11.500556,-0.07056 -11.500556,-0.670278 0,-1.481667 3.845278,-2.046111 12.87639,-1.905 4.7625,0.105833 7.514167,0.282222 8.466667,0.599722 z m -1.446389,7.690556 c 0.740833,0.176389 1.622778,0.599722 1.940278,0.881945 0.458611,0.493889 0.458611,0.635 0.03528,1.058333 -0.458611,0.423333 -1.411111,0.458611 -5.644445,0.246945 -2.822222,-0.176389 -7.231945,-0.176389 -9.842501,0 -4.621389,0.3175 -5.679722,0.141111 -5.679722,-0.776112 0,-0.564444 2.010833,-1.340555 4.268611,-1.693333 2.681111,-0.423333 12.946945,-0.211667 14.922501,0.282222 z"
       id="path5"
       sodipodi:nodetypes="ccccccccccccccccccccccccccccccccccccccsccccccccsccsccccccccccsccsccscccccscccccccscc"
       style="stroke-width:0.0352778" />
  </g>
</svg>
