<?xml version="1.0" encoding="UTF-8" standalone="no"?>
<!-- Created with Inkscape (http://www.inkscape.org/) -->

<svg
   width="38.539139mm"
   height="37.747219mm"
   viewBox="0 0 38.539139 37.74722"
   version="1.1"
   id="svg1"
   inkscape:version="1.4 (86a8ad7, 2024-10-11)"
   sodipodi:docname="B_SG_N.svg"
   xmlns:inkscape="http://www.inkscape.org/namespaces/inkscape"
   xmlns:sodipodi="http://sodipodi.sourceforge.net/DTD/sodipodi-0.dtd"
   xmlns="http://www.w3.org/2000/svg"
   xmlns:svg="http://www.w3.org/2000/svg">
  <sodipodi:namedview
     id="namedview1"
     pagecolor="#ffffff"
     bordercolor="#000000"
     borderopacity="0.25"
     inkscape:showpageshadow="2"
     inkscape:pageopacity="0.0"
     inkscape:pagecheckerboard="0"
     inkscape:deskcolor="#d1d1d1"
     inkscape:document-units="mm"
     inkscape:zoom="0.73851712"
     inkscape:cx="272.84405"
     inkscape:cy="370.33671"
     inkscape:window-width="1920"
     inkscape:window-height="1009"
     inkscape:window-x="307"
     inkscape:window-y="1072"
     inkscape:window-maximized="1"
     inkscape:current-layer="layer1" />
  <defs
     id="defs1" />
  <g
     inkscape:label="Layer 1"
     inkscape:groupmode="layer"
     id="layer1"
     transform="translate(-33.139165,-50.610212)">
    <path
       d="m 49.105345,51.986045 -1.128889,1.375834 -1.905,-0.881945 c -1.058333,-0.493889 -2.681111,-0.917222 -3.563055,-0.917222 l -1.622778,-0.07056 0.07055,2.469445 c 0.07056,2.963333 -0.352778,4.339167 -3.845278,11.782778 -1.411111,2.998612 -2.928056,6.491112 -3.351389,7.831668 -0.776111,2.293055 -0.811389,2.398889 -0.176389,3.386666 0.881945,1.481667 2.187223,2.398889 4.092223,2.928056 1.128889,0.3175 1.799166,0.352778 2.2225,0.105834 0.423333,-0.282223 0.635,-0.176389 0.917222,0.388055 0.211667,0.423333 0.705556,0.776111 1.128889,0.846667 0.599722,0.105833 1.128889,-0.423334 2.54,-2.504723 0.9525,-1.446389 2.257778,-3.033889 2.892778,-3.563055 1.27,-1.093612 3.845278,-2.469445 4.092223,-2.2225 0.352777,0.352777 -1.340556,3.527778 -3.351389,6.35 -1.164167,1.5875 -2.328334,3.351389 -2.645834,3.951111 -0.423333,0.846667 -1.305278,4.233334 -1.305278,4.938889 0,0.105834 6.103056,0.176389 13.546668,0.176389 h 13.511389 l 0.246945,-1.622777 C 72.247569,80.843269 70.765902,71.353546 68.26118,66.308824 65.156735,60.135212 60.641179,56.148823 56.01979,55.584379 c -1.658055,-0.211667 -1.763889,-0.282222 -2.2225,-1.693334 -0.493889,-1.481666 -2.187222,-3.280833 -3.104444,-3.280833 -0.282223,0 -0.987778,0.635 -1.587501,1.375833 z m 7.337779,6.914445 c 3.668889,1.093611 8.607778,6.949723 10.371667,12.347223 1.058333,3.210278 1.693333,7.231945 1.693333,10.724445 0,2.54 -0.529166,3.739445 -1.481666,3.386667 -0.740834,-0.282222 -0.987778,-1.27 -0.987778,-4.268611 0,-3.316112 -0.846667,-8.149167 -1.905,-10.724445 -1.905,-4.656667 -5.785556,-8.854723 -9.38389,-10.124723 -1.693333,-0.599723 -2.2225,-1.27 -1.305278,-1.622778 0.705556,-0.3175 1.093612,-0.282222 2.998612,0.282222 z M 46.17729,61.793268 c 0.105833,0.246945 -0.458611,1.093611 -1.199445,1.869722 -1.023055,1.128889 -1.622778,1.481667 -2.575278,1.516945 -1.799167,0.105833 -1.869722,-1.128889 -0.211666,-2.786945 1.058333,-1.058333 1.446389,-1.234722 2.54,-1.128889 0.740833,0.07056 1.375833,0.282223 1.446389,0.529167 z M 37.1109,74.528547 c 0,0.881944 -0.740833,1.763889 -1.5875,1.905 -0.564444,0.07055 -0.670278,-0.07056 -0.599722,-0.776111 0.141111,-1.446389 2.187222,-2.504723 2.187222,-1.128889 z"
       id="path6"
       style="stroke-width:0.0352778" />
  </g>
</svg>
