<?xml version="1.0" encoding="UTF-8" standalone="no"?>
<!-- Created with Inkscape (http://www.inkscape.org/) -->

<svg
   width="38.728882mm"
   height="42.291428mm"
   viewBox="0 0 38.728882 42.291428"
   version="1.1"
   id="svg1"
   inkscape:version="1.4 (86a8ad7, 2024-10-11)"
   sodipodi:docname="W_SG_K.svg"
   xmlns:inkscape="http://www.inkscape.org/namespaces/inkscape"
   xmlns:sodipodi="http://sodipodi.sourceforge.net/DTD/sodipodi-0.dtd"
   xmlns="http://www.w3.org/2000/svg"
   xmlns:svg="http://www.w3.org/2000/svg">
  <sodipodi:namedview
     id="namedview1"
     pagecolor="#ffffff"
     bordercolor="#000000"
     borderopacity="0.25"
     inkscape:showpageshadow="2"
     inkscape:pageopacity="0.0"
     inkscape:pagecheckerboard="0"
     inkscape:deskcolor="#d1d1d1"
     inkscape:document-units="mm"
     inkscape:zoom="4.1776837"
     inkscape:cx="45.360064"
     inkscape:cy="68.578672"
     inkscape:window-width="1920"
     inkscape:window-height="1009"
     inkscape:window-x="307"
     inkscape:window-y="1072"
     inkscape:window-maximized="1"
     inkscape:current-layer="layer1" />
  <defs
     id="defs1" />
  <g
     inkscape:label="Layer 1"
     inkscape:groupmode="layer"
     id="layer1"
     transform="translate(-85.725,-127.26458)">
    <path
       style="display:inline;fill:#ffffff;fill-opacity:1;stroke-width:0.0352778"
       d="m 112.56526,165.04708 c 1.27,0.3175 1.72862,1.09361 0.9525,1.55222 -0.81138,0.49389 -9.34861,0.84667 -12.66472,0.52917 -4.691943,-0.45861 -5.573887,-0.88194 -3.845276,-1.79917 1.622778,-0.88194 12.382496,-1.05833 15.557496,-0.28222 z"
       id="path6" />
    <path
       style="display:inline;fill:#ffffff;fill-opacity:1;stroke-width:0.0352778"
       d="m 111.33054,157.42708 c 2.78695,0.24694 5.15056,0.56444 5.25639,0.635 0.17639,0.17639 -0.45861,4.79778 -0.67028,5.00944 -0.0705,0.0706 -1.19944,-0.14111 -2.57527,-0.45861 -4.33917,-0.98777 -14.216949,-0.74083 -18.34445,0.45861 -0.635,0.21167 -0.740833,-0.0353 -1.128889,-2.36361 -0.211666,-1.41111 -0.352777,-2.61055 -0.3175,-2.68111 0.07056,-0.0353 2.010834,-0.24694 4.303889,-0.45861 2.29306,-0.21167 4.83306,-0.52917 5.60917,-0.67028 0.77611,-0.17639 1.72861,-0.21166 2.11666,-0.14111 0.38806,0.10584 2.99862,0.38806 5.75028,0.67028 z"
       id="path5"
       sodipodi:nodetypes="cccccccsccc" />
    <path
       style="stroke-width:0.0352778;fill:#ffffff;fill-opacity:1"
       d="m 119.0211,142.75152 c 1.72861,0.77611 2.8575,2.25778 3.175,4.16278 0.28222,1.72861 -0.35278,3.31611 -2.54,6.27945 l -1.65806,2.25777 -2.15194,-0.14111 c -1.19945,-0.10583 -3.35139,-0.24694 -4.83306,-0.35277 -1.48166,-0.0706 -3.13972,-0.3175 -3.66889,-0.52917 -0.91722,-0.35278 -0.9525,-0.49389 -0.77611,-1.97556 0.24695,-2.29305 2.11667,-5.89139 3.88056,-7.40833 1.83444,-1.5875 4.65666,-2.96333 6.06778,-2.96333 0.59972,0 1.69333,0.3175 2.50472,0.67027 z"
       id="path4" />
    <path
       style="fill:#ffffff;fill-opacity:1;stroke-width:0.0352778"
       d="m 96.725542,142.96319 c 3.492498,1.65806 6.773338,6.20889 6.984998,9.70139 l 0.10584,1.5875 -1.94028,0.38806 c -1.05834,0.21166 -3.633614,0.49388 -5.715003,0.635 l -3.81,0.24694 -1.622778,-2.2225 c -2.751667,-3.73944 -3.245556,-5.78556 -1.905,-8.36083 0.599722,-1.19945 1.340555,-1.76389 3.527778,-2.64584 0.846667,-0.3175 2.963333,0 4.374445,0.67028 z"
       id="path3"
       sodipodi:nodetypes="cccccccccc" />
    <path
       style="stroke-width:0.0352778;fill:#ffffff;fill-opacity:1"
       d="m 106.25054,137.88319 c 1.02306,0.45861 1.62278,1.94028 1.62278,3.88056 0,1.34055 -1.94028,5.60916 -2.64583,5.85611 -0.21167,0.0706 -0.88195,-0.81139 -1.51695,-1.97556 -1.72861,-3.175 -1.55222,-7.02028 0.38806,-7.79639 1.05833,-0.42333 1.12889,-0.42333 2.15194,0.0353 z"
       id="path2" />
    <path
       d="m 103.81638,128.46402 c -0.42334,0.98778 -0.74084,1.23473 -1.65806,1.34056 -1.02306,0.10583 -1.16417,0.24694 -1.27,1.23472 -0.10583,1.02306 0.0353,1.19945 1.30528,1.86972 1.65805,0.81139 1.97555,2.15195 0.74083,2.82223 -1.41111,0.74083 -2.82222,3.175 -2.82222,4.83305 0,1.41111 -0.388057,1.94028 -0.846668,1.19945 -0.529167,-0.81139 -3.492501,-1.79917 -5.468056,-1.79917 -4.303889,0 -7.302501,2.36361 -7.937501,6.20889 -0.423333,2.36361 0.07056,3.81 2.610556,7.72583 2.469445,3.81 2.963334,5.11528 3.4925,9.56028 0.176389,1.37583 0.493889,2.82222 0.705556,3.21028 0.529167,1.05833 2.998611,2.08139 6.103056,2.57528 3.704167,0.59972 12.805837,0.28222 15.416387,-0.52917 2.89278,-0.88194 3.73945,-1.94028 4.02167,-4.93889 0.38806,-3.84528 1.12889,-6.0325 3.03389,-8.92528 2.36361,-3.63361 3.21028,-5.57389 3.21028,-7.54944 0,-2.11667 -0.45861,-3.35139 -1.86973,-4.79778 -2.71638,-2.8575 -6.59694,-3.4925 -10.12472,-1.62278 -1.05833,0.56445 -2.04611,1.05833 -2.18722,1.12889 -0.17639,0.0706 -0.28222,-0.77611 -0.28222,-1.86972 0,-1.86972 -0.0706,-2.04611 -1.5875,-3.4925 -1.94028,-1.905 -2.01084,-2.71639 -0.35278,-3.73945 1.02305,-0.635 1.23472,-0.98777 1.23472,-1.97555 0,-1.12889 -0.0705,-1.19945 -1.19944,-1.19945 -1.05834,0 -1.27,-0.14111 -1.62278,-1.23472 -0.3175,-0.9525 -0.59972,-1.23472 -1.27,-1.23472 -0.67028,0 -1.02306,0.28222 -1.37583,1.19944 z m 2.43416,9.41917 c 1.02306,0.45861 1.62278,1.94028 1.62278,3.88056 0,1.34055 -1.94028,5.60916 -2.64583,5.85611 -0.21167,0.0706 -0.88195,-0.81139 -1.51695,-1.97556 -1.72861,-3.175 -1.55222,-7.02028 0.38806,-7.79639 1.05833,-0.42333 1.12889,-0.42333 2.15194,0.0353 z m -9.524998,5.08 c 3.492498,1.65806 6.773338,6.20889 6.984998,9.70139 l 0.10584,1.5875 -1.94028,0.38806 c -1.05834,0.21166 -3.633614,0.49388 -5.715003,0.635 l -3.81,0.24694 -1.622778,-2.2225 c -2.751667,-3.73944 -3.245556,-5.78556 -1.905,-8.36083 0.599722,-1.19945 1.340555,-1.76389 3.527778,-2.64584 0.846667,-0.3175 2.963333,0 4.374445,0.67028 z m 22.295558,-0.21167 c 1.72861,0.77611 2.8575,2.25778 3.175,4.16278 0.28222,1.72861 -0.35278,3.31611 -2.54,6.27945 l -1.65806,2.25777 -2.15194,-0.14111 c -1.19945,-0.10583 -3.35139,-0.24694 -4.83306,-0.35277 -1.48166,-0.0706 -3.13972,-0.3175 -3.66889,-0.52917 -0.91722,-0.35278 -0.9525,-0.49389 -0.77611,-1.97556 0.24695,-2.29305 2.11667,-5.89139 3.88056,-7.40833 1.83444,-1.5875 4.65666,-2.96333 6.06778,-2.96333 0.59972,0 1.69333,0.3175 2.50472,0.67027 z m -7.69056,14.67556 c 2.78695,0.24694 5.15056,0.56444 5.25639,0.635 0.17639,0.17639 -0.45861,4.79778 -0.67028,5.00944 -0.0705,0.0706 -1.19944,-0.14111 -2.57527,-0.45861 -4.33917,-0.98777 -14.216949,-0.74083 -18.34445,0.45861 -0.635,0.21167 -0.740833,-0.0353 -1.128889,-2.36361 -0.211666,-1.41111 -0.352777,-2.61055 -0.3175,-2.68111 0.07056,-0.0353 2.010834,-0.24694 4.303889,-0.45861 2.29306,-0.21167 4.83306,-0.52917 5.60917,-0.67028 0.77611,-0.17639 1.72861,-0.21166 2.11666,-0.14111 0.38806,0.10584 2.99862,0.38806 5.75028,0.67028 z m 1.23472,7.62 c 1.27,0.3175 1.72862,1.09361 0.9525,1.55222 -0.81138,0.49389 -9.34861,0.84667 -12.66472,0.52917 -4.691943,-0.45861 -5.573887,-0.88194 -3.845276,-1.79917 1.622778,-0.88194 12.382496,-1.05833 15.557496,-0.28222 z"
       id="path1"
       style="display:inline;fill:#000000;fill-opacity:1;stroke-width:0.0352778" />
  </g>
</svg>
