<?xml version="1.0" encoding="UTF-8" standalone="no"?>
<!-- Created with Inkscape (http://www.inkscape.org/) -->

<svg
   width="41.367775mm"
   height="44.406487mm"
   viewBox="0 0 41.367775 44.406486"
   version="1.1"
   id="svg1"
   inkscape:version="1.4 (86a8ad7, 2024-10-11)"
   sodipodi:docname="W_SG_B.svg"
   xmlns:inkscape="http://www.inkscape.org/namespaces/inkscape"
   xmlns:sodipodi="http://sodipodi.sourceforge.net/DTD/sodipodi-0.dtd"
   xmlns="http://www.w3.org/2000/svg"
   xmlns:svg="http://www.w3.org/2000/svg">
  <sodipodi:namedview
     id="namedview1"
     pagecolor="#ffffff"
     bordercolor="#000000"
     borderopacity="0.25"
     inkscape:showpageshadow="2"
     inkscape:pageopacity="0.0"
     inkscape:pagecheckerboard="0"
     inkscape:deskcolor="#d1d1d1"
     inkscape:document-units="mm"
     inkscape:zoom="2.9540685"
     inkscape:cx="121.1888"
     inkscape:cy="89.876048"
     inkscape:window-width="1920"
     inkscape:window-height="1009"
     inkscape:window-x="307"
     inkscape:window-y="1072"
     inkscape:window-maximized="1"
     inkscape:current-layer="layer1" />
  <defs
     id="defs1" />
  <g
     inkscape:label="Layer 1"
     inkscape:groupmode="layer"
     id="layer1"
     transform="translate(-130.17504,-46.302053)">
    <path
       style="stroke-width:0.0352778;fill:#ffffff;fill-opacity:1"
       d="m 153.28199,81.254094 c 2.36361,1.693333 4.16277,2.187222 9.31333,2.610555 3.81,0.3175 4.48028,0.458612 5.00944,1.128889 0.49389,0.564445 0.52917,0.881945 0.24695,1.446389 -0.35278,0.635 -0.59972,0.670278 -3.06917,0.458611 -7.12611,-0.599722 -11.25361,-1.728611 -12.91167,-3.527777 l -0.84666,-0.917223 -0.91722,0.917223 c -1.19945,1.199444 -3.38667,2.151944 -6.0325,2.610555 -3.81,0.635 -9.27806,1.164167 -9.66612,0.917222 -0.21166,-0.105833 -0.38805,-0.599722 -0.38805,-1.093611 0,-1.27 1.51694,-1.763889 5.99722,-2.010833 4.62139,-0.282222 6.0325,-0.670278 8.46667,-2.398889 1.05833,-0.740834 2.18722,-1.375834 2.50472,-1.375834 0.28222,0 1.34056,0.564445 2.29306,1.234723 z"
       id="path20" />
    <path
       style="stroke-width:0.0352778;fill:#ffffff;fill-opacity:1"
       d="m 157.62115,76.491593 c 0.98778,0.493889 0.9525,1.27 -0.0353,1.516945 -1.55223,0.388056 -9.70139,0.705556 -11.71223,0.458611 -2.04611,-0.282222 -2.82222,-0.917222 -2.01083,-1.728611 0.88194,-0.881945 12.17083,-1.128889 13.75833,-0.246945 z"
       id="path19" />
    <path
       style="stroke-width:0.0352778;fill:#ffffff;fill-opacity:1"
       d="m 157.72699,72.963815 -0.14111,1.234723 h -6.63223 -6.63222 l -0.14111,-1.234723 -0.10583,-1.234722 h 6.87916 6.87917 z"
       id="path18" />
    <path
       style="stroke-width:0.0352778;fill:#ffffff;fill-opacity:1"
       d="m 153.24671,55.642425 c 2.2225,1.023056 5.715,3.774723 6.73805,5.326945 1.76389,2.681111 1.34056,6.596945 -0.88194,7.902223 -2.2225,1.27 -13.335,1.411111 -16.01611,0.176389 -1.97556,-0.917222 -2.92806,-4.515556 -1.79917,-6.879167 1.37583,-2.928056 7.12611,-7.196667 9.63083,-7.196667 0.49389,0 1.55223,0.3175 2.32834,0.670277 z"
       id="path17" />
    <path
       style="stroke-width:0.0352778;fill:#ffffff;fill-opacity:1"
       d="m 152.36476,49.327703 c 0.38806,0.388055 0.70556,0.9525 0.70556,1.234722 0,0.740833 -1.27,1.940278 -2.04611,1.940278 -1.05834,0 -1.905,-0.881945 -1.905,-1.940278 0,-1.799167 1.94028,-2.54 3.24555,-1.234722 z"
       id="path16" />
    <path
       d="m 149.33087,46.50548 c -1.72861,0.529167 -2.71638,1.869723 -2.71638,3.66889 0,0.881944 0.24694,1.975555 0.59972,2.504722 0.35278,0.529167 0.56444,0.9525 0.49389,0.987778 -6.45584,3.210278 -9.98361,7.761111 -9.24278,12.029723 0.28222,1.728611 1.51694,4.268611 2.82222,5.820833 l 0.91722,1.128889 -0.56444,2.257778 c -0.3175,1.234723 -0.56445,2.575278 -0.56445,2.963334 0,1.023055 0.91723,1.763889 2.75167,2.2225 l 1.65806,0.423333 -1.76389,0.493889 c -1.02306,0.282222 -3.28084,0.493889 -5.43278,0.458611 -4.19806,0 -4.97417,0.282223 -6.87917,2.469445 l -1.23472,1.446389 1.34056,2.010833 c 0.74083,1.093612 1.69333,2.293056 2.11666,2.645834 0.67028,0.635 0.77611,0.635 1.37584,0.105833 0.38805,-0.352778 2.15194,-0.740833 5.18583,-1.128889 5.36222,-0.670278 7.58472,-1.27 9.41917,-2.469444 l 1.30527,-0.881945 1.27,0.740834 c 1.86973,1.128889 4.16278,1.728611 9.10167,2.434166 2.75167,0.388056 4.86834,0.881945 5.43278,1.27 l 0.9525,0.599723 1.41111,-1.5875 c 0.81139,-0.881945 1.72861,-2.081389 2.04611,-2.645834 0.59973,-1.058333 0.59973,-1.093611 -0.38805,-2.469444 -1.51695,-2.081389 -2.8575,-2.575278 -6.80861,-2.504723 -3.52778,0.105833 -7.76112,-0.670278 -6.45584,-1.164167 0.38806,-0.141111 1.23472,-0.458611 1.86972,-0.670277 1.76389,-0.670278 1.905,-1.305278 1.09362,-4.233334 l -0.74084,-2.575278 0.74084,-0.917222 c 1.51694,-1.940278 2.57527,-4.021667 2.96333,-5.856112 0.3175,-1.622778 0.28222,-2.2225 -0.24695,-3.951111 -0.9525,-3.033889 -4.23333,-6.103056 -8.96055,-8.466667 -0.0706,-0.03528 0.10583,-0.423334 0.38805,-0.881945 1.76389,-2.822222 0.28223,-6.067778 -2.96333,-6.455833 -0.67028,-0.07056 -1.69333,0 -2.29306,0.176388 z m 3.03389,2.822223 c 0.38806,0.388055 0.70556,0.9525 0.70556,1.234722 0,0.740833 -1.27,1.940278 -2.04611,1.940278 -1.05834,0 -1.905,-0.881945 -1.905,-1.940278 0,-1.799167 1.94028,-2.54 3.24555,-1.234722 z m 0.88195,6.314722 c 2.2225,1.023056 5.715,3.774723 6.73805,5.326945 1.76389,2.681111 1.34056,6.596945 -0.88194,7.902223 -2.2225,1.27 -13.335,1.411111 -16.01611,0.176389 -1.97556,-0.917222 -2.92806,-4.515556 -1.79917,-6.879167 1.37583,-2.928056 7.12611,-7.196667 9.63083,-7.196667 0.49389,0 1.55223,0.3175 2.32834,0.670277 z m 4.48028,17.32139 -0.14111,1.234723 h -6.63223 -6.63222 l -0.14111,-1.234723 -0.10583,-1.234722 h 6.87916 6.87917 z m -0.10584,3.527778 c 0.98778,0.493889 0.9525,1.27 -0.0353,1.516945 -1.55223,0.388056 -9.70139,0.705556 -11.71223,0.458611 -2.04611,-0.282222 -2.82222,-0.917222 -2.01083,-1.728611 0.88194,-0.881945 12.17083,-1.128889 13.75833,-0.246945 z m -4.33916,4.762501 c 2.36361,1.693333 4.16277,2.187222 9.31333,2.610555 3.81,0.3175 4.48028,0.458612 5.00944,1.128889 0.49389,0.564445 0.52917,0.881945 0.24695,1.446389 -0.35278,0.635 -0.59972,0.670278 -3.06917,0.458611 -7.12611,-0.599722 -11.25361,-1.728611 -12.91167,-3.527777 l -0.84666,-0.917223 -0.91722,0.917223 c -1.19945,1.199444 -3.38667,2.151944 -6.0325,2.610555 -3.81,0.635 -9.27806,1.164167 -9.66612,0.917222 -0.21166,-0.105833 -0.38805,-0.599722 -0.38805,-1.093611 0,-1.27 1.51694,-1.763889 5.99722,-2.010833 4.62139,-0.282222 6.0325,-0.670278 8.46667,-2.398889 1.05833,-0.740834 2.18722,-1.375834 2.50472,-1.375834 0.28222,0 1.34056,0.564445 2.29306,1.234723 z"
       id="path15"
       style="stroke-width:0.0352778" />
  </g>
</svg>
