<?xml version="1.0" encoding="UTF-8" standalone="no"?>
<!-- Created with Inkscape (http://www.inkscape.org/) -->

<svg
   width="27.622499mm"
   height="37.673187mm"
   viewBox="0 0 27.622499 37.673186"
   version="1.1"
   id="svg1"
   inkscape:version="1.4 (86a8ad7, 2024-10-11)"
   sodipodi:docname="W_SG_P.svg"
   xmlns:inkscape="http://www.inkscape.org/namespaces/inkscape"
   xmlns:sodipodi="http://sodipodi.sourceforge.net/DTD/sodipodi-0.dtd"
   xmlns="http://www.w3.org/2000/svg"
   xmlns:svg="http://www.w3.org/2000/svg">
  <sodipodi:namedview
     id="namedview1"
     pagecolor="#ffffff"
     bordercolor="#000000"
     borderopacity="0.25"
     inkscape:showpageshadow="2"
     inkscape:pageopacity="0.0"
     inkscape:pagecheckerboard="0"
     inkscape:deskcolor="#d1d1d1"
     inkscape:document-units="mm"
     inkscape:zoom="4.1776837"
     inkscape:cx="54.096963"
     inkscape:cy="58.285887"
     inkscape:window-width="1920"
     inkscape:window-height="1009"
     inkscape:window-x="307"
     inkscape:window-y="1072"
     inkscape:window-maximized="1"
     inkscape:current-layer="layer1" />
  <defs
     id="defs1" />
  <g
     inkscape:label="Layer 1"
     inkscape:groupmode="layer"
     id="layer1"
     transform="translate(-135.99593,-49.477037)">
    <path
       d="m 147.84928,49.755777 c -2.71639,0.811389 -4.09222,3.633612 -3.21028,6.561667 0.45861,1.516945 0.45861,1.728612 -0.0353,2.010834 -1.37583,0.776111 -2.96333,2.504722 -3.35139,3.668889 -0.84666,2.54 0.24695,6.173612 2.2225,7.302501 l 1.09362,0.670277 -1.19945,0.599723 c -1.79917,0.9525 -4.445,3.421944 -5.43278,5.08 -1.16416,1.975556 -1.94027,5.468056 -1.94027,8.748889 v 2.751667 h 13.79361 13.82889 l -0.21167,-3.633611 c -0.10583,-1.975556 -0.45861,-4.409723 -0.77611,-5.3975 -0.84667,-2.504723 -2.78695,-4.93889 -5.29167,-6.632223 l -2.15194,-1.446389 1.48166,-1.411111 c 1.65806,-1.5875 2.11667,-3.069167 1.72862,-5.644445 -0.21167,-1.5875 -1.79917,-3.668889 -3.45723,-4.586112 -0.59972,-0.3175 -0.59972,-0.458611 -0.0705,-2.010833 1.48166,-4.268611 -2.43417,-7.972778 -7.02028,-6.632223 z m 2.99861,2.116667 c 0.635,0 1.72861,1.411111 1.72861,2.257778 0,0.458611 -0.3175,1.516945 -0.67028,2.328334 -0.38805,0.846666 -0.59972,1.728611 -0.49388,1.975555 0.0705,0.246945 0.77611,0.846667 1.55222,1.375834 1.83444,1.199444 2.78694,2.786944 2.78694,4.691944 0,1.587501 -0.59972,2.398889 -3.10444,4.409723 -1.02306,0.811389 -0.59972,1.658056 1.62278,3.175 4.55083,3.139723 6.38527,5.926667 6.70277,10.124723 l 0.17639,2.469445 h -11.39472 -11.39472 l 0.17639,-2.469445 c 0.3175,-4.268611 1.905,-6.596945 6.985,-10.33639 2.04611,-1.516944 2.18722,-2.363611 0.52916,-3.668889 -3.24555,-2.504722 -3.03389,-5.926667 0.49389,-8.431389 1.55222,-1.128889 1.79917,-2.081389 0.91722,-3.668889 -1.30527,-2.293056 0.28223,-4.974167 2.57528,-4.374445 0.28222,0.07056 0.635,0.141111 0.81139,0.141111 z"
       id="path26"
       style="display:inline;stroke-width:0.0352778"
       transform="translate(-1.2291666e-6)" />
    <path
       style="display:inline;stroke-width:0.0352778;fill:#ffffff;fill-opacity:1"
       d="m 150.84789,51.872444 c 0.635,0 1.72861,1.411111 1.72861,2.257778 0,0.458611 -0.3175,1.516945 -0.67028,2.328334 -0.38805,0.846666 -0.59972,1.728611 -0.49388,1.975555 0.0705,0.246945 0.77611,0.846667 1.55222,1.375834 1.83444,1.199444 2.78694,2.786944 2.78694,4.691944 0,1.587501 -0.59972,2.398889 -3.10444,4.409723 -1.02306,0.811389 -0.59972,1.658056 1.62278,3.175 4.55083,3.139723 6.38527,5.926667 6.70277,10.124723 l 0.17639,2.469445 h -11.39472 -11.39472 l 0.17639,-2.469445 c 0.3175,-4.268611 1.905,-6.596945 6.985,-10.33639 2.04611,-1.516944 2.18722,-2.363611 0.52916,-3.668889 -3.24555,-2.504722 -3.03389,-5.926667 0.49389,-8.431389 1.55222,-1.128889 1.79917,-2.081389 0.91722,-3.668889 -1.30527,-2.293056 0.28223,-4.974167 2.57528,-4.374445 0.28222,0.07056 0.635,0.141111 0.81139,0.141111 z"
       id="path27" />
  </g>
</svg>
