<?xml version="1.0" encoding="UTF-8" standalone="no"?>
<!-- Created with Inkscape (http://www.inkscape.org/) -->

<svg
   width="38.429737mm"
   height="37.747223mm"
   viewBox="0 0 38.429737 37.747222"
   version="1.1"
   id="svg1"
   inkscape:version="1.4 (86a8ad7, 2024-10-11)"
   sodipodi:docname="W_SG_N.svg"
   xmlns:inkscape="http://www.inkscape.org/namespaces/inkscape"
   xmlns:sodipodi="http://sodipodi.sourceforge.net/DTD/sodipodi-0.dtd"
   xmlns="http://www.w3.org/2000/svg"
   xmlns:svg="http://www.w3.org/2000/svg">
  <sodipodi:namedview
     id="namedview1"
     pagecolor="#ffffff"
     bordercolor="#000000"
     borderopacity="0.25"
     inkscape:showpageshadow="2"
     inkscape:pageopacity="0.0"
     inkscape:pagecheckerboard="0"
     inkscape:deskcolor="#d1d1d1"
     inkscape:document-units="mm"
     inkscape:zoom="4.1776837"
     inkscape:cx="69.17709"
     inkscape:cy="58.285887"
     inkscape:window-width="1920"
     inkscape:window-height="1009"
     inkscape:window-x="307"
     inkscape:window-y="1072"
     inkscape:window-maximized="1"
     inkscape:current-layer="layer1" />
  <defs
     id="defs1" />
  <g
     inkscape:label="Layer 1"
     inkscape:groupmode="layer"
     id="layer1"
     transform="translate(-132.02715,-49.47704)">
    <path
       style="display:inline;stroke-width:0.0352778;fill:#ffffff;fill-opacity:1"
       d="m 150.44215,53.992595 c 1.05833,3.386667 0.88194,3.245556 3.63361,3.245556 1.86972,0 2.75167,0.176389 3.63361,0.740834 1.94028,1.199444 5.15056,5.009444 6.73806,7.9375 2.29305,4.303889 2.96333,7.161389 3.175,13.440834 l 0.21167,5.362223 -10.65389,0.105833 c -8.46667,0.07056 -10.61862,0 -10.61862,-0.352778 0,-0.670277 1.30528,-3.104444 3.13973,-5.891389 2.46944,-3.704167 3.21027,-5.609167 3.21027,-8.290278 0,-0.881945 0.38806,-2.892778 0.84667,-4.445 0.91722,-3.069167 0.88195,-3.845279 -0.17639,-3.316112 -0.88194,0.493889 -2.29305,2.998612 -2.78694,4.938889 -0.35278,1.411112 -0.59972,1.728612 -2.01084,2.469445 -2.15194,1.128889 -4.86833,3.668889 -6.63222,6.138334 -1.51694,2.081389 -2.18722,2.328333 -2.01083,0.740833 0.10583,-0.917222 0.0353,-0.9525 -0.88195,-0.740833 -2.68111,0.670278 -3.10444,0.635 -4.09222,-0.352778 -0.77611,-0.740833 -0.9525,-1.199445 -0.77611,-1.869722 0.10583,-0.529167 1.69333,-4.021667 3.4925,-7.79639 1.79917,-3.774722 3.4925,-7.373056 3.73945,-8.008056 0.35277,-0.917222 0.81138,-1.27 2.36361,-1.869722 3.10444,-1.164167 4.69194,-2.081389 5.11527,-2.998611 0.49389,-1.093612 0.81139,-0.881945 1.34056,0.811388 z"
       id="path26" />
    <path
       style="display:inline;stroke-width:0.0352778;fill:#ffffff;fill-opacity:1"
       d="m 143.45715,52.863706 1.12889,0.564445 -0.88195,0.493889 c -1.30527,0.740833 -1.72861,0.599722 -1.72861,-0.564445 0,-1.234722 0.0353,-1.234722 1.48167,-0.493889 z"
       id="path25" />
    <path
       d="m 148.21965,50.535373 c -0.49389,0.564444 -0.9525,1.199445 -1.02306,1.411111 -0.0705,0.246945 -0.81138,0.07056 -1.97555,-0.529167 -0.98778,-0.493888 -2.64583,-1.023055 -3.63361,-1.128888 l -1.79917,-0.211667 0.24694,2.151944 c 0.28223,2.469445 -0.21166,4.586112 -2.08138,8.607779 -3.31612,7.231945 -4.7625,10.512778 -5.29167,12.170834 l -0.635,1.869722 1.02305,1.411111 c 1.12889,1.5875 2.96334,2.610556 4.23334,2.363612 0.59972,-0.105834 1.12889,0.105833 1.72861,0.705555 1.37583,1.375834 2.50472,0.987778 4.09222,-1.305278 0.74084,-1.058333 1.94028,-2.54 2.68111,-3.280833 1.34056,-1.411111 4.19806,-3.280834 4.51556,-2.963334 0.42333,0.423334 -0.49389,2.328334 -2.8575,5.89139 -2.57528,3.81 -4.05695,7.020278 -4.05695,8.643056 v 0.881944 h 13.37028 13.37028 l 0.24695,-2.575278 c 0.3175,-3.316111 -0.3175,-10.195278 -1.23473,-13.82889 -1.34055,-5.185833 -4.23333,-10.195278 -7.65527,-13.229167 -2.25778,-1.975556 -4.02167,-2.8575 -6.31473,-3.069167 -1.76389,-0.176389 -1.905,-0.282222 -2.29305,-1.411111 -0.49389,-1.552222 -2.32834,-3.633611 -3.13973,-3.633611 -0.35277,0 -1.02305,0.458611 -1.51694,1.058333 z m -4.7625,2.328333 1.12889,0.564445 -0.88195,0.493889 c -1.30527,0.740833 -1.72861,0.599722 -1.72861,-0.564445 0,-1.234722 0.0353,-1.234722 1.48167,-0.493889 z m 6.985,1.128889 c 1.05833,3.386667 0.88194,3.245556 3.63361,3.245556 1.86972,0 2.75167,0.176389 3.63361,0.740834 1.94028,1.199444 5.15056,5.009444 6.73806,7.9375 2.29305,4.303889 2.96333,7.161389 3.175,13.440834 l 0.21167,5.362223 -10.65389,0.105833 c -8.46667,0.07056 -10.61862,0 -10.61862,-0.352778 0,-0.670277 1.30528,-3.104444 3.13973,-5.891389 2.46944,-3.704167 3.21027,-5.609167 3.21027,-8.290278 0,-0.881945 0.38806,-2.892778 0.84667,-4.445 0.91722,-3.069167 0.88195,-3.845279 -0.17639,-3.316112 -0.88194,0.493889 -2.29305,2.998612 -2.78694,4.938889 -0.35278,1.411112 -0.59972,1.728612 -2.01084,2.469445 -2.15194,1.128889 -4.86833,3.668889 -6.63222,6.138334 -1.51694,2.081389 -2.18722,2.328333 -2.01083,0.740833 0.10583,-0.917222 0.0353,-0.9525 -0.88195,-0.740833 -2.68111,0.670278 -3.10444,0.635 -4.09222,-0.352778 -0.77611,-0.740833 -0.9525,-1.199445 -0.77611,-1.869722 0.10583,-0.529167 1.69333,-4.021667 3.4925,-7.79639 1.79917,-3.774722 3.4925,-7.373056 3.73945,-8.008056 0.35277,-0.917222 0.81138,-1.27 2.36361,-1.869722 3.10444,-1.164167 4.69194,-2.081389 5.11527,-2.998611 0.49389,-1.093612 0.81139,-0.881945 1.34056,0.811388 z"
       id="path24"
       style="display:inline;stroke-width:0.0352778" />
    <path
       d="m 142.08132,60.765929 c -1.16417,0.705556 -1.76389,2.010834 -1.37584,2.998611 0.28222,0.776112 1.16417,0.670278 2.92806,-0.352777 1.44639,-0.881945 2.2225,-2.151945 1.69333,-2.963334 -0.35278,-0.599722 -2.01083,-0.458611 -3.24555,0.3175 z"
       id="path15"
       style="display:inline;stroke-width:0.0352778" />
    <path
       d="m 135.80187,72.619263 c -0.77611,0.811389 -0.52917,2.046112 0.42333,2.187223 1.05834,0.141111 1.86973,-1.375834 1.16417,-2.222501 -0.56444,-0.670277 -0.88194,-0.670277 -1.5875,0.03528 z"
       id="path16"
       style="display:inline;stroke-width:0.0352778" />
  </g>
</svg>
