<?xml version="1.0" encoding="UTF-8" standalone="no"?>
<!-- Created with Inkscape (http://www.inkscape.org/) -->

<svg
   width="32.119007mm"
   height="37.750759mm"
   viewBox="0 0 32.119007 37.750759"
   version="1.1"
   id="svg1"
   inkscape:version="1.4 (86a8ad7, 2024-10-11)"
   sodipodi:docname="W_SG_R.svg"
   xmlns:inkscape="http://www.inkscape.org/namespaces/inkscape"
   xmlns:sodipodi="http://sodipodi.sourceforge.net/DTD/sodipodi-0.dtd"
   xmlns="http://www.w3.org/2000/svg"
   xmlns:svg="http://www.w3.org/2000/svg">
  <sodipodi:namedview
     id="namedview1"
     pagecolor="#ffffff"
     bordercolor="#000000"
     borderopacity="0.25"
     inkscape:showpageshadow="2"
     inkscape:pageopacity="0.0"
     inkscape:pagecheckerboard="0"
     inkscape:deskcolor="#d1d1d1"
     inkscape:document-units="mm"
     inkscape:zoom="2.9540685"
     inkscape:cx="101.21634"
     inkscape:cy="78.027982"
     inkscape:window-width="1920"
     inkscape:window-height="1009"
     inkscape:window-x="307"
     inkscape:window-y="1072"
     inkscape:window-maximized="1"
     inkscape:current-layer="layer1" />
  <defs
     id="defs1" />
  <g
     inkscape:label="Layer 1"
     inkscape:groupmode="layer"
     id="layer1"
     transform="translate(-135.46669,-49.47706)">
    <path
       style="stroke-width:0.0352778;fill:#ffffff;fill-opacity:1"
       d="m 165.45278,83.520117 v 1.234723 h -13.93472 -13.93473 v -1.234723 -1.234722 h 13.93473 13.93472 z"
       id="path15" />
    <path
       style="stroke-width:0.0352778;fill:#ffffff;fill-opacity:1"
       d="m 161.11361,77.769839 c 1.02306,1.023056 1.86973,1.940278 1.86973,2.046111 0,0.105834 -5.18584,0.141112 -11.53584,0.07056 l -11.53583,-0.105833 1.905,-1.905 1.905,-1.940278 h 7.76111 7.76111 z"
       id="path14" />
    <path
       style="stroke-width:0.0352778;fill:#ffffff;fill-opacity:1"
       d="m 158.75,68.174283 v 5.644445 l -7.26722,-0.07056 -7.23194,-0.105833 -0.0706,-5.573889 -0.0706,-5.538612 h 7.33778 7.3025 z"
       id="path12" />
    <path
       style="stroke-width:0.0352778;fill:#ffffff;fill-opacity:1"
       d="m 142.875,53.110671 c 0,1.27 0.67028,1.658056 2.8575,1.658056 2.68111,0 3.13972,-0.211667 3.13972,-1.446389 v -1.023056 h 2.46945 c 2.32833,0 2.46944,0.03528 2.46944,0.811389 0,1.305278 0.67028,1.658056 3.24556,1.658056 2.04611,0 2.43417,-0.105834 2.75167,-0.740834 0.24694,-0.388055 0.3175,-0.9525 0.21166,-1.234722 -0.14111,-0.388056 0.24695,-0.493889 1.86973,-0.493889 2.36361,0 2.50472,0.176389 2.50472,2.751667 0,1.5875 -0.0706,1.728611 -2.11667,3.316111 l -2.08139,1.693334 h -8.74889 -8.74889 l -2.11666,-1.693334 c -2.08139,-1.693333 -2.11667,-1.763889 -2.11667,-3.457222 0.0353,-0.9525 0.14111,-1.940278 0.3175,-2.187223 0.14111,-0.246944 1.02305,-0.423333 2.18722,-0.423333 1.76389,0 1.905,0.07056 1.905,0.811389 z"
       id="path11" />
    <path
       d="m 137.12472,50.464837 c -0.88194,0.917223 -0.9525,1.234723 -0.9525,3.845278 v 2.857501 l 2.78695,2.434166 2.82222,2.398889 v 6.52639 l 0.0353,6.526389 -3.175,3.175 -3.175,3.175001 v 2.469444 c 0,1.481667 0.17639,2.681111 0.42333,2.928056 0.3175,0.3175 4.23333,0.423333 15.45167,0.423333 17.39194,0 16.22778,0.246945 16.22778,-3.386667 v -2.081389 l -3.35139,-3.421944 -3.35139,-3.421945 v -6.314723 -6.35 l 2.82222,-2.398889 2.82222,-2.434167 v -3.033889 c 0,-2.822222 -0.0705,-3.069167 -0.98777,-3.951111 -0.88195,-0.846667 -1.23473,-0.9525 -3.63361,-0.9525 -2.96334,0 -4.30389,0.705555 -3.95112,2.116666 0.17639,0.599723 0.0353,0.705556 -0.91722,0.705556 -0.91722,0 -1.09361,-0.141111 -1.09361,-0.811389 0,-1.5875 -0.98778,-2.010833 -4.65667,-2.010833 -3.63361,0 -4.51555,0.423333 -4.51555,2.046111 0,0.599722 -0.21167,0.776111 -0.88195,0.776111 -0.70555,0 -0.88194,-0.176389 -0.88194,-0.811389 0,-1.516944 -1.02306,-2.010833 -4.09222,-2.010833 -2.64584,0 -2.89278,0.07055 -3.77473,0.987777 z m 5.75028,2.645834 c 0,1.27 0.67028,1.658056 2.8575,1.658056 2.68111,0 3.13972,-0.211667 3.13972,-1.446389 v -1.023056 h 2.46945 c 2.32833,0 2.46944,0.03528 2.46944,0.811389 0,1.305278 0.67028,1.658056 3.24556,1.658056 2.04611,0 2.43417,-0.105834 2.75167,-0.740834 0.24694,-0.388055 0.3175,-0.9525 0.21166,-1.234722 -0.14111,-0.388056 0.24695,-0.493889 1.86973,-0.493889 2.36361,0 2.50472,0.176389 2.50472,2.751667 0,1.5875 -0.0706,1.728611 -2.11667,3.316111 l -2.08139,1.693334 h -8.74889 -8.74889 l -2.11666,-1.693334 c -2.08139,-1.693333 -2.11667,-1.763889 -2.11667,-3.457222 0.0353,-0.9525 0.14111,-1.940278 0.3175,-2.187223 0.14111,-0.246944 1.02305,-0.423333 2.18722,-0.423333 1.76389,0 1.905,0.07056 1.905,0.811389 z m 15.875,15.063612 v 5.644445 l -7.26722,-0.07056 -7.23194,-0.105833 -0.0706,-5.573889 -0.0706,-5.538612 h 7.33778 7.3025 z m 2.36361,9.595556 c 1.02306,1.023056 1.86973,1.940278 1.86973,2.046111 0,0.105834 -5.18584,0.141112 -11.53584,0.07056 l -11.53583,-0.105833 1.905,-1.905 1.905,-1.940278 h 7.76111 7.76111 z m 4.33917,5.750278 v 1.234723 h -13.93472 -13.93473 v -1.234723 -1.234722 h 13.93473 13.93472 z"
       id="path10"
       style="stroke-width:0.0352778" />
  </g>
</svg>
