<?xml version="1.0" encoding="UTF-8" standalone="no"?>
<!-- Created with Inkscape (http://www.inkscape.org/) -->

<svg
   width="44.409119mm"
   height="41.275043mm"
   viewBox="0 0 44.409119 41.275043"
   version="1.1"
   id="svg1"
   inkscape:version="1.4 (86a8ad7, 2024-10-11)"
   sodipodi:docname="W_SG_Q.svg"
   xmlns:inkscape="http://www.inkscape.org/namespaces/inkscape"
   xmlns:sodipodi="http://sodipodi.sourceforge.net/DTD/sodipodi-0.dtd"
   xmlns="http://www.w3.org/2000/svg"
   xmlns:svg="http://www.w3.org/2000/svg">
  <sodipodi:namedview
     id="namedview1"
     pagecolor="#ffffff"
     bordercolor="#000000"
     borderopacity="0.25"
     inkscape:showpageshadow="2"
     inkscape:pageopacity="0.0"
     inkscape:pagecheckerboard="0"
     inkscape:deskcolor="#d1d1d1"
     inkscape:document-units="mm"
     inkscape:zoom="2.9540685"
     inkscape:cx="120.17325"
     inkscape:cy="82.090176"
     inkscape:window-width="1920"
     inkscape:window-height="1009"
     inkscape:window-x="307"
     inkscape:window-y="1072"
     inkscape:window-maximized="1"
     inkscape:current-layer="layer1" />
  <defs
     id="defs1" />
  <g
     inkscape:label="Layer 1"
     inkscape:groupmode="layer"
     id="layer1"
     transform="translate(-130.43957,-48.418736)">
    <path
       style="display:inline;stroke-width:0.0352778;fill:#ffffff;fill-opacity:1"
       d="m 161.73098,84.456797 c 1.41111,0.493889 1.72861,1.27 0.74084,1.799167 -1.83445,0.987778 -15.13417,1.164167 -18.69723,0.282222 -1.37583,-0.352778 -1.83444,-1.375833 -0.91722,-1.940278 1.34055,-0.846666 16.61583,-0.9525 18.87361,-0.141111 z"
       id="path10" />
    <path
       style="display:inline;stroke-width:0.0352778;fill:#ffffff;fill-opacity:1"
       d="m 160.49626,78.000963 c 2.36361,0.211667 2.39889,0.211667 2.11667,1.128889 -0.14111,0.493889 -0.24695,1.411112 -0.21167,1.975556 v 1.093611 l -1.76389,-0.246944 c -0.98778,-0.141111 -4.58611,-0.282222 -7.97278,-0.282222 -3.38666,0 -6.985,0.141111 -7.97278,0.282222 l -1.76389,0.246944 v -1.093611 c 0.0353,-0.564444 -0.10583,-1.481667 -0.24694,-2.010833 -0.24694,-0.917223 -0.21167,-0.9525 1.41111,-1.093612 3.03389,-0.211666 14.00528,-0.246944 16.40417,0 z"
       id="path9" />
    <path
       style="stroke-width:0.0352778;fill:#ffffff;fill-opacity:1"
       d="m 155.83959,72.81513 c 2.2225,0.211666 4.69195,0.529166 5.46806,0.740833 1.34055,0.352778 2.64583,1.199445 2.64583,1.728611 0,0.105834 -5.08,0.211667 -11.28889,0.246945 -6.20889,0 -11.28889,-0.105833 -11.28889,-0.282222 0,-0.458612 1.51695,-1.375834 2.99861,-1.799167 0.77612,-0.211667 2.68112,-0.493889 4.23334,-0.635 1.55222,-0.141111 2.89278,-0.282222 2.99861,-0.282222 0.10583,-0.03528 2.01083,0.105833 4.23333,0.282222 z"
       id="path8" />
    <path
       style="stroke-width:0.0352778;fill:#ffffff;fill-opacity:1"
       d="m 144.5507,61.773185 c 0,0.846666 2.11667,4.938889 3.42195,6.632222 l 1.27,1.693334 0.635,-0.846667 c 0.74083,-0.9525 2.43416,-5.926667 2.43416,-7.161389 0,-1.905 0.52917,-1.058334 1.27,2.010833 0.77612,3.245556 2.04612,6.067778 2.61056,5.715 0.67028,-0.423333 2.92806,-4.162778 4.05694,-6.702778 l 1.23473,-2.822222 v 2.293056 c 0,2.398889 0.81139,7.972778 1.19944,8.360833 0.10584,0.105834 1.65806,-1.234722 3.42195,-3.033889 1.76389,-1.763889 3.10444,-2.928055 2.99861,-2.610555 -0.10584,0.352777 -0.45861,1.834444 -0.77611,3.280833 -0.52917,2.504723 -1.34056,4.586112 -1.76389,4.586112 -0.0706,0 -0.81139,-0.352778 -1.62278,-0.740834 -5.29167,-2.716389 -18.20333,-2.751667 -24.16528,-0.105833 -1.44639,0.635 -2.08139,0.740833 -2.43417,0.458611 -0.24694,-0.176389 -0.77611,-1.834445 -1.19944,-3.598334 -0.38806,-1.799166 -0.81139,-3.4925 -0.91722,-3.845278 -0.10584,-0.3175 1.27,0.881945 3.03389,2.645834 1.76388,1.728611 3.28083,3.069167 3.38666,2.963333 0.38806,-0.388055 1.19945,-5.961944 1.19945,-8.360833 0,-1.622778 0.10583,-2.151945 0.35277,-1.763889 0.17639,0.282222 0.35278,0.740833 0.35278,0.9525 z"
       id="path7" />
    <path
       style="stroke-width:0.0352778;fill:#ffffff;fill-opacity:1"
       d="m 172.34959,56.657907 c 0.9525,0.9525 0.24695,2.751666 -1.02305,2.751666 -0.74084,0 -1.72861,-0.917222 -1.72861,-1.5875 0,-1.234722 1.86972,-2.046111 2.75166,-1.164166 z"
       id="path6" />
    <path
       style="stroke-width:0.0352778;fill:#ffffff;fill-opacity:1"
       d="m 134.95515,56.657907 c 0.70555,0.705555 0.52916,2.328333 -0.28223,2.575278 -1.30527,0.423333 -2.11666,-0.105834 -2.11666,-1.411112 0,-0.635 0.21166,-1.27 0.45861,-1.340555 0.77611,-0.3175 1.51694,-0.246945 1.94028,0.176389 z"
       id="path5" />
    <path
       style="display:inline;stroke-width:0.0352778;fill:#ffffff;fill-opacity:1"
       d="m 163.74182,52.459851 c 0.42333,0.3175 0.59972,0.811389 0.49388,1.481667 -0.10583,0.9525 -0.24694,1.058333 -1.30527,1.058333 -1.55223,0 -2.15195,-1.234722 -1.09362,-2.293056 0.81139,-0.811389 1.05834,-0.846667 1.90501,-0.246944 z"
       id="path4" />
    <path
       style="display:inline;stroke-width:0.0352778;fill:#ffffff;fill-opacity:1"
       d="m 143.2807,52.459851 c 0.42334,0.3175 0.59972,0.811389 0.49389,1.481667 -0.0705,0.881944 -0.28222,1.093611 -1.16417,1.164166 -0.67027,0.105834 -1.16416,-0.07055 -1.48166,-0.493889 -0.59972,-0.846666 -0.59972,-1.058333 0.24694,-1.905 0.84667,-0.846667 1.05834,-0.846667 1.905,-0.246944 z"
       id="path3" />
    <path
       style="display:inline;stroke-width:0.0352778;fill:#ffffff;fill-opacity:1"
       d="m 154.00515,51.507351 c 0.14111,1.340555 -0.635,2.081389 -1.86972,1.763889 -0.70556,-0.176389 -0.88195,-0.423334 -0.88195,-1.411112 0,-1.446388 0.24695,-1.693333 1.5875,-1.552222 0.88195,0.105834 1.05833,0.282222 1.16417,1.199445 z"
       id="path2" />
    <path
       d="m 150.15987,49.496517 c -1.16417,1.199445 -1.27,2.116667 -0.45861,4.303889 0.74083,2.010834 0.74083,6.985001 -0.0353,10.512779 -0.28222,1.446389 -0.59972,2.681111 -0.67028,2.751667 -0.17639,0.176389 -2.29305,-5.326945 -2.8575,-7.549445 -0.38805,-1.446389 -0.49389,-2.786945 -0.3175,-4.550834 0.21167,-2.293056 0.14111,-2.54 -0.70555,-3.563056 -2.2225,-2.645833 -6.20889,-1.27 -6.20889,2.187223 0,1.234722 0.21166,1.799166 1.09361,2.786944 0.56444,0.670278 1.19944,1.763889 1.41111,2.398889 0.35278,1.305278 0.42333,5.080001 0.10583,7.090834 l -0.24694,1.340556 -0.98778,-1.164167 c -2.32833,-2.645833 -2.92805,-4.1275 -2.8575,-6.738056 0.0706,-2.822222 -0.49389,-4.198056 -2.01083,-4.833056 -2.29306,-0.917222 -4.97417,0.917222 -4.97417,3.421945 0,0.987778 0.28222,1.552222 1.37583,2.645833 1.12889,1.093612 1.48167,1.799167 1.79917,3.386667 0.21167,1.093611 0.81139,3.880556 1.30528,6.20889 0.84667,3.774722 1.09361,4.303889 2.39889,5.820833 3.21028,3.598334 3.42194,4.268612 2.32833,6.808612 -0.98778,2.293055 -1.23472,4.198056 -0.635,5.009445 0.74083,1.023055 4.33917,1.622777 11.35945,1.869722 6.70277,0.211667 12.73528,-0.246945 14.88722,-1.128889 1.19944,-0.493889 1.34056,-0.881945 1.16417,-3.175 -0.0353,-0.564445 -0.38806,-1.622778 -0.74084,-2.363612 -1.23472,-2.434166 -0.98777,-3.139722 2.36361,-7.267222 1.51695,-1.834445 2.29306,-4.374445 3.4925,-11.147779 0.38806,-2.2225 0.59973,-2.681111 1.94028,-4.021667 1.37584,-1.375833 1.48167,-1.5875 1.30528,-2.928055 -0.35278,-2.716389 -3.06917,-4.268612 -5.11528,-2.928056 -1.5875,1.023056 -1.83444,1.5875 -1.79916,4.233333 0.0706,2.786945 -0.52917,4.268612 -2.61056,6.773334 -1.16417,1.375834 -1.23472,1.411111 -1.44639,0.670278 -0.35278,-1.340556 -0.24694,-6.420556 0.17639,-7.690556 0.24694,-0.670278 0.88194,-1.834445 1.41111,-2.575278 1.34056,-1.834444 1.34056,-3.386667 0.0353,-4.833056 -0.84667,-0.917222 -1.27,-1.128889 -2.54,-1.128889 -1.30528,0 -1.69334,0.176389 -2.57528,1.164167 -0.98778,1.128889 -1.02306,1.27 -0.81139,3.527778 0.24695,2.751667 -0.52917,6.314723 -2.18722,10.089445 -1.19945,2.681111 -1.16417,2.681111 -2.01083,-2.116667 -0.70556,-4.092222 -0.67028,-5.185833 0.21166,-8.501945 0.59972,-2.293055 0.635,-2.928055 0.28222,-3.774722 -0.9525,-2.293056 -3.84527,-2.822223 -5.64444,-1.023056 z m 3.84528,2.010834 c 0.14111,1.340555 -0.635,2.081389 -1.86972,1.763889 -0.70556,-0.176389 -0.88195,-0.423334 -0.88195,-1.411112 0,-1.446388 0.24695,-1.693333 1.5875,-1.552222 0.88195,0.105834 1.05833,0.282222 1.16417,1.199445 z m -10.72445,0.9525 c 0.42334,0.3175 0.59972,0.811389 0.49389,1.481667 -0.0705,0.881944 -0.28222,1.093611 -1.16417,1.164166 -0.67027,0.105834 -1.16416,-0.07055 -1.48166,-0.493889 -0.59972,-0.846666 -0.59972,-1.058333 0.24694,-1.905 0.84667,-0.846667 1.05834,-0.846667 1.905,-0.246944 z m 20.46112,0 c 0.42333,0.3175 0.59972,0.811389 0.49388,1.481667 -0.10583,0.9525 -0.24694,1.058333 -1.30527,1.058333 -1.55223,0 -2.15195,-1.234722 -1.09362,-2.293056 0.81139,-0.811389 1.05834,-0.846667 1.90501,-0.246944 z m -28.78667,4.198056 c 0.70555,0.705555 0.52916,2.328333 -0.28223,2.575278 -1.30527,0.423333 -2.11666,-0.105834 -2.11666,-1.411112 0,-0.635 0.21166,-1.27 0.45861,-1.340555 0.77611,-0.3175 1.51694,-0.246945 1.94028,0.176389 z m 37.39444,0 c 0.9525,0.9525 0.24695,2.751666 -1.02305,2.751666 -0.74084,0 -1.72861,-0.917222 -1.72861,-1.5875 0,-1.234722 1.86972,-2.046111 2.75166,-1.164166 z m -27.79889,5.115278 c 0,0.846666 2.11667,4.938889 3.42195,6.632222 l 1.27,1.693334 0.635,-0.846667 c 0.74083,-0.9525 2.43416,-5.926667 2.43416,-7.161389 0,-1.905 0.52917,-1.058334 1.27,2.010833 0.77612,3.245556 2.04612,6.067778 2.61056,5.715 0.67028,-0.423333 2.92806,-4.162778 4.05694,-6.702778 l 1.23473,-2.822222 v 2.293056 c 0,2.398889 0.81139,7.972778 1.19944,8.360833 0.10584,0.105834 1.65806,-1.234722 3.42195,-3.033889 1.76389,-1.763889 3.10444,-2.928055 2.99861,-2.610555 -0.10584,0.352777 -0.45861,1.834444 -0.77611,3.280833 -0.52917,2.504723 -1.34056,4.586112 -1.76389,4.586112 -0.0706,0 -0.81139,-0.352778 -1.62278,-0.740834 -5.29167,-2.716389 -18.20333,-2.751667 -24.16528,-0.105833 -1.44639,0.635 -2.08139,0.740833 -2.43417,0.458611 -0.24694,-0.176389 -0.77611,-1.834445 -1.19944,-3.598334 -0.38806,-1.799166 -0.81139,-3.4925 -0.91722,-3.845278 -0.10584,-0.3175 1.27,0.881945 3.03389,2.645834 1.76388,1.728611 3.28083,3.069167 3.38666,2.963333 0.38806,-0.388055 1.19945,-5.961944 1.19945,-8.360833 0,-1.622778 0.10583,-2.151945 0.35277,-1.763889 0.17639,0.282222 0.35278,0.740833 0.35278,0.9525 z m 11.28889,11.041945 c 2.2225,0.211666 4.69195,0.529166 5.46806,0.740833 1.34055,0.352778 2.64583,1.199445 2.64583,1.728611 0,0.105834 -5.08,0.211667 -11.28889,0.246945 -6.20889,0 -11.28889,-0.105833 -11.28889,-0.282222 0,-0.458612 1.51695,-1.375834 2.99861,-1.799167 0.77612,-0.211667 2.68112,-0.493889 4.23334,-0.635 1.55222,-0.141111 2.89278,-0.282222 2.99861,-0.282222 0.10583,-0.03528 2.01083,0.105833 4.23333,0.282222 z m 4.65667,5.185833 c 2.36361,0.211667 2.39889,0.211667 2.11667,1.128889 -0.14111,0.493889 -0.24695,1.411112 -0.21167,1.975556 v 1.093611 l -1.76389,-0.246944 c -0.98778,-0.141111 -4.58611,-0.282222 -7.97278,-0.282222 -3.38666,0 -6.985,0.141111 -7.97278,0.282222 l -1.76389,0.246944 v -1.093611 c 0.0353,-0.564444 -0.10583,-1.481667 -0.24694,-2.010833 -0.24694,-0.917223 -0.21167,-0.9525 1.41111,-1.093612 3.03389,-0.211666 14.00528,-0.246944 16.40417,0 z m 1.23472,6.455834 c 1.41111,0.493889 1.72861,1.27 0.74084,1.799167 -1.83445,0.987778 -15.13417,1.164167 -18.69723,0.282222 -1.37583,-0.352778 -1.83444,-1.375833 -0.91722,-1.940278 1.34055,-0.846666 16.61583,-0.9525 18.87361,-0.141111 z"
       id="path1"
       style="display:inline;stroke-width:0.0352778" />
  </g>
</svg>
