<svg
            id="lascaBoard"
            xmlns="http://www.w3.org/2000/svg"
            viewBox="0 0 1000 1000"
            aria-label="Lasca board"
          >
            <defs id="lascaDefs">
              <!-- Theme defs are replaced when switching themes -->
              <g id="lascaThemeDefs"></g>

              <!-- Runtime defs are owned by the app (clipPaths, temporary effects, etc.) -->
              <g id="lascaRuntimeDefs"></g>
            </defs>

            <g id="bgFill">
              <rect x="0" y="0" width="1000" height="1000" fill="#e8ddcc" />
              <rect
                x="60"
                y="60"
                width="880"
                height="880"
                fill="#e8ddcc"
                opacity="0.70"
              />
            </g>

            <g id="frame">
              <rect
                x="6"
                y="6"
                width="988"
                height="988"
                fill="none"
                stroke="#000"
                stroke-opacity="0.15"
                stroke-width="12"
              />
            </g>

            <g
              id="connectors"
              stroke="#404040"
              stroke-width="16"
              stroke-linecap="round"
              stroke-linejoin="round"
            >
              <line x1="140" y1="140" x2="260" y2="260" />
              <line x1="380" y1="140" x2="260" y2="260" />
              <line x1="380" y1="140" x2="500" y2="260" />
              <line x1="620" y1="140" x2="500" y2="260" />
              <line x1="620" y1="140" x2="740" y2="260" />
              <line x1="860" y1="140" x2="740" y2="260" />

              <line x1="260" y1="260" x2="140" y2="380" />
              <line x1="260" y1="260" x2="380" y2="380" />
              <line x1="500" y1="260" x2="380" y2="380" />
              <line x1="500" y1="260" x2="620" y2="380" />
              <line x1="740" y1="260" x2="620" y2="380" />
              <line x1="740" y1="260" x2="860" y2="380" />

              <line x1="140" y1="380" x2="260" y2="500" />
              <line x1="380" y1="380" x2="260" y2="500" />
              <line x1="380" y1="380" x2="500" y2="500" />
              <line x1="620" y1="380" x2="500" y2="500" />
              <line x1="620" y1="380" x2="740" y2="500" />
              <line x1="860" y1="380" x2="740" y2="500" />

              <line x1="260" y1="500" x2="140" y2="620" />
              <line x1="260" y1="500" x2="380" y2="620" />
              <line x1="500" y1="500" x2="380" y2="620" />
              <line x1="500" y1="500" x2="620" y2="620" />
              <line x1="740" y1="500" x2="620" y2="620" />
              <line x1="740" y1="500" x2="860" y2="620" />

              <line x1="140" y1="620" x2="260" y2="740" />
              <line x1="380" y1="620" x2="260" y2="740" />
              <line x1="380" y1="620" x2="500" y2="740" />
              <line x1="620" y1="620" x2="500" y2="740" />
              <line x1="620" y1="620" x2="740" y2="740" />
              <line x1="860" y1="620" x2="740" y2="740" />

              <line x1="260" y1="740" x2="140" y2="860" />
              <line x1="260" y1="740" x2="380" y2="860" />
              <line x1="500" y1="740" x2="380" y2="860" />
              <line x1="500" y1="740" x2="620" y2="860" />
              <line x1="740" y1="740" x2="620" y2="860" />
              <line x1="740" y1="740" x2="860" y2="860" />
            </g>

            <g id="nodes" fill="transparent" stroke="#404040" stroke-width="8" pointer-events="all">
              <circle id="r0c0" cx="140" cy="140" r="46" />
              <circle id="r0c2" cx="380" cy="140" r="46" />
              <circle id="r0c4" cx="620" cy="140" r="46" />
              <circle id="r0c6" cx="860" cy="140" r="46" />

              <circle id="r1c1" cx="260" cy="260" r="46" />
              <circle id="r1c3" cx="500" cy="260" r="46" />
              <circle id="r1c5" cx="740" cy="260" r="46" />

              <circle id="r2c0" cx="140" cy="380" r="46" />
              <circle id="r2c2" cx="380" cy="380" r="46" />
              <circle id="r2c4" cx="620" cy="380" r="46" />
              <circle id="r2c6" cx="860" cy="380" r="46" />

              <circle id="r3c1" cx="260" cy="500" r="46" />
              <circle id="r3c3" cx="500" cy="500" r="46" />
              <circle id="r3c5" cx="740" cy="500" r="46" />

              <circle id="r4c0" cx="140" cy="620" r="46" />
              <circle id="r4c2" cx="380" cy="620" r="46" />
              <circle id="r4c4" cx="620" cy="620" r="46" />
              <circle id="r4c6" cx="860" cy="620" r="46" />

              <circle id="r5c1" cx="260" cy="740" r="46" />
              <circle id="r5c3" cx="500" cy="740" r="46" />
              <circle id="r5c5" cx="740" cy="740" r="46" />

              <circle id="r6c0" cx="140" cy="860" r="46" />
              <circle id="r6c2" cx="380" cy="860" r="46" />
              <circle id="r6c4" cx="620" cy="860" r="46" />
              <circle id="r6c6" cx="860" cy="860" r="46" />
            </g>

            <g id="pieces"></g>
          </svg>
