<?xml version="1.0" encoding="UTF-8"?>
<svg xmlns="http://www.w3.org/2000/svg" viewBox="0 0 1 1" aria-hidden="true">
  <defs>
    <!--
      Candy theme: a permissive SVG piece set, with OPTIONAL local SVG overrides.

      How it works:
      - The base pieces are SVG-only and safe to commit/deploy (GitHub Pages, etc).
      - If you place SVGs under /public/pieces/candy/*.svg, they will render on top.
      - If an override is missing, the built-in SVG fallback stays visible.

      Optional local SVG filenames (relative to site root):
        pieces/candy/wp.svg pieces/candy/wn.svg pieces/candy/wb.svg pieces/candy/wr.svg pieces/candy/wq.svg pieces/candy/wk.svg
        pieces/candy/bp.svg pieces/candy/bn.svg pieces/candy/bb.svg pieces/candy/br.svg pieces/candy/bq.svg pieces/candy/bk.svg
    -->

    <radialGradient id="neoDiscW" cx="35%" cy="30%" r="70%">
      <stop offset="0%" stop-color="#fffdfd" />
      <stop offset="55%" stop-color="#fff7fb" />
      <stop offset="100%" stop-color="#f0d0e1" />
    </radialGradient>

    <radialGradient id="neoDiscB" cx="35%" cy="30%" r="70%">
      <stop offset="0%" stop-color="#c8b3ff" />
      <stop offset="55%" stop-color="#8c71f7" />
      <stop offset="100%" stop-color="#5c43bd" />
    </radialGradient>

    <style>
      .neoDiscStrokeW { stroke: #c45a79; stroke-width: 6; }
      .neoDiscStrokeB { stroke: #f7ecff; stroke-width: 6; }

      .neoInnerRingW { stroke: #c45a79; stroke-opacity: 0.16; stroke-width: 3; fill: none; }
      .neoInnerRingB { stroke: #f7ecff; stroke-opacity: 0.14; stroke-width: 3; fill: none; }

      /*
        Important UX: in the rest of the app, owner "W" should look like the
        light side and owner "B" should look like the dark side.
      */
      .neoPieceW {
        fill: #fff7fb;
        stroke: #c45a79;
        stroke-width: 3;
        stroke-linejoin: round;
        paint-order: stroke fill;
        color: #c45a79; /* used by currentColor strokes (if any) */
      }
      .neoPieceB {
        fill: #8166f0;
        stroke: #f7ecff;
        stroke-width: 3;
        stroke-linejoin: round;
        paint-order: stroke fill;
        color: #f7ecff;
      }

      .neoCut { stroke: none; }
      .neoPieceW .neoCut { fill: #a64066; }
      .neoPieceB .neoCut { fill: #f7ecff; }

      .rasterPiece {
        image-rendering: auto;
      }
    </style>

    <symbol id="neoDiscW" viewBox="0 0 100 100">
      <circle cx="50" cy="50" r="43" fill="url(#neoDiscW)" class="neoDiscStrokeW" />
      <circle cx="50" cy="50" r="33" class="neoInnerRingW" />
      <ellipse cx="40" cy="36" rx="18" ry="12" fill="#f7ecff" opacity="0.28" />
    </symbol>

    <symbol id="neoDiscB" viewBox="0 0 100 100">
      <circle cx="50" cy="50" r="43" fill="url(#neoDiscB)" class="neoDiscStrokeB" />
      <circle cx="50" cy="50" r="33" class="neoInnerRingB" />
      <ellipse cx="40" cy="36" rx="18" ry="12" fill="#f7ecff" opacity="0.10" />
    </symbol>

    <!-- Simple, modern silhouettes. These are intentionally original (not traced). -->
    <symbol id="neoPawn" viewBox="0 0 100 100">
      <circle cx="50" cy="33" r="10" />
      <path d="M38 46 C38 41 42 38 50 38 C58 38 62 41 62 46 L62 50 C62 55 59 60 56 63 C64 65 70 70 70 76 L30 76 C30 70 36 65 44 63 C41 60 38 55 38 50 Z" />
      <rect x="30" y="76" width="40" height="8" rx="4" />
    </symbol>

    <symbol id="neoRook" viewBox="0 0 100 100">
      <path d="M32 30 H40 V38 H46 V30 H54 V38 H60 V30 H68 V46 H64 V76 H36 V46 H32 Z" />
      <rect x="30" y="76" width="40" height="8" rx="4" />
    </symbol>

    <!-- Bishop notch is a real cutout (mask) matching the original slash geometry. -->
    <mask id="neoBishopNotchMask" maskUnits="userSpaceOnUse" x="0" y="0" width="100" height="100">
      <rect x="0" y="0" width="100" height="100" fill="white" />
      <!-- Cut out exactly what the (former) slash stroke covered: thin + rounded caps. -->
      <path d="M46 38 L60 52" stroke="black" stroke-width="6" stroke-linecap="round" fill="none" />
    </mask>

    <symbol id="neoBishop" viewBox="0 0 100 100">
      <g mask="url(#neoBishopNotchMask)">
        <path d="M50 24 C42 28 40 34 40 38 C40 45 45 49 50 54 C55 49 60 45 60 38 C60 34 58 28 50 24 Z" />
        <path d="M50 56 C41 62 34 67 34 76 H66 C66 67 59 62 50 56 Z" />
        <rect x="30" y="76" width="40" height="8" rx="4" />
      </g>
    </symbol>

    <symbol id="neoKnight" viewBox="0 0 100 100">
      <path d="M34 74 C34 62 38 52 45 44 C41 40 40 34 44 30 C50 24 64 26 70 34 C64 36 60 40 58 44 C64 48 66 56 66 74 H34 Z" />
      <circle cx="58" cy="38" r="3" class="neoCut" />
      <rect x="30" y="76" width="40" height="8" rx="4" />
    </symbol>

    <symbol id="neoQueen" viewBox="0 0 100 100">
      <path d="M32 40 L40 30 L50 42 L60 30 L68 40 L62 74 H38 Z" />
      <circle cx="40" cy="28" r="4" />
      <circle cx="50" cy="26" r="4" />
      <circle cx="60" cy="28" r="4" />
      <rect x="30" y="76" width="40" height="8" rx="4" />
    </symbol>

    <symbol id="neoKing" viewBox="0 0 100 100">
      <rect x="47" y="22" width="6" height="14" rx="3" />
      <rect x="43" y="26" width="14" height="6" rx="3" />
      <path d="M38 40 C38 34 43 30 50 30 C57 30 62 34 62 40 L62 52 C62 58 59 62 56 65 C64 67 70 70 70 76 L30 76 C30 70 36 67 44 65 C41 62 38 58 38 52 Z" />
      <rect x="30" y="76" width="40" height="8" rx="4" />
    </symbol>

    <!-- ===== SVG fallbacks (used when PNGs are absent) ===== -->
    <symbol id="fallbackW_P" viewBox="0 0 100 100"><use href="#neoDiscW" /><g class="neoPieceW"><use href="#neoPawn" /></g></symbol>
    <symbol id="fallbackW_N" viewBox="0 0 100 100"><use href="#neoDiscW" /><g class="neoPieceW"><use href="#neoKnight" /></g></symbol>
    <symbol id="fallbackW_B" viewBox="0 0 100 100"><use href="#neoDiscW" /><g class="neoPieceW"><use href="#neoBishop" /></g></symbol>
    <symbol id="fallbackW_R" viewBox="0 0 100 100"><use href="#neoDiscW" /><g class="neoPieceW"><use href="#neoRook" /></g></symbol>
    <symbol id="fallbackW_Q" viewBox="0 0 100 100"><use href="#neoDiscW" /><g class="neoPieceW"><use href="#neoQueen" /></g></symbol>
    <symbol id="fallbackW_K" viewBox="0 0 100 100"><use href="#neoDiscW" /><g class="neoPieceW"><use href="#neoKing" /></g></symbol>

    <symbol id="fallbackB_P" viewBox="0 0 100 100"><use href="#neoDiscB" /><g class="neoPieceB"><use href="#neoPawn" /></g></symbol>
    <symbol id="fallbackB_N" viewBox="0 0 100 100"><use href="#neoDiscB" /><g class="neoPieceB"><use href="#neoKnight" /></g></symbol>
    <symbol id="fallbackB_B" viewBox="0 0 100 100"><use href="#neoDiscB" /><g class="neoPieceB"><use href="#neoBishop" /></g></symbol>
    <symbol id="fallbackB_R" viewBox="0 0 100 100"><use href="#neoDiscB" /><g class="neoPieceB"><use href="#neoRook" /></g></symbol>
    <symbol id="fallbackB_Q" viewBox="0 0 100 100"><use href="#neoDiscB" /><g class="neoPieceB"><use href="#neoQueen" /></g></symbol>
    <symbol id="fallbackB_K" viewBox="0 0 100 100"><use href="#neoDiscB" /><g class="neoPieceB"><use href="#neoKing" /></g></symbol>

    <symbol id="fallbackW_S" viewBox="0 0 100 100"><use href="#neoDiscW" /><g class="neoPieceW"><use href="#neoPawn" /></g></symbol>
    <symbol id="fallbackB_S" viewBox="0 0 100 100"><use href="#neoDiscB" /><g class="neoPieceB"><use href="#neoPawn" /></g></symbol>
    <symbol id="fallbackW_O" viewBox="0 0 100 100"><use href="#neoDiscW" /><g class="neoPieceW"><use href="#neoKnight" /></g></symbol>
    <symbol id="fallbackB_O" viewBox="0 0 100 100"><use href="#neoDiscB" /><g class="neoPieceB"><use href="#neoKnight" /></g></symbol>

    <!-- ===== Final symbols (PNG over fallback when available) ===== -->
    <symbol id="W_P" viewBox="0 0 100 100"><use href="#fallbackW_P" /><image class="rasterPiece" href="pieces/candy/wp.svg" x="0" y="0" width="100" height="100" preserveAspectRatio="xMidYMid meet" /></symbol>
    <symbol id="W_N" viewBox="0 0 100 100"><use href="#fallbackW_N" /><image class="rasterPiece" href="pieces/candy/wn.svg" x="0" y="0" width="100" height="100" preserveAspectRatio="xMidYMid meet" /></symbol>
    <symbol id="W_B" viewBox="0 0 100 100"><use href="#fallbackW_B" /><image class="rasterPiece" href="pieces/candy/wb.svg" x="0" y="0" width="100" height="100" preserveAspectRatio="xMidYMid meet" /></symbol>
    <symbol id="W_R" viewBox="0 0 100 100"><use href="#fallbackW_R" /><image class="rasterPiece" href="pieces/candy/wr.svg" x="0" y="0" width="100" height="100" preserveAspectRatio="xMidYMid meet" /></symbol>
    <symbol id="W_Q" viewBox="0 0 100 100"><use href="#fallbackW_Q" /><image class="rasterPiece" href="pieces/candy/wq.svg" x="0" y="0" width="100" height="100" preserveAspectRatio="xMidYMid meet" /></symbol>
    <symbol id="W_K" viewBox="0 0 100 100"><use href="#fallbackW_K" /><image class="rasterPiece" href="pieces/candy/wk.svg" x="0" y="0" width="100" height="100" preserveAspectRatio="xMidYMid meet" /></symbol>

    <symbol id="B_P" viewBox="0 0 100 100"><use href="#fallbackB_P" /><image class="rasterPiece" href="pieces/candy/bp.svg" x="0" y="0" width="100" height="100" preserveAspectRatio="xMidYMid meet" /></symbol>
    <symbol id="B_N" viewBox="0 0 100 100"><use href="#fallbackB_N" /><image class="rasterPiece" href="pieces/candy/bn.svg" x="0" y="0" width="100" height="100" preserveAspectRatio="xMidYMid meet" /></symbol>
    <symbol id="B_B" viewBox="0 0 100 100"><use href="#fallbackB_B" /><image class="rasterPiece" href="pieces/candy/bb.svg" x="0" y="0" width="100" height="100" preserveAspectRatio="xMidYMid meet" /></symbol>
    <symbol id="B_R" viewBox="0 0 100 100"><use href="#fallbackB_R" /><image class="rasterPiece" href="pieces/candy/br.svg" x="0" y="0" width="100" height="100" preserveAspectRatio="xMidYMid meet" /></symbol>
    <symbol id="B_Q" viewBox="0 0 100 100"><use href="#fallbackB_Q" /><image class="rasterPiece" href="pieces/candy/bq.svg" x="0" y="0" width="100" height="100" preserveAspectRatio="xMidYMid meet" /></symbol>
    <symbol id="B_K" viewBox="0 0 100 100"><use href="#fallbackB_K" /><image class="rasterPiece" href="pieces/candy/bk.svg" x="0" y="0" width="100" height="100" preserveAspectRatio="xMidYMid meet" /></symbol>

    <symbol id="W_S" viewBox="0 0 100 100"><use href="#fallbackW_S" /></symbol>
    <symbol id="B_S" viewBox="0 0 100 100"><use href="#fallbackB_S" /></symbol>
    <symbol id="W_O" viewBox="0 0 100 100"><use href="#fallbackW_O" /></symbol>
    <symbol id="B_O" viewBox="0 0 100 100"><use href="#fallbackB_O" /></symbol>
  </defs>
</svg>
