<?xml version="1.0" encoding="UTF-8"?>
<svg xmlns="http://www.w3.org/2000/svg" viewBox="0 0 1 1" aria-hidden="true">
  <defs>
    <!--
      Candy theme: a permissive SVG piece set, with OPTIONAL local SVG overrides.

      How it works:
      - The base pieces are SVG-only and safe to commit/deploy (GitHub Pages, etc).
      - If you place SVGs under /public/pieces/candy/*.svg, they will render on top.
      - If an override is missing, the built-in SVG fallback stays visible.

      Optional local SVG filenames (relative to site root):
        pieces/candy/wp.svg pieces/candy/wn.svg pieces/candy/wb.svg pieces/candy/wr.svg pieces/candy/wq.svg pieces/candy/wk.svg
        pieces/candy/bp.svg pieces/candy/bn.svg pieces/candy/bb.svg pieces/candy/br.svg pieces/candy/bq.svg pieces/candy/bk.svg
    -->

    <radialGradient id="candyDiscLightFill" cx="34%" cy="24%" r="74%">
      <stop offset="0%" stop-color="#fffefd" />
      <stop offset="26%" stop-color="#fff7fb" />
      <stop offset="62%" stop-color="#ffd8c8" />
      <stop offset="100%" stop-color="#cf6d84" />
    </radialGradient>

    <radialGradient id="candyDiscDarkFill" cx="34%" cy="24%" r="74%">
      <stop offset="0%" stop-color="#f4eeff" />
      <stop offset="28%" stop-color="#ddccff" />
      <stop offset="64%" stop-color="#9a7fe7" />
      <stop offset="100%" stop-color="#5c45b8" />
    </radialGradient>

    <radialGradient id="candyDomeLight" cx="37%" cy="28%" r="58%">
      <stop offset="0%" stop-color="#ffffff" stop-opacity="0.96" />
      <stop offset="45%" stop-color="#ffeef7" stop-opacity="0.72" />
      <stop offset="100%" stop-color="#ffffff" stop-opacity="0" />
    </radialGradient>

    <radialGradient id="candyDomeDark" cx="37%" cy="28%" r="58%">
      <stop offset="0%" stop-color="#ffffff" stop-opacity="0.84" />
      <stop offset="45%" stop-color="#efe7ff" stop-opacity="0.44" />
      <stop offset="100%" stop-color="#ffffff" stop-opacity="0" />
    </radialGradient>

    <linearGradient id="candyStripeLight" x1="18%" y1="18%" x2="84%" y2="84%">
      <stop offset="0%" stop-color="#ffffff" stop-opacity="0.76" />
      <stop offset="42%" stop-color="#ffd6e6" stop-opacity="0.34" />
      <stop offset="100%" stop-color="#ffffff" stop-opacity="0" />
    </linearGradient>

    <linearGradient id="candyStripeDark" x1="18%" y1="18%" x2="84%" y2="84%">
      <stop offset="0%" stop-color="#ffffff" stop-opacity="0.54" />
      <stop offset="42%" stop-color="#e5dcff" stop-opacity="0.28" />
      <stop offset="100%" stop-color="#ffffff" stop-opacity="0" />
    </linearGradient>

    <radialGradient id="candySpecularCoreLight" cx="30%" cy="24%" r="24%">
      <stop offset="0%" stop-color="#ffffff" stop-opacity="0.98" />
      <stop offset="48%" stop-color="#ffffff" stop-opacity="0.72" />
      <stop offset="100%" stop-color="#ffffff" stop-opacity="0" />
    </radialGradient>

    <radialGradient id="candySpecularCoreDark" cx="30%" cy="24%" r="24%">
      <stop offset="0%" stop-color="#ffffff" stop-opacity="0.88" />
      <stop offset="48%" stop-color="#ffffff" stop-opacity="0.54" />
      <stop offset="100%" stop-color="#ffffff" stop-opacity="0" />
    </radialGradient>

    <linearGradient id="candySpecularBandLight" x1="18%" y1="20%" x2="70%" y2="56%">
      <stop offset="0%" stop-color="#ffffff" stop-opacity="0.84" />
      <stop offset="35%" stop-color="#ffffff" stop-opacity="0.50" />
      <stop offset="100%" stop-color="#ffffff" stop-opacity="0" />
    </linearGradient>

    <linearGradient id="candySpecularBandDark" x1="18%" y1="20%" x2="70%" y2="56%">
      <stop offset="0%" stop-color="#ffffff" stop-opacity="0.66" />
      <stop offset="35%" stop-color="#ffffff" stop-opacity="0.36" />
      <stop offset="100%" stop-color="#ffffff" stop-opacity="0" />
    </linearGradient>

    <linearGradient id="candyRimGlossLight" x1="50%" y1="58%" x2="50%" y2="100%">
      <stop offset="0%" stop-color="#ffffff" stop-opacity="0" />
      <stop offset="68%" stop-color="#ffffff" stop-opacity="0.10" />
      <stop offset="100%" stop-color="#ffffff" stop-opacity="0.34" />
    </linearGradient>

    <linearGradient id="candyRimGlossDark" x1="50%" y1="58%" x2="50%" y2="100%">
      <stop offset="0%" stop-color="#ffffff" stop-opacity="0" />
      <stop offset="68%" stop-color="#ffffff" stop-opacity="0.08" />
      <stop offset="100%" stop-color="#ffffff" stop-opacity="0.24" />
    </linearGradient>

    <radialGradient id="candyOuterShellLight" cx="34%" cy="24%" r="78%">
      <stop offset="0%" stop-color="#ff9ad0" />
      <stop offset="48%" stop-color="#ff69b5" />
      <stop offset="100%" stop-color="#c62b7f" />
    </radialGradient>

    <radialGradient id="candyOuterShellDark" cx="34%" cy="24%" r="78%">
      <stop offset="0%" stop-color="#cab3ff" />
      <stop offset="48%" stop-color="#8b5cf6" />
      <stop offset="100%" stop-color="#5930d2" />
    </radialGradient>

    <linearGradient id="candyBezelLight" x1="18%" y1="18%" x2="82%" y2="86%">
      <stop offset="0%" stop-color="#ffd9ea" />
      <stop offset="35%" stop-color="#ff8fca" />
      <stop offset="72%" stop-color="#ff5cab" />
      <stop offset="100%" stop-color="#b41f6d" />
    </linearGradient>

    <linearGradient id="candyBezelDark" x1="18%" y1="18%" x2="82%" y2="86%">
      <stop offset="0%" stop-color="#e7dbff" />
      <stop offset="35%" stop-color="#b794ff" />
      <stop offset="72%" stop-color="#8354f2" />
      <stop offset="100%" stop-color="#5028c5" />
    </linearGradient>

    <radialGradient id="candyLensLight" cx="34%" cy="20%" r="82%">
      <stop offset="0%" stop-color="#fffefe" />
      <stop offset="32%" stop-color="#ffe9f5" />
      <stop offset="72%" stop-color="#ff8dca" />
      <stop offset="100%" stop-color="#ee4aa2" />
    </radialGradient>

    <radialGradient id="candyLensDark" cx="34%" cy="20%" r="82%">
      <stop offset="0%" stop-color="#fcfbff" />
      <stop offset="32%" stop-color="#ede5ff" />
      <stop offset="72%" stop-color="#a77bff" />
      <stop offset="100%" stop-color="#7842f0" />
    </radialGradient>

    <linearGradient id="candyInnerRimLight" x1="20%" y1="18%" x2="80%" y2="86%">
      <stop offset="0%" stop-color="#fff7fb" stop-opacity="0.95" />
      <stop offset="40%" stop-color="#ffb6da" stop-opacity="0.62" />
      <stop offset="100%" stop-color="#8e1454" stop-opacity="0.95" />
    </linearGradient>

    <linearGradient id="candyInnerRimDark" x1="20%" y1="18%" x2="80%" y2="86%">
      <stop offset="0%" stop-color="#f6f0ff" stop-opacity="0.95" />
      <stop offset="40%" stop-color="#cdb6ff" stop-opacity="0.58" />
      <stop offset="100%" stop-color="#4520b7" stop-opacity="0.96" />
    </linearGradient>

    <linearGradient id="candyTopGlassLight" x1="22%" y1="14%" x2="76%" y2="72%">
      <stop offset="0%" stop-color="#ffffff" stop-opacity="0.88" />
      <stop offset="36%" stop-color="#ffffff" stop-opacity="0.42" />
      <stop offset="100%" stop-color="#ffffff" stop-opacity="0" />
    </linearGradient>

    <linearGradient id="candyTopGlassDark" x1="22%" y1="14%" x2="76%" y2="72%">
      <stop offset="0%" stop-color="#ffffff" stop-opacity="0.78" />
      <stop offset="36%" stop-color="#ffffff" stop-opacity="0.30" />
      <stop offset="100%" stop-color="#ffffff" stop-opacity="0" />
    </linearGradient>

    <style>
      .candyDiscLightStroke { stroke: #b84c70; stroke-width: 6; }
      .candyDiscDarkStroke { stroke: #f3ecff; stroke-width: 6; }

      .candyInnerRingLight { stroke: #b84c70; stroke-opacity: 0.22; stroke-width: 2.8; fill: none; }
      .candyInnerRingDark { stroke: #f3ecff; stroke-opacity: 0.22; stroke-width: 2.8; fill: none; }

      /*
        Important UX: in the rest of the app, owner "W" should look like the
        light side and owner "B" should look like the dark side.
      */
      .neoPieceW {
        fill: #fff7fb;
        stroke: #b84c70;
        stroke-width: 3;
        stroke-linejoin: round;
        paint-order: stroke fill;
        color: #b84c70; /* used by currentColor strokes (if any) */
      }
      .neoPieceB {
        fill: #7d62d4;
        stroke: #f3ecff;
        stroke-width: 3;
        stroke-linejoin: round;
        paint-order: stroke fill;
        color: #f3ecff;
      }

      .neoCut { stroke: none; }
      .neoPieceW .neoCut { fill: #a64066; }
      .neoPieceB .neoCut { fill: #f7ecff; }

      .candyBadgeLight {
        fill: #fffafc;
        stroke: #b84c70;
        stroke-width: 2.8;
      }

      .candyBadgeDark {
        fill: #efe8ff;
        stroke: #f3ecff;
        stroke-width: 2.8;
      }

      .candyBadgeAccentLight {
        fill: #cf6d84;
        stroke: #b84c70;
        stroke-width: 1.8;
      }

      .candyBadgeAccentDark {
        fill: #5c45b8;
        stroke: #f3ecff;
        stroke-width: 1.8;
      }

      .candyOfficerMarkLight {
        fill: #8e1454;
        stroke: #fff4fa;
        stroke-width: 2.2;
        stroke-linejoin: round;
      }

      .candyOfficerMarkDark {
        fill: #4520b7;
        stroke: #fbf8ff;
        stroke-width: 2.2;
        stroke-linejoin: round;
      }

      .candyKingMarkLight {
        fill: #8e1454;
        stroke: #fff4fa;
        stroke-width: 2.4;
        stroke-linejoin: round;
      }

      .candyKingMarkDark {
        fill: #4520b7;
        stroke: #fbf8ff;
        stroke-width: 2.4;
        stroke-linejoin: round;
      }

      .rasterPiece {
        image-rendering: auto;
      }
    </style>

    <symbol id="neoDiscW" viewBox="0 0 100 100">
      <ellipse cx="50" cy="84" rx="30" ry="7" fill="#a32761" opacity="0.22" />
      <circle cx="50" cy="51" r="43" fill="url(#candyOuterShellLight)" class="candyDiscLightStroke" />
      <circle cx="50" cy="48" r="39" fill="url(#candyBezelLight)" opacity="0.98" />
      <circle cx="50" cy="47" r="34.5" fill="none" stroke="rgba(255,255,255,0.58)" stroke-width="2.4" />
      <circle cx="50" cy="47.5" r="31" fill="url(#candyLensLight)" />
      <ellipse cx="50" cy="41.5" rx="27.5" ry="22.5" fill="url(#candyDomeLight)" opacity="0.98" />
      <circle cx="50" cy="47.5" r="28.5" fill="none" stroke="url(#candyInnerRimLight)" stroke-width="3.8" opacity="0.92" />
      <path d="M17 67 C20 31 41 15 76 24 C57 24 39 34 22 57 Z" fill="url(#candyTopGlassLight)" opacity="0.96" />
      <path d="M25 30 C30 24 35 23 39 26 C42 29 40 36 33 43 C27 49 24 46 22 41 C20 36 21 33 25 30 Z" fill="#ffffff" opacity="0.95" />
      <path d="M61 33 C70 31 78 33 80 39 C82 44 77 47 70 47 C64 47 59 44 57 40 C55 36 56 34 61 33 Z" fill="#ffffff" opacity="0.22" />
      <path d="M31 68 C34 65 38 64 41 65 C44 67 44 70 41 72 C37 75 32 75 29 72 C27 71 28 69 31 68 Z" fill="#ffffff" opacity="0.72" />
      <path d="M28 75 C40 79 56 79 68 75" fill="none" stroke="url(#candyRimGlossLight)" stroke-width="5.8" stroke-linecap="round" opacity="0.94" />
      <ellipse cx="60" cy="72" rx="16" ry="7" fill="#8e3655" opacity="0.10" />
    </symbol>

    <symbol id="neoDiscB" viewBox="0 0 100 100">
      <ellipse cx="50" cy="84" rx="30" ry="7" fill="#30156e" opacity="0.24" />
      <circle cx="50" cy="51" r="43" fill="url(#candyOuterShellDark)" class="candyDiscDarkStroke" />
      <circle cx="50" cy="48" r="39" fill="url(#candyBezelDark)" opacity="0.98" />
      <circle cx="50" cy="47" r="34.5" fill="none" stroke="rgba(255,255,255,0.44)" stroke-width="2.4" />
      <circle cx="50" cy="47.5" r="31" fill="url(#candyLensDark)" />
      <ellipse cx="50" cy="41.5" rx="27.5" ry="22.5" fill="url(#candyDomeDark)" opacity="0.96" />
      <circle cx="50" cy="47.5" r="28.5" fill="none" stroke="url(#candyInnerRimDark)" stroke-width="3.8" opacity="0.96" />
      <path d="M17 67 C20 31 41 15 76 24 C57 24 39 34 22 57 Z" fill="url(#candyTopGlassDark)" opacity="0.92" />
      <path d="M25 30 C30 24 35 23 39 26 C42 29 40 36 33 43 C27 49 24 46 22 41 C20 36 21 33 25 30 Z" fill="#ffffff" opacity="0.84" />
      <path d="M61 33 C70 31 78 33 80 39 C82 44 77 47 70 47 C64 47 59 44 57 40 C55 36 56 34 61 33 Z" fill="#ffffff" opacity="0.18" />
      <path d="M31 68 C34 65 38 64 41 65 C44 67 44 70 41 72 C37 75 32 75 29 72 C27 71 28 69 31 68 Z" fill="#ffffff" opacity="0.64" />
      <path d="M28 75 C40 79 56 79 68 75" fill="none" stroke="url(#candyRimGlossDark)" stroke-width="5.8" stroke-linecap="round" opacity="0.90" />
      <ellipse cx="60" cy="72" rx="16" ry="7" fill="#140a2d" opacity="0.16" />
    </symbol>

    <symbol id="candySwirl" viewBox="0 0 100 100">
      <path d="M40 45 C44 38 55 37 60 42 C65 48 63 59 55 63 C47 67 37 64 34 56 C31 48 35 40 43 37" fill="none" stroke-width="4.8" stroke-linecap="round" stroke-linejoin="round" />
      <path d="M43 56 C46 59 51 60 56 58" fill="none" stroke-width="3.4" stroke-linecap="round" />
    </symbol>

    <symbol id="candyOfficerGlyph" viewBox="0 0 100 100">
      <path d="M50 34 L55 44 L66 45.5 L58 53.5 L60.5 64.5 L50 59 L39.5 64.5 L42 53.5 L34 45.5 L45 44 Z" />
      <circle cx="50" cy="50" r="4.4" />
    </symbol>

    <symbol id="candyCrown" viewBox="0 0 100 100">
      <path d="M29 63 L34 46 L42 56 L50 42 L58 56 L66 46 L71 63 Z" />
      <circle cx="34" cy="44" r="3.8" />
      <circle cx="50" cy="40" r="4.2" />
      <circle cx="66" cy="44" r="3.8" />
      <rect x="29" y="63" width="42" height="7" rx="3.5" />
    </symbol>

    <symbol id="candyKingGlyph" viewBox="0 0 100 100">
      <path d="M34 63 L39 49 L46 57 L50 45 L54 57 L61 49 L66 63 Z" />
      <circle cx="39" cy="47" r="2.8" />
      <circle cx="50" cy="43" r="3.2" />
      <circle cx="61" cy="47" r="2.8" />
      <rect x="34" y="63" width="32" height="6" rx="3" />
    </symbol>

    <symbol id="candyOfficerLight" viewBox="0 0 100 100">
      <use href="#candyOfficerGlyph" class="candyOfficerMarkLight" transform="translate(50 50) scale(1.04) translate(-50 -50)" />
    </symbol>

    <symbol id="candyOfficerDark" viewBox="0 0 100 100">
      <use href="#candyOfficerGlyph" class="candyOfficerMarkDark" transform="translate(50 50) scale(1.04) translate(-50 -50)" />
    </symbol>

    <symbol id="candyKingLight" viewBox="0 0 100 100">
      <use href="#candyKingGlyph" class="candyKingMarkLight" transform="translate(50 50) scale(1.08) translate(-50 -54)" />
    </symbol>

    <symbol id="candyKingDark" viewBox="0 0 100 100">
      <use href="#candyKingGlyph" class="candyKingMarkDark" transform="translate(50 50) scale(1.08) translate(-50 -54)" />
    </symbol>

    <!-- Simple, modern silhouettes. These are intentionally original (not traced). -->
    <symbol id="neoPawn" viewBox="0 0 100 100">
      <circle cx="50" cy="33" r="10" />
      <path d="M38 46 C38 41 42 38 50 38 C58 38 62 41 62 46 L62 50 C62 55 59 60 56 63 C64 65 70 70 70 76 L30 76 C30 70 36 65 44 63 C41 60 38 55 38 50 Z" />
      <rect x="30" y="76" width="40" height="8" rx="4" />
    </symbol>

    <symbol id="neoRook" viewBox="0 0 100 100">
      <path d="M32 30 H40 V38 H46 V30 H54 V38 H60 V30 H68 V46 H64 V76 H36 V46 H32 Z" />
      <rect x="30" y="76" width="40" height="8" rx="4" />
    </symbol>

    <!-- Bishop notch is a real cutout (mask) matching the original slash geometry. -->
    <mask id="neoBishopNotchMask" maskUnits="userSpaceOnUse" x="0" y="0" width="100" height="100">
      <rect x="0" y="0" width="100" height="100" fill="white" />
      <!-- Cut out exactly what the (former) slash stroke covered: thin + rounded caps. -->
      <path d="M46 38 L60 52" stroke="black" stroke-width="6" stroke-linecap="round" fill="none" />
    </mask>

    <symbol id="neoBishop" viewBox="0 0 100 100">
      <g mask="url(#neoBishopNotchMask)">
        <path d="M50 24 C42 28 40 34 40 38 C40 45 45 49 50 54 C55 49 60 45 60 38 C60 34 58 28 50 24 Z" />
        <path d="M50 56 C41 62 34 67 34 76 H66 C66 67 59 62 50 56 Z" />
        <rect x="30" y="76" width="40" height="8" rx="4" />
      </g>
    </symbol>

    <symbol id="neoKnight" viewBox="0 0 100 100">
      <path d="M34 74 C34 62 38 52 45 44 C41 40 40 34 44 30 C50 24 64 26 70 34 C64 36 60 40 58 44 C64 48 66 56 66 74 H34 Z" />
      <circle cx="58" cy="38" r="3" class="neoCut" />
      <rect x="30" y="76" width="40" height="8" rx="4" />
    </symbol>

    <symbol id="neoQueen" viewBox="0 0 100 100">
      <path d="M32 40 L40 30 L50 42 L60 30 L68 40 L62 74 H38 Z" />
      <circle cx="40" cy="28" r="4" />
      <circle cx="50" cy="26" r="4" />
      <circle cx="60" cy="28" r="4" />
      <rect x="30" y="76" width="40" height="8" rx="4" />
    </symbol>

    <symbol id="neoKing" viewBox="0 0 100 100">
      <rect x="47" y="22" width="6" height="14" rx="3" />
      <rect x="43" y="26" width="14" height="6" rx="3" />
      <path d="M38 40 C38 34 43 30 50 30 C57 30 62 34 62 40 L62 52 C62 58 59 62 56 65 C64 67 70 70 70 76 L30 76 C30 70 36 67 44 65 C41 62 38 58 38 52 Z" />
      <rect x="30" y="76" width="40" height="8" rx="4" />
    </symbol>

    <!-- ===== SVG fallbacks (used when PNGs are absent) ===== -->
    <symbol id="fallbackW_P" viewBox="0 0 100 100"><use href="#neoDiscW" /><g class="neoPieceW"><use href="#neoPawn" /></g></symbol>
    <symbol id="fallbackW_N" viewBox="0 0 100 100"><use href="#neoDiscW" /><g class="neoPieceW"><use href="#neoKnight" /></g></symbol>
    <symbol id="fallbackW_B" viewBox="0 0 100 100"><use href="#neoDiscW" /><g class="neoPieceW"><use href="#neoBishop" /></g></symbol>
    <symbol id="fallbackW_R" viewBox="0 0 100 100"><use href="#neoDiscW" /><g class="neoPieceW"><use href="#neoRook" /></g></symbol>
    <symbol id="fallbackW_Q" viewBox="0 0 100 100"><use href="#neoDiscW" /><g class="neoPieceW"><use href="#neoQueen" /></g></symbol>
    <symbol id="fallbackW_K" viewBox="0 0 100 100"><use href="#neoDiscW" /><g class="neoPieceW"><use href="#neoKing" /></g></symbol>

    <symbol id="fallbackB_P" viewBox="0 0 100 100"><use href="#neoDiscB" /><g class="neoPieceB"><use href="#neoPawn" /></g></symbol>
    <symbol id="fallbackB_N" viewBox="0 0 100 100"><use href="#neoDiscB" /><g class="neoPieceB"><use href="#neoKnight" /></g></symbol>
    <symbol id="fallbackB_B" viewBox="0 0 100 100"><use href="#neoDiscB" /><g class="neoPieceB"><use href="#neoBishop" /></g></symbol>
    <symbol id="fallbackB_R" viewBox="0 0 100 100"><use href="#neoDiscB" /><g class="neoPieceB"><use href="#neoRook" /></g></symbol>
    <symbol id="fallbackB_Q" viewBox="0 0 100 100"><use href="#neoDiscB" /><g class="neoPieceB"><use href="#neoQueen" /></g></symbol>
    <symbol id="fallbackB_K" viewBox="0 0 100 100"><use href="#neoDiscB" /><g class="neoPieceB"><use href="#neoKing" /></g></symbol>

    <symbol id="fallbackW_S" viewBox="0 0 100 100"><use href="#neoDiscW" /></symbol>
    <symbol id="fallbackB_S" viewBox="0 0 100 100"><use href="#neoDiscB" /></symbol>
    <symbol id="fallbackW_O" viewBox="0 0 100 100"><use href="#neoDiscW" /><use href="#candyOfficerLight" /></symbol>
    <symbol id="fallbackB_O" viewBox="0 0 100 100"><use href="#neoDiscB" /><use href="#candyOfficerDark" /></symbol>
    <symbol id="fallbackW_DK" viewBox="0 0 100 100"><use href="#neoDiscW" /><use href="#candyKingLight" /></symbol>
    <symbol id="fallbackB_DK" viewBox="0 0 100 100"><use href="#neoDiscB" /><use href="#candyKingDark" /></symbol>

    <!-- ===== Final symbols (PNG over fallback when available) ===== -->
    <symbol id="W_P" viewBox="0 0 100 100"><use href="#fallbackW_P" /><image class="rasterPiece" href="pieces/candy/wp.svg" x="0" y="0" width="100" height="100" preserveAspectRatio="xMidYMid meet" /></symbol>
    <symbol id="W_N" viewBox="0 0 100 100"><use href="#fallbackW_N" /><image class="rasterPiece" href="pieces/candy/wn.svg" x="0" y="0" width="100" height="100" preserveAspectRatio="xMidYMid meet" /></symbol>
    <symbol id="W_B" viewBox="0 0 100 100"><use href="#fallbackW_B" /><image class="rasterPiece" href="pieces/candy/wb.svg" x="0" y="0" width="100" height="100" preserveAspectRatio="xMidYMid meet" /></symbol>
    <symbol id="W_R" viewBox="0 0 100 100"><use href="#fallbackW_R" /><image class="rasterPiece" href="pieces/candy/wr.svg" x="0" y="0" width="100" height="100" preserveAspectRatio="xMidYMid meet" /></symbol>
    <symbol id="W_Q" viewBox="0 0 100 100"><use href="#fallbackW_Q" /><image class="rasterPiece" href="pieces/candy/wq.svg" x="0" y="0" width="100" height="100" preserveAspectRatio="xMidYMid meet" /></symbol>
    <symbol id="W_K" viewBox="0 0 100 100"><use href="#fallbackW_K" /><image class="rasterPiece" href="pieces/candy/wk.svg" x="0" y="0" width="100" height="100" preserveAspectRatio="xMidYMid meet" /></symbol>

    <symbol id="B_P" viewBox="0 0 100 100"><use href="#fallbackB_P" /><image class="rasterPiece" href="pieces/candy/bp.svg" x="0" y="0" width="100" height="100" preserveAspectRatio="xMidYMid meet" /></symbol>
    <symbol id="B_N" viewBox="0 0 100 100"><use href="#fallbackB_N" /><image class="rasterPiece" href="pieces/candy/bn.svg" x="0" y="0" width="100" height="100" preserveAspectRatio="xMidYMid meet" /></symbol>
    <symbol id="B_B" viewBox="0 0 100 100"><use href="#fallbackB_B" /><image class="rasterPiece" href="pieces/candy/bb.svg" x="0" y="0" width="100" height="100" preserveAspectRatio="xMidYMid meet" /></symbol>
    <symbol id="B_R" viewBox="0 0 100 100"><use href="#fallbackB_R" /><image class="rasterPiece" href="pieces/candy/br.svg" x="0" y="0" width="100" height="100" preserveAspectRatio="xMidYMid meet" /></symbol>
    <symbol id="B_Q" viewBox="0 0 100 100"><use href="#fallbackB_Q" /><image class="rasterPiece" href="pieces/candy/bq.svg" x="0" y="0" width="100" height="100" preserveAspectRatio="xMidYMid meet" /></symbol>
    <symbol id="B_K" viewBox="0 0 100 100"><use href="#fallbackB_K" /><image class="rasterPiece" href="pieces/candy/bk.svg" x="0" y="0" width="100" height="100" preserveAspectRatio="xMidYMid meet" /></symbol>

    <symbol id="W_S" viewBox="0 0 100 100"><use href="#fallbackW_S" /></symbol>
    <symbol id="B_S" viewBox="0 0 100 100"><use href="#fallbackB_S" /></symbol>
    <symbol id="W_O" viewBox="0 0 100 100"><use href="#fallbackW_O" /></symbol>
    <symbol id="B_O" viewBox="0 0 100 100"><use href="#fallbackB_O" /></symbol>
    <symbol id="W_DK" viewBox="0 0 100 100"><use href="#fallbackW_DK" /></symbol>
    <symbol id="B_DK" viewBox="0 0 100 100"><use href="#fallbackB_DK" /></symbol>
  </defs>
</svg>
