<?xml version="1.0" encoding="UTF-8" standalone="no"?>
<!-- Created with Inkscape (http://www.inkscape.org/) -->

<svg
   version="1.1"
   id="svg1"
   width="150"
   height="150"
   viewBox="0 0 150 150"
   sodipodi:docname="wb.svg"
   inkscape:version="1.4 (86a8ad7, 2024-10-11)"
   xml:space="preserve"
   xmlns:inkscape="http://www.inkscape.org/namespaces/inkscape"
   xmlns:sodipodi="http://sodipodi.sourceforge.net/DTD/sodipodi-0.dtd"
   xmlns="http://www.w3.org/2000/svg"
   xmlns:svg="http://www.w3.org/2000/svg"><defs
     id="defs1"><inkscape:path-effect
       effect="powerstroke"
       message=""
       id="path-effect18"
       is_visible="true"
       lpeversion="1.3"
       scale_width="1"
       interpolator_type="CentripetalCatmullRom"
       interpolator_beta="0.2"
       start_linecap_type="zerowidth"
       end_linecap_type="zerowidth"
       offset_points="0.81686126,1.4911442 | 3.038785,1.7779197 | 5.3518005,1.4907452"
       linejoin_type="round"
       miter_limit="4"
       not_jump="false"
       sort_points="true" /><inkscape:path-effect
       effect="powerstroke"
       message=""
       id="path-effect16"
       is_visible="true"
       lpeversion="1.3"
       scale_width="1"
       interpolator_type="CentripetalCatmullRom"
       interpolator_beta="0.2"
       start_linecap_type="zerowidth"
       end_linecap_type="zerowidth"
       offset_points="0.14381321,0.59001441 | 0.53216529,-2.7438412 | 0.91299828,0.77244544"
       linejoin_type="round"
       miter_limit="4"
       not_jump="false"
       sort_points="true" /><inkscape:path-effect
       effect="powerstroke"
       message=""
       id="path-effect14"
       is_visible="true"
       lpeversion="1.3"
       scale_width="1"
       interpolator_type="CentripetalCatmullRom"
       interpolator_beta="0.2"
       start_linecap_type="butt"
       end_linecap_type="zerowidth"
       offset_points="1.1169304,4.8960628 | 1.7197421,4.7997435 | 3.4875492,1.3054201"
       linejoin_type="round"
       miter_limit="4"
       not_jump="false"
       sort_points="true" /><inkscape:path-effect
       effect="powerstroke"
       message=""
       id="path-effect12"
       is_visible="true"
       lpeversion="1.3"
       scale_width="1"
       interpolator_type="CentripetalCatmullRom"
       interpolator_beta="0.2"
       start_linecap_type="zerowidth"
       end_linecap_type="zerowidth"
       offset_points="0.2,1.5 | 1.5,1.5 | 2.8,1.5"
       linejoin_type="round"
       miter_limit="4"
       not_jump="false"
       sort_points="true" /><inkscape:path-effect
       effect="powerstroke"
       message=""
       id="path-effect10"
       is_visible="true"
       lpeversion="1.3"
       scale_width="1"
       interpolator_type="CentripetalCatmullRom"
       interpolator_beta="0.2"
       start_linecap_type="zerowidth"
       end_linecap_type="zerowidth"
       offset_points="0.77014948,2.8907917 | 2.5202858,1.9328482 | 6.1571903,1.3131923"
       linejoin_type="round"
       miter_limit="4"
       not_jump="false"
       sort_points="true" /><inkscape:path-effect
       effect="powerstroke"
       message=""
       id="path-effect8"
       is_visible="true"
       lpeversion="1.3"
       scale_width="1"
       interpolator_type="CentripetalCatmullRom"
       interpolator_beta="0.2"
       start_linecap_type="zerowidth"
       end_linecap_type="zerowidth"
       offset_points="0.31382038,2.5784688 | 3,2 | 5.8,2"
       linejoin_type="round"
       miter_limit="4"
       not_jump="false"
       sort_points="true" /><inkscape:path-effect
       effect="powerstroke"
       message=""
       id="path-effect7"
       is_visible="true"
       lpeversion="1.3"
       scale_width="1"
       interpolator_type="CentripetalCatmullRom"
       interpolator_beta="0.2"
       start_linecap_type="zerowidth"
       end_linecap_type="zerowidth"
       offset_points="0.79153388,1.9795945 | 3.2126261,2.1287118 | 4.4606079,1.6434232"
       linejoin_type="round"
       miter_limit="4"
       not_jump="false"
       sort_points="true" /><inkscape:path-effect
       effect="powerstroke"
       message=""
       id="path-effect6"
       is_visible="true"
       lpeversion="1.3"
       scale_width="1"
       interpolator_type="CentripetalCatmullRom"
       interpolator_beta="0.2"
       start_linecap_type="zerowidth"
       end_linecap_type="zerowidth"
       offset_points="0.76537321,0.89958984 | 1.2423103,1.0339335 | 1.8294931,1.0287326"
       linejoin_type="round"
       miter_limit="4"
       not_jump="false"
       sort_points="true" /><inkscape:path-effect
       effect="powerstroke"
       message=""
       id="path-effect5"
       is_visible="true"
       lpeversion="1.3"
       scale_width="1"
       interpolator_type="CentripetalCatmullRom"
       interpolator_beta="0.2"
       start_linecap_type="zerowidth"
       end_linecap_type="zerowidth"
       offset_points="1.2046765,2.104122 | 3.4255256,2.5944904 | 5.1369172,2.4600166"
       linejoin_type="round"
       miter_limit="4"
       not_jump="false"
       sort_points="true" /><inkscape:path-effect
       effect="powerstroke"
       message=""
       id="path-effect4"
       is_visible="true"
       lpeversion="1.3"
       scale_width="1"
       interpolator_type="CentripetalCatmullRom"
       interpolator_beta="0.2"
       start_linecap_type="zerowidth"
       end_linecap_type="zerowidth"
       offset_points="0.40832093,1.1328605 | 3,2 | 5.6342541,1.0182061"
       linejoin_type="round"
       miter_limit="4"
       not_jump="false"
       sort_points="true" /><inkscape:path-effect
       effect="fill_between_many"
       method="bsplinespiro"
       autoreverse="false"
       close="false"
       join="false"
       linkedpaths="#path7,0,1"
       id="path-effect9" /><inkscape:path-effect
       effect="fill_between_many"
       method="bsplinespiro"
       autoreverse="false"
       close="false"
       join="false"
       linkedpaths="#path9,0,1"
       id="path-effect11" /><inkscape:path-effect
       effect="fill_between_many"
       method="bsplinespiro"
       autoreverse="false"
       close="false"
       join="false"
       linkedpaths="#path11,0,1"
       id="path-effect13" /><inkscape:path-effect
       effect="fill_between_many"
       method="bsplinespiro"
       autoreverse="false"
       close="false"
       join="false"
       linkedpaths="#path13,0,1"
       id="path-effect15" /><inkscape:path-effect
       effect="fill_between_many"
       method="bsplinespiro"
       autoreverse="false"
       close="false"
       join="false"
       linkedpaths="#path15,0,1"
       id="path-effect17" /><inkscape:path-effect
       effect="fill_between_many"
       method="bsplinespiro"
       autoreverse="false"
       close="false"
       join="false"
       linkedpaths="#path17,0,1"
       id="path-effect19" /></defs><sodipodi:namedview
     id="namedview1"
     pagecolor="#ffffff"
     bordercolor="#000000"
     borderopacity="0.25"
     inkscape:showpageshadow="2"
     inkscape:pageopacity="0.0"
     inkscape:pagecheckerboard="0"
     inkscape:deskcolor="#d1d1d1"
     inkscape:zoom="2.7633334"
     inkscape:cx="39.445114"
     inkscape:cy="98.974668"
     inkscape:window-width="1904"
     inkscape:window-height="1041"
     inkscape:window-x="2025"
     inkscape:window-y="1136"
     inkscape:window-maximized="0"
     inkscape:current-layer="g1" /><g
     inkscape:groupmode="layer"
     inkscape:label="Bishop"
     id="g1"
     transform="translate(-1.8094089,1.0856454)"
     style="display:inline;opacity:1"><path
       style="display:inline;fill:#f8f8f8;fill-opacity:1;stroke:#2b2b2b;stroke-width:2.5;stroke-dasharray:none;stroke-opacity:1"
       d="m 30.189737,127.60661 c 0.622654,-11.8631 4.465063,-16.6825 14.500423,-18.1874 l 4.255307,-0.63812 -3.128055,-4.54647 C 40.063706,95.871893 38.605915,90.69404 38.571994,78.5 38.546437,69.312911 38.919756,66.554725 40.837136,61.76446 43.938974,54.015018 49.982501,45.177499 56.933635,38.226365 61.536118,33.623882 62.535315,32.071197 61.91567,30.484616 58.583693,21.953201 64.645262,13 73.753246,13 c 4.351384,0 9.531807,3.921068 10.978505,8.309643 1.172031,3.555369 1.065398,3.968081 -2.199346,8.512366 C 76.130187,38.73343 71.792639,52.478548 70.40568,68.25 L 69.724137,76 h 4.03644 4.03644 l 0.688065,-7.25 c 1.268884,-13.369973 4.805025,-25.950185 8.752127,-31.136664 1.350789,-1.774932 1.804562,-1.449209 7.662219,5.5 C 105.69023,55.914968 110,65.871772 110,78 c 0,9.5721 -4.23823,22.23915 -9.28346,27.74606 -2.427178,2.64928 -2.567688,2.49689 3.78346,4.10321 9.81223,2.48169 12.58039,6.31224 13.29733,18.40073 l 0.45964,7.75 H 74.003084 29.749197 Z"
       id="path1"
       inkscape:label="Silhouette" /><path
       style="display:inline;opacity:1;fill:#c9c9c9;fill-opacity:1;fill-rule:nonzero;stroke:none;stroke-width:4;stroke-linecap:round;stroke-linejoin:round;stroke-dasharray:none;stroke-opacity:1"
       d="m 67.619923,76.896547 c 0.321596,-0.03238 0.694672,-1.050419 1.030436,-5.24534 0.113452,-1.417426 0.206805,-2.914734 0.31541,-4.489373 0.01697,-0.246017 0.03404,-0.48975 0.05134,-0.730955 0.07832,-1.091925 0.175287,-2.252981 0.323595,-3.200843 0.176427,-1.202569 0.295491,-2.160138 0.39865,-3.022617 0.09317,-0.779002 0.163053,-1.389854 0.250552,-2.002424 0.08058,-0.564154 0.178216,-1.144671 0.330871,-1.873644 0.151076,-0.721439 0.357797,-1.597597 0.667145,-2.797716 0.959207,-3.683874 1.796962,-6.626678 2.580847,-9.105141 0.842022,-2.66228 1.597358,-4.708733 2.306209,-6.415916 0.33,-0.796356 0.64201,-1.468984 0.936496,-2.05083 0.43318,-0.855877 0.876046,-1.602499 1.332272,-2.304604 0.838344,-1.29016 1.827946,-2.58133 2.808241,-3.957069 0.387312,-0.559031 0.832239,-1.229118 1.242156,-1.990865 0.382282,-0.710393 0.710258,-1.457241 0.931628,-2.22115 0.04362,-0.150507 0.08289,-0.303666 0.117402,-0.458829 0.231492,-1.040654 0.231729,-2.086079 -0.01408,-3.014841 -0.140969,-0.532638 -0.349171,-0.977624 -0.586159,-1.347236 -0.329406,-0.513749 -0.692525,-0.847568 -0.930929,-1.06459 0.09268,0.322396 0.145304,0.77009 0.07266,1.283166 -0.05118,0.361486 -0.158552,0.720811 -0.319379,1.089214 -0.27569,0.631516 -0.685161,1.238123 -1.131552,1.871892 -0.03631,0.05155 -0.166756,0.235879 -0.203062,0.287425 -0.348292,0.492805 -0.718394,0.988617 -1.134412,1.517349 -0.465541,0.591673 -0.857782,1.060665 -1.29456,1.587396 -1.031941,1.282956 -2.102207,2.656735 -3.068091,4.107726 -0.529346,0.795207 -1.055354,1.653144 -1.588213,2.629489 -0.361653,0.66265 -0.745592,1.417498 -1.1484,2.297747 -0.827211,1.807143 -1.711832,3.953844 -2.668044,6.715868 -0.886861,2.561701 -1.813974,5.589638 -2.823928,9.327894 -0.337439,1.237889 -0.577216,2.200809 -0.75235,3.034275 -0.181196,0.862318 -0.290843,1.575857 -0.365066,2.276189 -0.07658,0.72254 -0.115268,1.436648 -0.14985,2.200942 -0.03857,0.852547 -0.07559,1.818024 -0.134235,2.969957 -0.06445,1.180812 -0.02584,2.485089 0.05439,3.637001 0.01794,0.257613 0.03885,0.516622 0.06239,0.775866 0.146523,1.613755 0.393767,3.227801 0.66751,4.609319 0.831254,4.195147 1.584272,5.100221 1.832103,5.075268 z"
       id="path6"
       sodipodi:nodetypes="cssssc"
       inkscape:path-effect="#path-effect7"
       inkscape:original-d="m 67.619923,76.896547 c 0,0 -0.91962,-9.133484 -0.447808,-13.881982 0.494533,-4.977162 0.241729,-5.254467 1.524359,-10.08888 1.94279,-7.322621 3.53374,-11.993964 5.189515,-15.782412 1.632047,-3.734159 3.228175,-5.751489 5.440856,-8.673732 1.49259,-1.971233 4.27665,-5.823795 2.38516,-8.866977"
       inkscape:label="Shadow01" /><path
       style="display:inline;opacity:1;fill:#d3d3d3;fill-opacity:1;fill-rule:nonzero;stroke:none;stroke-width:3;stroke-linecap:round;stroke-linejoin:round;stroke-dasharray:none;stroke-opacity:1"
       d="m 95.034721,112.40801 c 0.376484,-0.4669 1.538791,-1.87674 2.284332,-2.82225 a 3.1794811,5.48859 62.85483 0 0 0.564875,-0.87747 c 0.871492,-1.73931 1.562148,-3.04041 2.09368,-4.01015 0.717922,-1.30979 1.271842,-2.22347 1.691192,-2.88665 0.45057,-0.71255 0.84012,-1.28318 1.17972,-1.79375 0.34351,-0.516452 0.71736,-1.090993 1.07642,-1.749543 0.33272,-0.610227 0.66259,-1.308158 0.98767,-2.189372 0.21246,-0.575915 0.42217,-1.226903 0.64623,-2.022491 0.0655,-0.232465 0.13256,-0.478982 0.202,-0.742392 0.50525,-1.916594 1.06978,-4.458085 2.15855,-9.381314 0.47999,-2.94895 0.63491,-5.848185 0.43686,-8.7848 -0.1888,-2.799535 -0.67969,-5.372583 -1.28776,-7.825831 -0.82395,-3.980556 -2.27242,-7.42091 -3.06761,-9.121298 -0.0289,-0.0618 -0.0577,-0.122948 -0.0865,-0.183424 -1.6568,-3.482435 -2.51046,-3.845305 -2.68893,-3.770826 -0.30443,0.127046 -0.32471,0.847007 0.25058,4.531614 0.002,0.01158 0.0282,0.180698 0.03,0.192278 0.2638,1.687217 0.84114,5.394818 0.79332,8.844747 -0.11272,2.37311 -0.36804,4.619594 -0.85087,6.938537 -0.49905,2.39684 -1.20144,4.678939 -2.060027,7.015345 -1.369825,4.773541 -2.170966,7.210832 -2.727264,8.707745 -0.07881,0.21206 -0.152261,0.40412 -0.220833,0.578998 -0.233217,0.594766 -0.420652,1.014827 -0.571255,1.32837 -0.214603,0.446785 -0.41322,0.795723 -0.570957,1.065194 -0.200689,0.342847 -0.415506,0.691288 -0.740543,1.210223 -0.286035,0.456668 -0.739424,1.175002 -1.235605,1.994096 -0.472004,0.779182 -1.115976,1.867179 -1.919314,3.316228 -0.545414,0.983806 -1.217568,2.239236 -2.034531,3.849306 -0.732062,0.9004 -1.629047,2.03666 -1.95615,2.44232 z"
       id="path13"
       inkscape:path-effect="#path-effect14"
       inkscape:original-d="m 91.223371,109.33473 2.279114,-2.82646 c 7.179575,-14.29848 5.727458,-6.21445 10.151445,-23.657473 1.44016,-5.678301 1.5457,-10.294469 1.03,-15.282254 -0.69199,-6.692871 -3.4585,-13.322094 -3.4585,-13.322094"
       inkscape:linked-fill="path15"
       sodipodi:nodetypes="ccssc"
       transform="matrix(1,0,0,1.002327,0,-0.12683654)"
       inkscape:label="Shadow02" /><path
       style="display:inline;opacity:1;fill:#f8f8f8;fill-opacity:1;fill-rule:nonzero;stroke:none;stroke-width:3;stroke-linecap:round;stroke-linejoin:round;stroke-dasharray:none;stroke-opacity:1"
       d="m 34.378769,117.06875 c 0.140913,0.18148 0.633265,0.24224 2.119003,-0.2497 0.496897,-0.16453 1.042569,-0.36746 1.577042,-0.56809 0.130206,-0.0489 0.276445,-0.1039 0.406651,-0.15278 0.341972,-0.12838 0.681479,-0.25039 0.973766,-0.33138 0.780819,-0.28044 1.683097,-0.51603 2.740547,-0.7105 0.974139,-0.17915 2.022708,-0.31324 3.166668,-0.42382 2.110356,-0.204 4.432375,-0.30229 6.578552,-0.53256 3.264666,-0.34769 6.640189,-0.53744 9.945595,-0.66471 3.367108,-0.12964 6.580645,-0.19379 9.373332,-0.28904 0.261658,-0.009 0.518943,-0.0173 0.772216,-0.0253 2.873863,-0.09 5.507738,-0.12333 8.155821,-0.0826 2.739367,0.0421 5.469541,0.16175 8.725164,0.3684 1.154543,0.0753 2.181051,0.11304 3.146352,0.15229 1.008872,0.041 1.960996,0.084 3.053851,0.16865 1.14116,0.0884 2.392968,0.21941 3.899886,0.42643 1.629655,0.22388 3.488005,0.52723 5.677405,0.92934 0.29125,0.0381 0.6454,0.11283 1.03711,0.2125 0.42005,0.10689 0.86901,0.23874 1.31238,0.37553 0.39296,0.12124 0.79648,0.25106 1.16757,0.37015 0.59206,0.19002 1.1759,0.37201 1.72728,0.53361 1.05762,0.30996 1.89477,0.51503 2.52484,0.60917 0.37771,0.0564 0.6515,0.0684 0.84855,0.051 0.11892,-0.0105 0.20641,-0.0314 0.27041,-0.0573 0.0375,-0.0152 0.0666,-0.0321 0.0891,-0.0493 0.0126,-0.01 0.023,-0.0194 0.0316,-0.029 0.005,-0.005 0.009,-0.0103 0.0123,-0.0153 0.002,-0.003 0.004,-0.005 0.005,-0.008 0.004,-0.008 0.004,-0.008 0.004,-0.008 0.003,-0.005 0.003,-0.007 0.004,-0.008 0.001,-0.003 0.003,-0.006 0.004,-0.009 0.002,-0.006 0.004,-0.012 0.006,-0.0187 0.003,-0.0124 0.006,-0.0265 0.007,-0.0423 0.002,-0.0282 -2.4e-4,-0.0618 -0.009,-0.1015 -0.0142,-0.0677 -0.0462,-0.15248 -0.10539,-0.25722 -0.0976,-0.17273 -0.26679,-0.39516 -0.53701,-0.67222 -0.44133,-0.4525 -1.14115,-1.03647 -2.0764,-1.66653 -0.49246,-0.33177 -1.04189,-0.67018 -1.62104,-0.98748 -0.36831,-0.20179 -0.76692,-0.40711 -1.1812,-0.6047 -0.46043,-0.21962 -0.95218,-0.43536 -1.44299,-0.62305 -0.44963,-0.17193 -0.92547,-0.33068 -1.38732,-0.44274 -2.21211,-0.48005 -4.13274,-0.84729 -5.827166,-1.11816 -1.573544,-0.25154 -2.908696,-0.41331 -4.134326,-0.51967 -1.170872,-0.1016 -2.192598,-0.14866 -3.217598,-0.18536 -0.992784,-0.0355 -1.96684,-0.0608 -3.069944,-0.11894 -3.306916,-0.18141 -6.103068,-0.2627 -8.911804,-0.27108 -2.712908,-0.008 -5.385247,0.0525 -8.300556,0.14454 -9.6e-4,3e-5 -0.77884,0.0252 -0.7798,0.0252 -2.747863,0.0908 -5.966635,0.13006 -9.378743,0.23485 -3.34066,0.1026 -6.817044,0.26939 -10.204623,0.6208 -1.972373,0.20254 -4.330837,0.31402 -6.586031,0.58448 -1.216003,0.14583 -2.389563,0.33449 -3.502999,0.59859 -1.211,0.28725 -2.315646,0.65568 -3.299752,1.13073 -0.412322,0.21945 -0.808498,0.48219 -1.151565,0.73879 -0.1353,0.1012 -0.268238,0.20665 -0.397841,0.31481 -0.497011,0.41479 -0.944234,0.86843 -1.29907,1.28659 -1.055721,1.24414 -1.056311,1.81874 -0.941163,1.96704 z"
       id="path17"
       inkscape:linked-fill="path19"
       sodipodi:nodetypes="csssssc"
       transform="matrix(1,0,0,1.0462691,-0.09047,-5.7866051)"
       inkscape:label="Highlight03"
       inkscape:original-d="m 34.378769,117.06875 c 0,0 2.602537,-2.02079 4.433052,-2.80459 3.702464,-1.58535 8.931732,-1.5694 12.937274,-1.99034 6.662987,-0.70022 13.720251,-0.71222 19.451147,-0.9047 6.752003,-0.22678 11.31829,-0.2037 17.822677,0.18093 4.505285,0.26642 6.807291,-0.0359 16.013271,1.80942 2.92229,0.58576 8.68517,3.71082 8.68517,3.70928"
       inkscape:path-effect="#path-effect18" /><path
       style="display:inline;opacity:1;fill:#565352;fill-opacity:1;stroke:#262626;stroke-width:2.5;stroke-linecap:round;stroke-linejoin:round;stroke-dasharray:none;stroke-opacity:1"
       d="m 49.034982,108.56453 c 23.787889,-1.77838 28.932558,-1.60193 50.175506,-0.12794"
       id="path2"
       sodipodi:nodetypes="cc"
       inkscape:label="Basedivision" /></g></svg>
