<?xml version="1.0" encoding="UTF-8" standalone="no"?>
<!-- Created with Inkscape (http://www.inkscape.org/) -->

<svg
   version="1.1"
   id="svg1"
   width="150"
   height="150"
   viewBox="0 0 150 150"
   sodipodi:docname="wk.svg"
   inkscape:version="1.4 (86a8ad7, 2024-10-11)"
   xml:space="preserve"
   xmlns:inkscape="http://www.inkscape.org/namespaces/inkscape"
   xmlns:sodipodi="http://sodipodi.sourceforge.net/DTD/sodipodi-0.dtd"
   xmlns="http://www.w3.org/2000/svg"
   xmlns:svg="http://www.w3.org/2000/svg"><defs
     id="defs1"><inkscape:path-effect
       effect="powerstroke"
       message=""
       id="path-effect18"
       is_visible="true"
       lpeversion="1.3"
       scale_width="1"
       interpolator_type="CentripetalCatmullRom"
       interpolator_beta="0.2"
       start_linecap_type="zerowidth"
       end_linecap_type="zerowidth"
       offset_points="0.81686126,1.4911442 | 3.038785,1.7779197 | 5.3518005,1.4907452"
       linejoin_type="round"
       miter_limit="4"
       not_jump="false"
       sort_points="true" /><inkscape:path-effect
       effect="powerstroke"
       message=""
       id="path-effect16"
       is_visible="true"
       lpeversion="1.3"
       scale_width="1"
       interpolator_type="CentripetalCatmullRom"
       interpolator_beta="0.2"
       start_linecap_type="zerowidth"
       end_linecap_type="zerowidth"
       offset_points="0.14381321,0.59001441 | 0.53216529,-2.7438412 | 0.91299828,0.77244544"
       linejoin_type="round"
       miter_limit="4"
       not_jump="false"
       sort_points="true" /><inkscape:path-effect
       effect="powerstroke"
       message=""
       id="path-effect14"
       is_visible="true"
       lpeversion="1.3"
       scale_width="1"
       interpolator_type="CentripetalCatmullRom"
       interpolator_beta="0.2"
       start_linecap_type="butt"
       end_linecap_type="zerowidth"
       offset_points="1.1169304,4.8960628 | 1.7197421,4.7997435 | 3.4875492,1.3054201"
       linejoin_type="round"
       miter_limit="4"
       not_jump="false"
       sort_points="true" /><inkscape:path-effect
       effect="powerstroke"
       message=""
       id="path-effect12"
       is_visible="true"
       lpeversion="1.3"
       scale_width="1"
       interpolator_type="CentripetalCatmullRom"
       interpolator_beta="0.2"
       start_linecap_type="zerowidth"
       end_linecap_type="zerowidth"
       offset_points="0.2,1.5 | 1.5,1.5 | 2.8,1.5"
       linejoin_type="round"
       miter_limit="4"
       not_jump="false"
       sort_points="true" /><inkscape:path-effect
       effect="powerstroke"
       message=""
       id="path-effect10"
       is_visible="true"
       lpeversion="1.3"
       scale_width="1"
       interpolator_type="CentripetalCatmullRom"
       interpolator_beta="0.2"
       start_linecap_type="zerowidth"
       end_linecap_type="zerowidth"
       offset_points="0.77014948,2.8907917 | 2.5202858,1.9328482 | 6.1571903,1.3131923"
       linejoin_type="round"
       miter_limit="4"
       not_jump="false"
       sort_points="true" /><inkscape:path-effect
       effect="powerstroke"
       message=""
       id="path-effect8"
       is_visible="true"
       lpeversion="1.3"
       scale_width="1"
       interpolator_type="CentripetalCatmullRom"
       interpolator_beta="0.2"
       start_linecap_type="zerowidth"
       end_linecap_type="zerowidth"
       offset_points="0.31382038,2.5784688 | 3,2 | 5.8,2"
       linejoin_type="round"
       miter_limit="4"
       not_jump="false"
       sort_points="true" /><inkscape:path-effect
       effect="powerstroke"
       message=""
       id="path-effect7"
       is_visible="true"
       lpeversion="1.3"
       scale_width="1"
       interpolator_type="CentripetalCatmullRom"
       interpolator_beta="0.2"
       start_linecap_type="zerowidth"
       end_linecap_type="zerowidth"
       offset_points="0.79153388,1.9795945 | 3.2126261,2.1287118 | 4.4606079,1.6434232"
       linejoin_type="round"
       miter_limit="4"
       not_jump="false"
       sort_points="true" /><inkscape:path-effect
       effect="powerstroke"
       message=""
       id="path-effect6"
       is_visible="true"
       lpeversion="1.3"
       scale_width="1"
       interpolator_type="CentripetalCatmullRom"
       interpolator_beta="0.2"
       start_linecap_type="zerowidth"
       end_linecap_type="zerowidth"
       offset_points="0.76537321,0.89958984 | 1.2423103,1.0339335 | 1.8294931,1.0287326"
       linejoin_type="round"
       miter_limit="4"
       not_jump="false"
       sort_points="true" /><inkscape:path-effect
       effect="powerstroke"
       message=""
       id="path-effect5"
       is_visible="true"
       lpeversion="1.3"
       scale_width="1"
       interpolator_type="CentripetalCatmullRom"
       interpolator_beta="0.2"
       start_linecap_type="zerowidth"
       end_linecap_type="zerowidth"
       offset_points="1.2046765,2.104122 | 3.4255256,2.5944904 | 5.1369172,2.4600166"
       linejoin_type="round"
       miter_limit="4"
       not_jump="false"
       sort_points="true" /><inkscape:path-effect
       effect="powerstroke"
       message=""
       id="path-effect4"
       is_visible="true"
       lpeversion="1.3"
       scale_width="1"
       interpolator_type="CentripetalCatmullRom"
       interpolator_beta="0.2"
       start_linecap_type="zerowidth"
       end_linecap_type="zerowidth"
       offset_points="0.40832093,1.1328605 | 3,2 | 5.6342541,1.0182061"
       linejoin_type="round"
       miter_limit="4"
       not_jump="false"
       sort_points="true" /><inkscape:path-effect
       effect="fill_between_many"
       method="bsplinespiro"
       autoreverse="false"
       close="false"
       join="false"
       linkedpaths="#path7,0,1"
       id="path-effect9" /><inkscape:path-effect
       effect="fill_between_many"
       method="bsplinespiro"
       autoreverse="false"
       close="false"
       join="false"
       linkedpaths="#path9,0,1"
       id="path-effect11" /><inkscape:path-effect
       effect="fill_between_many"
       method="bsplinespiro"
       autoreverse="false"
       close="false"
       join="false"
       linkedpaths="#path11,0,1"
       id="path-effect13" /><inkscape:path-effect
       effect="fill_between_many"
       method="bsplinespiro"
       autoreverse="false"
       close="false"
       join="false"
       linkedpaths="#path13,0,1"
       id="path-effect15" /><inkscape:path-effect
       effect="fill_between_many"
       method="bsplinespiro"
       autoreverse="false"
       close="false"
       join="false"
       linkedpaths="#path15,0,1"
       id="path-effect17" /><inkscape:path-effect
       effect="fill_between_many"
       method="bsplinespiro"
       autoreverse="false"
       close="false"
       join="false"
       linkedpaths="#path17,0,1"
       id="path-effect19" /></defs><sodipodi:namedview
     id="namedview1"
     pagecolor="#ffffff"
     bordercolor="#000000"
     borderopacity="0.25"
     inkscape:showpageshadow="2"
     inkscape:pageopacity="0.0"
     inkscape:pagecheckerboard="0"
     inkscape:deskcolor="#d1d1d1"
     inkscape:zoom="4"
     inkscape:cx="92.125"
     inkscape:cy="88.625"
     inkscape:window-width="1920"
     inkscape:window-height="1009"
     inkscape:window-x="1679"
     inkscape:window-y="1072"
     inkscape:window-maximized="1"
     inkscape:current-layer="g1" /><g
     inkscape:groupmode="layer"
     inkscape:label="King Image"
     id="g1"
     transform="translate(1.5012584,1.4391988)"
     style="display:inline;opacity:1"><path
       style="display:inline;opacity:1;fill:#f8f8f8;fill-opacity:1"
       d="m 37.868896,116.48948 c 2.874515,-3.55052 12.832616,-5.93034 35.857167,-5.94727 22.46045,-0.0165 34.246777,2.39037 38.041587,7.00261 1.32041,1.60484 1.16536,1.68087 -2.07284,1.01639 -15.566637,-3.19425 -60.338326,-2.24366 -71.583905,-0.0713 -2.194521,0.42393 -2.00378,0.70269 -1.492009,-0.14152 0,0 0.780143,-1.2786 1.25,-1.85895 z M 20.68591,80.991351 C 19.552487,78.481327 18.597484,73.908153 18.814034,70.592647 19.863172,54.529754 30.813844,45.429509 44.14134,45.807707 57.475735,46.186101 51.007155,46.34981 46.03527,46.876289 29.977612,48.576655 20.490149,64.03377 22.125007,75.0737 c 0.6673,4.506166 2.061177,13.669191 -1.439097,5.917651 z m 36.980416,-49.830793 -0.02849,-6.351042 10.088223,0.15625 -0.02535,-4.103931 -0.0038,-6.00455 12.026052,0.10764 -0.04335,1.503982 -10.185432,0.07054 -0.139071,10.167814 -9.043544,0.08841 -0.138194,9.182952 -2.50067,0.06467 z m 22.001869,-6.235732 10.091989,0.02682 -0.07024,2.024295 -9.9795,-0.0561 z"
       id="path9"
       sodipodi:nodetypes="ssssssssssssscccccccccccccccccc"
       inkscape:label="LowerShadow" /><path
       style="display:inline;opacity:1;fill:#f8f8f8;fill-opacity:1"
       d="m 34.169493,127.1296 c 0.187205,-1.82126 0.617595,-8.6563 3.52532,-8.87882 1.375,-0.10523 8.125,-0.72237 15,-1.37142 13.90919,-1.31315 42.640012,-0.80498 53.883637,1.05186 6.99867,1.15581 5.19879,-0.0385 6.41259,3.69602 0.84709,2.60626 0.99975,6.03055 1.02986,7.54276 l 0.0552,2.7721 H 74.194823 l -40.183058,-0.33303 c 0,0 -0.09096,-2.06009 0.157728,-4.47947 z m 8.364412,-19.94559 c -0.781457,-1.02923 -5.268639,-6.0897 -10.318267,-11.643418 -4.021186,-4.422609 -9.024771,-9.858365 -9.891664,-12.145823 -1.380375,-3.642377 -1.282095,-5.970654 -1.207757,-8.126763 0.512526,-14.865455 8.917911,-25.956691 24.165571,-28.340063 6.21466,-0.971418 6.832304,-1.124499 17.815787,2.067577 0.873984,0.254002 0.984977,0.19442 1.454938,-0.3137 0.44054,-0.47631 0.861392,-1.589788 1.796254,-4.754952 1.051491,-3.560039 1.82556,-7.171919 1.53713,-7.460349 -0.28843,-0.28843 -2.14016,-0.524417 -4.114957,-0.524417 l -3.653039,0.04687 0.1073,-9.254548 9.08573,-0.02716 0.07136,-10.234779 10.521294,-0.0614 -0.171492,5.442285 -0.0077,5.044537 4.63811,0.04419 h 5.332273 v 4.5 4.5 l -2.557562,0.08215 c -1.256471,0.04036 -2.975202,0.06184 -4.419641,0.157623 -1.786904,0.118493 -2.923945,0.219226 -2.819549,0.716564 l 3.12937,12.745359 3.132547,-0.730595 c 1.709565,-0.398717 4.646634,-1.547032 7.241674,-2.103147 2.595041,-0.556116 4.668707,-0.742239 6.524496,-0.897821 16.323789,-1.368526 25.724509,6.768966 25.768699,22.533233 0.0243,8.65947 -2.18968,12.21698 -16.00355,26.00018 l -13.961928,13.933147 -22.64226,-0.64067 c -12.246992,0.0601 -22.484774,0.77018 -24.79684,1.0192 -3.691402,0.39758 -4.26889,0.38574 -4.26889,0.38574 z M 64.487159,82.442099 c 0.184747,-5.499247 0.06252,-10.921638 -0.218374,-12.048085 -0.727892,-2.91898 -8.108555,-6.327301 -13.167462,-6.859987 -9.183845,-0.967028 -13.36583,6.790484 -10.115239,12.994459 0.825463,1.575453 4.135116,5.895435 7.354785,9.59996 l 6.041444,5.7355 4.143305,1.392633 5.606695,-0.251976 z m 36.107831,2.337385 c 6.58883,-6.305156 7.09982,-8.730216 7.09982,-11.777493 0,-4.801964 -2.255,-7.782197 -6.81814,-9.010923 -4.356875,-1.173185 -10.32752,0.01962 -14.619357,3.070111 -2.737142,1.945468 -2.32874,3.07874 -2.6875,13.761514 -0.14826,4.414734 -0.3125,12.119406 -0.3125,12.119406 0,0 3.784482,0.505527 5.337677,0 4.71265,-1.533852 3.770474,-0.287405 12,-8.162615 z M 18.946996,71.442099 c -7.366779,-72.5277444 -7.366779,-72.5277444 0,0 z"
       id="path8"
       sodipodi:nodetypes="sssssscccssssssssssscccccccccccssscsssssccscssssscccssssssssssss"
       inkscape:label="WhiteSilhouette" /><path
       style="display:inline;opacity:1;fill:#d4d4d4;fill-opacity:1"
       d="m 53.444813,132.19329 c 11.1375,-0.16093 29.3625,-0.16093 40.5,0 11.137497,0.16093 2.025,0.29261 -20.25,0.29261 -22.275,0 -31.3875,-0.13168 -20.25,-0.29261 z M 50.111479,108.8632 c -38.531262,-109.9488454 -38.531262,-109.9488454 0,0 z m 45.906066,-0.4966 c -0.961521,-0.0765 4.938115,-5.17399 13.529635,-13.796051 9.896,-9.931186 13.38211,-15.458722 14.30227,-18.066637 1.75171,-4.964675 2.00851,-11.080143 0.44323,-16.902843 -1.16286,-4.325753 -7.24066,-10.232697 -7.03073,-10.227396 3.16466,0.07992 10.0541,10.294386 10.76192,16.292486 0.51782,4.387987 1.81355,7.805009 -1.47588,15.413364 -2.09903,4.855009 -5.06128,7.952018 -11.04847,14.341941 -5.31061,5.667836 -11.03667,13.617036 -11.55471,13.575826 z m -38.340244,-72.348488 4.708504,-0.06925 c 2.750959,-0.04046 5.401298,0.01215 5.564934,0.63767 0.16023,0.6125 -0.389952,3.739299 -0.440289,3.553857 -0.147576,-0.543668 0.02827,-2.548853 -0.918121,-2.869537 -0.959688,-0.325187 -3.38579,-0.322334 -4.643109,-0.318743 l -4.252286,0.0121 z m 23.190081,0.28929 c 1.530952,-0.140032 8.83083,-0.52297 8.833924,-0.35169 l 0.0175,0.968698 c 0.0019,0.102558 -7.41006,0.04151 -9.887078,0.04058 -0.130429,-4.9e-5 -0.100028,-0.553715 1.035654,-0.657592 z"
       id="path7"
       sodipodi:nodetypes="ssssaasssssssssscsssssccssssss"
       inkscape:label="RightShadow" /><path
       style="display:inline;opacity:1;fill:#333333;fill-opacity:1"
       d="m 30.521774,127.95727 c 0.0043,-8.25998 2.232127,-12.58113 7.231781,-15.42591 1.635043,-0.93033 2.975652,-2.02803 2.979129,-2.43932 0.0035,-0.4113 -4.288599,-5.3613 -9.537949,-11.000005 C 19.3939,86.415909 16.301542,80.629463 16.386216,71.382215 16.487507,60.320295 22.04933,50.85084 31.239007,46.094131 c 5.153551,-2.667552 16.103077,-3.423229 24.026987,-1.658212 7.934855,1.767455 7.722992,1.800753 8.564583,-1.346072 0.729223,-2.726668 0.693774,-2.75 -4.178054,-2.75 h -4.913516 v -9 -9 h 5 5 v -5 -5 h 9 9 v 5 5 h 5 5 v 9 9 h -4.608408 c -4.527177,0 -4.596251,0.04844 -3.918717,2.74795 0.379331,1.511372 0.833729,2.891987 1.009774,3.068032 0.176044,0.176045 2.696142,-0.385533 5.600217,-1.247951 6.710519,-1.992809 17.260277,-2.011181 23.044997,-0.04013 10.25029,3.492627 16.87864,12.893052 17.6584,25.04343 0.65284,10.172501 -2.02722,15.63908 -13.64723,27.836659 -11.70547,12.287293 -11.97903,12.821023 -7.63329,14.893363 4.57263,2.18053 6.72195,6.73716 7.28701,15.44865 l 0.47026,7.25 H 74.370514 l -43.896672,-0.22097 z m 83.409886,0.0509 c -0.1771,-5.83423 -2.03721,-10.77167 -5.77593,-12.70504 -5.02703,-2.59957 -14.501679,-4.30203 -35.270276,-4.29192 -23.229319,0.0113 -31.682387,2.64746 -34.49353,5.54699 -2.046015,2.11035 -2.91452,5.59395 -3.301907,8.81025 -0.36298,3.01366 -0.235167,6.16844 -0.235167,6.16844 l 79.20737,0.77262 z M 77.085708,107.53023 c 9.078768,0.0332 18.740799,0.97759 21.903299,1.34251 3.748903,0.43258 5.749993,0.30049 5.749993,-0.37955 0,-0.57367 4.03255,-6.18036 9.34316,-11.848193 C 126.13409,83.78239 129.218,78.895952 128.48466,69.760083 127.79119,61.120854 123.69294,53.87814 117.2129,49.839847 110.76111,45.819151 99.532839,45.159075 89.781929,48.227263 c -3.551393,1.117469 -6.572885,1.915954 -6.714428,1.774411 -0.141543,-0.141543 -0.908449,-3.048358 -1.704235,-6.459589 l -1.446884,-6.202238 h 4.911312 4.911313 v -6 -6 h -5 -5 v -5 -5 h -6 -6 v 5 5 h -5 -5 v 6 6 h 5 c 5.607077,0 5.622066,0.03102 3.623526,7.5 -0.847497,3.167281 -1.820713,4.887055 -2.655114,4.691865 C 62.982947,49.362238 59.88118,48.551972 56.814603,47.731121 48.7995,45.585666 38.881391,45.739475 33.582691,48.091399 21.37741,53.508933 15.218331,70.697143 21.281172,82.421384 c 0.907021,1.753986 5.222592,7.109931 9.482129,11.632025 4.259536,4.522094 8.936603,9.679681 10.501512,11.731391 l 2.845289,3.73036 8.411153,-0.97843 c 4.419211,-0.51406 15.485684,-1.03967 24.564453,-1.0065 z M 47.898487,86.565791 C 41.820645,80.412027 39.641469,76.91336 39.7194,72.815069 c 0.0625,-3.286807 1.324817,-6.089733 3.014778,-7.240681 2.930218,-1.995625 4.837618,-2.098498 8.859409,-2.153628 3.900904,-0.05347 7.213947,2.147331 9.085635,3.368527 2.781422,1.814757 4.199831,3.007806 4.186294,3.603921 L 64.337177,93.65993 57.675092,93.471969 C 55.955081,93.34107 51.268636,89.978036 47.898487,86.565788 Z m 13.098103,2.795294 0.367417,-18.282378 c 0,0 -0.896299,-0.564536 -3.57534,-2.21318 -2.75224,-1.69369 -7.448115,-3.322473 -11.919477,-1.268738 -2.411688,1.107709 -3.733721,5.694652 -2.344135,8.308532 1.261412,2.372779 4.33539,5.832838 7.357207,8.793348 3.021818,2.96051 5.616475,4.92147 6.669245,5.296049 2.372628,0.84419 3.418405,0.6938 3.445083,-0.633633 z M 83.720701,69.22279 c 0,0 3.576813,-2.926107 5.744488,-3.750562 8.414368,-3.200326 13.792331,-2.113726 16.391791,0.947865 3.30834,3.896498 4.05725,9.299337 -6.431318,20.254282 -4.827085,5.041721 -8.400695,6.41237 -10.316329,6.904749 l -6.016811,0.08712 z M 96.815196,85.089847 C 105.44207,76.157341 106.315,72.748063 103.70274,68.726645 102.0035,66.110771 94.778655,66.752667 90.140136,68.953788 l -3.401129,1.613941 -0.515165,18.80884 c -0.04898,1.788261 1.410828,1.782436 3.512713,0.827555 2.494172,-1.133096 3.871099,-1.7931 7.078641,-5.114277 z"
       id="path3"
       sodipodi:nodetypes="cscsssssscccccccccccccccsssssssssccccsssssccscsssssssscccccccccccccccccsssssssscscssssssccsssssssssscssscccscsssss"
       inkscape:label="BlackOutline" /></g></svg>
